<svg xmlns="http://www.w3.org/2000/svg" width="2721.333" height="2720"><path d="M1870.612 2599.67c-2.325-4.586-7.614-12.202-11.753-16.926-4.14-4.725-12.32-12.383-18.18-17.02-5.86-4.635-15.16-10.756-20.667-13.603s-15.87-7.037-23.028-9.314c-7.159-2.277-13.973-4.14-15.143-4.14s-5.812-1.772-10.317-3.938c-4.505-2.165-10.89-6.645-14.19-9.956s-6.62-6.039-7.378-6.063-4.483-3.493-8.278-7.71-8.425-9.553-10.289-11.86c-1.864-2.305-3.389-5.77-3.389-7.699 0-2.514-.944-3.866-3.333-4.774-1.834-.697-3.334-2.201-3.334-3.342s-.937-2.435-2.081-2.874c-1.145-.44-5.112-7.16-8.815-14.933-3.703-7.774-8.386-16.546-10.406-19.493s-5.368-8.658-7.44-12.692c-3.767-7.333-3.767-7.333-4.845-46.666-.593-21.634-1.44-53.434-1.883-70.667-.806-31.333-.806-31.333 5.21-35.552 3.307-2.32 7.72-7.12 9.804-10.667 3.79-6.448 3.79-6.448 4.227-35.781.24-16.133-.197-48.233-.973-71.333-.775-23.1-2.07-49.7-2.877-59.11-1.261-14.707-1.188-17.424.518-19.334 1.093-1.223 2.279-5.823 2.637-10.223.357-4.4 2.506-14.6 4.775-22.667 2.268-8.066 5.778-23.966 7.799-35.333 3.6-20.242 3.673-21.709 3.58-71.333-.078-40.615-.54-53.425-2.33-64.569-1.228-7.645-2.233-17.71-2.233-22.366 0-7.802-.261-8.564-3.333-9.732-1.834-.697-3.334-2.09-3.334-3.094s-1.2-2.912-2.666-4.24c-2.446-2.212-2.667-4.106-2.667-22.81 0-12.918-.587-21.765-1.602-24.127-.88-2.05-2.671-5.309-3.98-7.24-1.896-2.8-3.845-3.693-9.632-4.417-5.604-.7-7.733-1.635-9.354-4.109-1.154-1.761-2.099-4.057-2.099-5.1 0-1.044-1.56-7.215-3.465-13.714-1.907-6.499-4.553-16.916-5.88-23.149-1.328-6.233-4.82-18.233-7.76-26.667-2.94-8.433-8.423-22.616-12.184-31.517s-8.854-19.532-11.318-23.624-5.96-10.61-7.77-14.483-4.039-9.142-4.955-11.709-2.65-7.367-3.853-10.667-3.228-7.483-4.5-9.296c-1.273-1.814-2.315-4.637-2.315-6.275 0-1.637-1.5-5.187-3.333-7.889s-3.333-5.98-3.333-7.284c0-1.305-.857-4.072-1.904-6.148-1.048-2.076-5.028-10.674-8.845-19.108-3.817-8.433-8.01-17.433-9.318-20-1.308-2.566-4.236-9.352-6.507-15.079s-5.703-13.527-7.627-17.333c-1.924-3.807-6.666-11.737-10.536-17.622-3.871-5.886-12.58-18.186-19.355-27.333-6.774-9.148-15.101-19.933-18.504-23.966s-7.222-8.979-8.486-10.99c-1.265-2.01-7.089-8.74-12.942-14.954-5.983-6.352-10.643-12.466-10.643-13.964 0-1.466-1.2-3.307-2.667-4.092s-2.666-2.272-2.666-3.304-1.154-3.861-2.563-6.286c-1.41-2.426-4.085-10.488-5.946-17.917-1.86-7.428-4.908-16.953-6.77-21.166-1.864-4.212-3.388-9.016-3.388-10.674s-.896-4.733-1.992-6.834c-1.095-2.1-1.995-5.148-2-6.772 0-1.624 1.154-8.947 2.574-16.273 1.656-8.544 3.659-14.776 5.584-17.38 1.651-2.234 3.996-4.06 5.211-4.06s3.296 1.2 4.623 2.666c1.354 1.496 4.107 2.667 6.271 2.667 2.122 0 6.379 1.236 9.46 2.747 4.265 2.091 8.375 2.777 17.215 2.872 11.431.122 11.704.049 17.46-4.668 3.874-3.174 7.267-7.764 10.054-13.598 2.314-4.843 4.207-9.49 4.207-10.326 0-.835 1.099-3.958 2.442-6.94a671 671 0 0 1 4.658-10.087c1.22-2.567 2.747-5.567 3.396-6.667.65-1.1 2.267-4.4 3.596-7.333 1.328-2.934 3.222-8.034 4.209-11.334s2.155-14.566 2.597-25.035c.443-10.47 1.322-19.355 1.953-19.746.632-.39 1.149-10.312 1.149-22.048s.637-30.15 1.416-40.92c.933-12.898 2.001-20.04 3.13-20.917 1.221-.95 2.043-9 2.858-28 .63-14.667 1.115-35.967 1.079-47.334-.048-14.89-.693-23.061-2.307-29.234-1.526-5.832-1.806-9.002-.879-9.93s2.534-.416 5.032 1.6c2.019 1.63 8.47 6.637 14.337 11.128s13.852 9.637 17.745 11.434c3.893 1.798 10.493 3.564 14.667 3.923 5.816.502 10.106-.15 18.372-2.79 6.403-2.045 15.718-6.561 22.935-11.12 6.683-4.223 17.08-11.577 23.106-16.344 6.025-4.767 14.314-12.57 18.42-17.34s8.93-11.07 10.718-14 6.192-9.4 9.788-14.377c4.753-6.581 8.304-9.946 13.015-12.333 3.615-1.832 8.794-3.283 11.716-3.283 2.88 0 9.144-1.207 13.92-2.682 6.266-1.935 9.803-3.959 12.712-7.272 2.217-2.524 6.402-8.668 9.3-13.652 2.9-4.983 8.602-15.722 12.674-23.863 5.837-11.673 8.77-15.946 13.866-20.213 3.555-2.977 12.968-9.966 20.919-15.532 14.455-10.12 14.455-10.12 46.724-10.12 30.668 0 32.742-.16 41.792-3.239 5.238-1.78 12.093-5.012 15.234-7.18 3.14-2.167 9.036-7.46 13.1-11.76 4.065-4.302 8.694-9.957 10.286-12.568 1.593-2.61 5.043-11.162 7.667-19.004 3.34-9.981 5.14-18.355 6.003-27.92.677-7.514 1.252-21.571 1.276-31.238.045-17.576.045-17.576 4.379-20.551 2.383-1.637 5.732-4.228 7.442-5.758 2.905-2.599 4.364-2.75 22.21-2.305 18.12.452 19.175.337 20.557-2.246.802-1.497 1.472-5.011 1.49-7.81.016-2.798.566-7.393 1.22-10.21s2.233-16.018 3.51-29.334c2.32-24.21 2.32-24.21-.563-29.84-1.585-3.096-4.772-7.781-7.082-10.412-3.734-4.252-3.977-5.003-2.197-6.784 1.101-1.1 4.044-1.917 6.54-1.814s23.74.29 47.206.414c42.667.226 42.667.226 43.086-10.44.23-5.867-.21-12.803-.978-15.414s-2.82-6.084-4.561-7.72c-3.1-2.912-3.912-2.978-40.356-3.253-37.191-.28-37.191-.28-37.191-33.854s0-33.574-3.44-37.333c-1.893-2.068-9.935-10.96-17.873-19.76-13.042-14.458-15.001-16.112-20.33-17.163-4.136-.816-6.222-2.01-6.987-4-.6-1.56-1.604-5.193-2.23-8.073-.828-3.801-2.236-5.843-5.14-7.45-4-2.213-4-2.213-4-18.097s0-15.884-5.719-15.765c-3.145.066-6.445.844-7.333 1.73-1.008 1.007-1.724 6.694-1.905 15.143-.16 7.441-.58 14.281-.932 15.2-.352.917-2.98 2.299-5.841 3.069-2.86.77-7.232 2.77-9.716 4.443-2.483 1.674-5.204 4.426-6.047 6.115-.842 1.69-2.066 3.607-2.719 4.26-.658.658-31.15 1.253-68.487 1.335-37.016.08-68.326-.258-69.58-.755-1.252-.496-4.512-.164-7.243.737-4.692 1.548-5.136 1.44-8.055-1.953-1.846-2.146-3.085-5.306-3.078-7.85.013-3.195-1.074-5.154-4.333-7.84-4.345-3.58-4.345-3.58-.013-8.063 2.635-2.726 4.333-5.846 4.333-7.96 0-2.021-1.954-5.816-4.666-9.063-2.567-3.072-4.667-6.059-4.667-6.637 0-.579-1.644-1.366-3.652-1.75-2.01-.384-4.76-.106-6.114.618-1.353.725-3.596 3.82-4.985 6.877-1.72 3.787-2.533 8.64-2.553 15.225-.023 7.512-.55 10.124-2.363 11.716-1.283 1.126-4.133 3.473-6.333 5.214s-5.31 5.77-6.912 8.951c-1.601 3.182-6.256 13.66-10.345 23.283-4.809 11.321-8.19 21.676-9.58 29.334-1.182 6.51-2.6 12.33-3.153 12.933s-45.63 1.032-100.172.954c-83.906-.121-99.46-.436-101.068-2.043-1.326-1.327-2.081-6.31-2.502-16.526-.558-13.533-.371-15.007 2.496-19.72 1.705-2.803 5.298-8.096 7.986-11.762s5.568-8.707 6.401-11.2 1.516-6.765 1.516-9.494-1.797-11.19-3.992-18.8c-2.195-7.612-3.995-15.19-4-16.842 0-2.138 2.34-4.731 8.138-9 4.481-3.299 8.644-5.998 9.251-5.998.608 0 3.076-1.8 5.484-4s5.377-4 6.596-4 3.199-1.5 4.4-3.333c1.642-2.505 3.344-3.333 6.853-3.333 3.753 0 4.918-.654 5.936-3.334.697-1.833 2.033-3.336 2.967-3.34s3.43-1.39 5.543-3.081c3.64-2.913 3.906-3.842 5.054-17.66.666-8.022 1.878-15.915 2.692-17.54 1.047-2.092 1.198-13.378.515-38.66-.53-19.638-1.524-38.662-2.21-42.275s-3.491-11.084-6.236-16.601c-2.745-5.518-6.99-12.043-9.431-14.5-3.986-4.01-4.35-4.999-3.563-9.661.483-2.857 1.731-5.903 2.774-6.768 1.296-1.076 1.895-4.421 1.895-10.58 0-6.725-.555-9.47-2.191-10.837-1.205-1.007-16.355-10.033-33.667-20.06-17.311-10.025-31.67-19.176-31.906-20.334-.393-1.917 49.32-2.076 553.333-1.77 553.766.334 553.766.334 553.766 1239s0 1238.667-370.914 1239.003-370.913.336-375.14-8m744.721-1231.003c0-1237.334 0-1237.334-551.778-1237.669-394.415-.239-551.642.076-551.299 1.104.264.792 15.164 9.943 33.112 20.337 32.632 18.896 32.632 18.896 33.027 28.722.282 7.005-.144 10.45-1.484 12-1.033 1.194-2.256 4.173-2.717 6.619-.704 3.73-.221 5.065 3.001 8.287 2.112 2.112 6.678 9.557 10.146 16.545 6.305 12.705 6.305 12.705 7.558 41.047.689 15.587.965 34.641.613 42.341s-1.322 20-2.156 27.333c-.833 7.334-1.95 15.126-2.48 17.316-.663 2.731-2.61 4.905-6.193 6.916-2.876 1.612-5.686 4.17-6.246 5.683-.8 2.16-2.18 2.752-6.427 2.752-4.543 0-5.612.534-6.677 3.333-.866 2.28-2.28 3.334-4.47 3.334-1.762 0-3.938.886-4.837 1.968-.899 1.083-6.73 5.395-12.96 9.583-11.284 7.586-11.324 7.633-10.554 12.45.425 2.658 2.037 8.696 3.583 13.416 1.545 4.72 3.13 12.246 3.524 16.723.419 4.767.052 10.15-.885 12.989-.88 2.666-4.255 8.455-7.5 12.863s-5.9 8.54-5.9 9.181c0 .642-.9 1.914-2 2.827-1.535 1.273-1.964 4.494-1.843 13.83.087 6.693.545 13.97 1.019 16.17.81 3.76 1.26 4.01 7.509 4.185 3.656.102 48.204.283 98.996.403s92.854-.095 93.47-.477c.618-.381 1.883-5.362 2.811-11.069 1.048-6.439 4.428-16.952 8.91-27.709 3.971-9.533 9.009-21.05 11.194-25.592 2.876-5.978 5.531-9.303 9.62-12.043 5.647-3.785 5.647-3.785 6.388-15.075.408-6.21 1.757-13.518 2.998-16.242 1.241-2.723 3.492-5.613 5.003-6.422s4.533-1.078 6.714-.599 4.995 2.44 6.252 4.358 3.636 4.838 5.288 6.49c1.961 1.962 3.004 4.609 3.004 7.629 0 2.988-1.18 6.027-3.334 8.586-1.833 2.179-3.333 4.483-3.333 5.12s1.35 1.75 3 2.474c2.214.971 3.199 2.808 3.76 7.01.418 3.13 1.503 6.43 2.41 7.332.909.903 5.067 1.66 9.24 1.683 4.175.023 14.19.224 22.257.447 8.066.224 38.535.355 67.708.292 49.295-.107 53.093-.28 53.763-2.448.397-1.283 1.151-3.233 1.678-4.333s5.432-4.226 10.903-6.946c9.948-4.946 9.948-4.946 10.614-19.602.418-9.172 1.294-15.283 2.344-16.331.922-.922 4.822-1.7 8.667-1.732 6.99-.056 6.99-.056 6.99 16.61 0 16.104.096 16.681 2.903 17.08 1.596.228 3.591 1.244 4.432 2.257s1.935 4.663 2.43 8.11c.496 3.445 1.801 6.766 2.901 7.38s4.4 1.763 7.333 2.555c4.09 1.105 7.306 3.676 13.794 11.03a3313 3313 0 0 0 17.334 19.453c8.872 9.864 8.872 9.864 8.872 43.333 0 33.47 0 33.47 37.18 33.739 35.641.258 37.302.385 40.135 3.046 1.626 1.527 3.68 5.006 4.566 7.73.931 2.865 1.437 10.016 1.198 16.954-.412 12-.412 12-42.83 12.353-23.33.193-43.311-.148-44.403-.76-1.092-.61-3.754-.85-5.916-.533-2.161.317-3.93 1.048-3.93 1.624s2.179 4.259 4.842 8.182 5.604 8.934 6.537 11.134c1.383 3.26 1.353 6.96-.162 20-1.023 8.8-2.765 22.61-3.871 30.688-1.107 8.078-2.012 16.535-2.012 18.793 0 2.382-1.095 5.097-2.608 6.466-2.296 2.078-4.84 2.298-21.333 1.845-10.3-.283-18.726-.027-18.726.569 0 .595-3 2.948-6.667 5.227-6.666 4.144-6.666 4.144-6.711 22.278-.025 9.974-.592 24.134-1.26 31.468-.67 7.333-2.5 17.533-4.07 22.666-1.57 5.134-4.915 13.663-7.435 18.955-2.61 5.482-7.738 13.032-11.922 17.551-4.038 4.362-10.368 9.872-14.067 12.246-3.699 2.373-10.61 5.725-15.357 7.448-8.182 2.97-10.343 3.134-41.408 3.134-32.776 0-32.776 0-46.94 9.96-7.79 5.48-17.318 12.73-21.175 16.115-5.779 5.07-8.641 9.364-16.276 24.41-5.095 10.04-11.701 22.028-14.68 26.638-4.473 6.92-6.676 8.958-12.63 11.683-4.001 1.832-11.58 3.792-17.028 4.403-5.399.605-11.694 2.072-13.99 3.258-2.294 1.187-6.24 4.717-8.766 7.845-2.527 3.128-8.425 11.362-13.106 18.298-4.682 6.935-12.479 16.535-17.327 21.333s-13.69 12.227-19.65 16.51c-5.957 4.282-15.49 10.451-21.184 13.709-5.693 3.258-14.463 7.181-19.488 8.719-6.732 2.06-11.306 2.621-17.375 2.134-5.044-.405-11.234-2.079-15.962-4.316-4.249-2.01-13.444-8.125-20.435-13.59s-13.03-9.614-13.423-9.222c-.392.392.097 4.478 1.088 9.08 1.076 5 1.799 16.683 1.796 29.033 0 11.366-.502 32.366-1.111 46.666-.745 17.493-1.657 26.655-2.786 28-.923 1.1-2.13 6.8-2.683 12.667s-1.509 24.167-2.124 40.667-1.652 38.7-2.303 49.333c-.652 10.633-2.135 22.488-3.296 26.343-1.16 3.855-3.042 8.338-4.18 9.963s-2.069 4.132-2.069 5.571-1.156 3.856-2.569 5.37c-1.412 1.514-3.555 5.453-4.76 8.753-1.207 3.3-2.886 8.1-3.734 10.667-.847 2.566-3.654 8.787-6.239 13.824-3.243 6.322-6.444 10.415-10.337 13.219-5.288 3.807-6.375 4.057-17.4 4.005-9.279-.043-12.93-.652-17.307-2.885-3.051-1.557-7.65-2.83-10.22-2.83-3.309 0-5.09-.779-6.1-2.667-.786-1.466-2.194-2.666-3.13-2.666s-3.058 1.833-4.715 4.075c-1.981 2.68-3.938 8.892-5.713 18.137-2.522 13.135-2.56 14.43-.571 19.636 1.17 3.066 2.128 6.821 2.128 8.345s1.728 6.604 3.84 11.289c2.11 4.685 5.152 13.893 6.758 20.462 1.606 6.57 4.395 15.061 6.197 18.87s4.16 7.267 5.241 7.682c1.08.414 1.964 2.14 1.964 3.837 0 2.002 2.82 5.874 8.045 11.042 4.424 4.377 10.662 11.859 13.862 16.627s7.174 9.868 8.831 11.333c1.657 1.466 9.242 11.007 16.856 21.204 7.613 10.196 17.038 23.396 20.945 29.333s9.296 15.155 11.978 20.486c2.681 5.33 6.09 12.83 7.575 16.666s4.231 10.276 6.102 14.309a6186 6186 0 0 0 9.031 19.333c3.097 6.6 6.857 14.7 8.357 18s3.142 7.889 3.648 10.196 2.088 5.25 3.513 6.54c1.534 1.388 2.59 4.079 2.59 6.598 0 2.56 1.062 5.214 2.667 6.666 1.467 1.328 2.667 3.523 2.667 4.88s1.5 5.576 3.333 9.376 3.338 7.848 3.342 8.994c0 1.146 2.09 5.984 4.633 10.75 2.544 4.767 7.074 13.37 10.066 19.118s8.19 17.148 11.55 25.333c3.36 8.186 7.872 19.983 10.025 26.216s5.346 17.633 7.097 25.333c1.75 7.7 4.66 19.582 6.464 26.405 1.805 6.822 3.97 13.234 4.813 14.249.841 1.014 4.818 2.255 8.836 2.757 7.083.885 7.425 1.12 11.227 7.751 3.879 6.762 3.922 7.069 3.935 27.632.013 19.09.23 20.99 2.679 23.206 1.467 1.328 2.667 3.235 2.667 4.24 0 1.004 1.411 2.363 3.136 3.019 2.925 1.112 3.197 2.122 4.032 14.967.493 7.576 1.465 17.374 2.16 21.774s1.658 26.6 2.139 49.334c.579 27.342.359 46.974-.65 58-.839 9.166-2.756 23.566-4.26 32-1.505 8.433-3.92 20.133-5.367 26-1.447 5.866-3.507 12.928-4.577 15.693s-1.947 8.118-1.947 11.895c0 4.263-.766 7.715-2.019 9.1-1.732 1.913-1.826 4.487-.661 18.104.747 8.731 1.948 32.374 2.669 52.541s1.319 51.741 1.328 70.166c.013 25.81-.425 34.75-1.907 38.95-1.057 2.998-3.263 7.264-4.9 9.479-1.639 2.215-5.343 5.592-8.232 7.505-5.254 3.476-5.254 3.476-4.407 34.355.466 16.983 1.309 48.278 1.874 69.545.94 35.393 1.269 39.2 3.88 44.956 1.569 3.458 4.649 8.899 6.844 12.09 2.195 3.19 7.128 12.237 10.961 20.104s8.08 14.898 9.437 15.624 2.467 2.214 2.467 3.306 1.5 2.556 3.333 3.253c2.428.924 3.333 2.253 3.333 4.896 0 1.995 1.607 5.946 3.57 8.779 1.964 2.833 4.664 5.737 6 6.452s2.43 1.926 2.43 2.69 1.754 3.142 3.898 5.286c2.143 2.144 4.393 3.917 5 3.942.606.024 5.15 3.526 10.099 7.782 6.025 5.182 11.309 8.453 16 9.905 3.852 1.191 12.403 3.748 19.003 5.682 6.6 1.933 17.7 6.439 24.667 10.012s17.597 10.4 23.622 15.17c6.026 4.77 13.705 12.138 17.066 16.372 3.36 4.235 8.233 11.45 10.827 16.035 4.717 8.336 4.717 8.336 374.268 8s369.55-.336 369.55-1237.67m-1029.27-714.334c-.285-.916-.897-8.396-1.36-16.621-.84-14.956-.84-14.956 4.667-20.93 3.139-3.406 7.898-6.837 11.069-7.98 3.561-1.285 11.913-2.167 23.228-2.453 13.82-.35 17.666-.07 17.666 1.283 0 .951-1.95 4.786-4.333 8.52s-7.11 9.879-10.502 13.653-8.304 10.222-10.913 14.329c-4.745 7.467-4.745 7.467-15.832 9.667-6.097 1.21-11.555 2.2-12.128 2.2s-1.276-.751-1.561-1.668m14.93-2.37c9.659-1.72 9.659-1.72 13.713-8.904 2.23-3.95 7.183-10.68 11.007-14.953 3.825-4.273 8.39-10.19 10.145-13.15 1.756-2.96 3.103-5.839 2.995-6.398-.108-.56-7.244-.881-15.858-.714s-18.026.924-20.917 1.683c-3.493.917-7.18 3.462-10.998 7.593-5.745 6.213-5.745 6.213-4.97 20.213.426 7.7 1.031 14.813 1.344 15.805.313.993 1.313 1.522 2.224 1.176.91-.346 6.002-1.404 11.314-2.35m247.457-23.521c-.025-6.66-.839-12.312-2.245-15.605-1.213-2.84-2.205-5.99-2.205-7 0-1.409 2.507-1.837 10.754-1.837 5.915 0 11.867.595 13.227 1.323s3.198 3.578 4.086 6.333 2.238 5.795 3 6.754c.763.96 3.438 2.6 5.944 3.648 2.507 1.047 4.31 2.643 4.01 3.547-.302.904-4.105 3.063-8.451 4.798-4.347 1.735-11.203 4.039-15.237 5.12-4.033 1.08-8.573 2.278-10.087 2.662-2.607.661-2.757.137-2.796-9.743m14.883 4.95c1.467-.032 6.417-1.692 11-3.689 4.584-1.996 8.334-4.038 8.334-4.536s-1.762-1.52-3.915-2.27c-2.155-.752-4.852-3.178-6-5.398-1.147-2.218-2.085-4.766-2.085-5.661s-.993-2.725-2.207-4.066c-1.753-1.938-4.203-2.439-11.921-2.439-5.343 0-10.04.527-10.439 1.172-.398.644.213 3.049 1.357 5.343 1.167 2.34 2.281 8.707 2.535 14.495.25 5.678.503 10.403.564 10.5s2.36-.627 5.11-1.608 6.2-1.81 7.667-1.843m-70.817-130.968c-.484-.783.18-5.999 1.477-11.59 1.296-5.592 2.559-10.917 2.806-11.834.272-1.004 2.723-1.667 6.168-1.667 3.144 0 7.617.545 9.94 1.211s12.818 1.61 23.324 2.098 22.102 1.189 25.769 1.56c3.667.37 25.867 1.227 49.333 1.905 24.481.708 44.181 1.85 46.22 2.678 1.953.794 4.29 3.226 5.192 5.404 1.06 2.56 1.183 4.417.345 5.254-.712.712-4.548 1.663-8.525 2.112s-8.859 1.638-10.847 2.64c-2.931 1.476-17.492 1.804-76.969 1.736-50.475-.058-73.627-.528-74.233-1.507m150.616-1.63c2.31-1.03 7.177-2.237 10.814-2.68s7.176-1.37 7.865-2.058c.78-.78.428-2.51-.936-4.592-1.307-1.994-3.938-3.646-6.532-4.1-2.388-.42-23.543-1.343-47.01-2.053s-52.866-1.874-65.333-2.586-26-1.974-30.073-2.804-8.85-1.301-10.617-1.048c-2.714.389-3.45 1.597-4.754 7.794-.849 4.033-1.985 8.383-2.525 9.666s-.658 3.181-.26 4.217c.609 1.588 12.047 1.901 72.941 2 59.328.096 72.969-.218 76.42-1.757m-202.467-35.464c-.475-.767-.47-3.187.013-5.376.48-2.19 1.768-4.875 2.86-5.968 1.542-1.542 5.32-1.954 16.891-1.841 8.198.08 18.505.53 22.905 1 8 .855 8 .855 8 6.855s0 6-24.903 6.362c-16.28.237-25.202-.12-25.766-1.032zM1790 460c0-4.667 0-4.667-8-5.522-4.4-.47-14.377-.92-22.17-1-9.897-.101-14.566.358-15.483 1.522-.722.917-1.684 3.228-2.139 5.135-.454 1.908-.424 3.872.068 4.363s11.431.731 24.31.532C1790 464.667 1790 464.667 1790 460" style="fill:#fedda4;stroke-width:1.33333" transform="translate(22.347 -6.385)"/><path d="M238 2606.68C104.667 2606 104.667 2606 104.667 1368s0-1238 603.666-1238.335c503.234-.279 603.667-.038 603.667 1.449 0 .98-3.042 4.13-6.76 7.001-3.717 2.87-10.779 8.578-15.693 12.684s-11.982 11.006-15.705 15.333c-3.724 4.328-9.624 11.768-13.11 16.535-3.488 4.766-7.285 10.466-8.438 12.666s-5.046 11.8-8.648 21.334c-3.603 9.533-8.04 22.133-9.858 28-1.82 5.866-4.832 17.566-6.694 26-2.932 13.278-3.463 19.443-3.961 46-.575 30.666-.575 30.666 4.212 44 2.633 7.333 5.43 15.733 6.218 18.666.786 2.934 2.256 6.926 3.267 8.873 1.01 1.946 1.837 5.271 1.837 7.389 0 2.773-1.599 5.419-5.717 9.46-3.145 3.087-6.688 5.612-7.874 5.612s-3.688-2.615-5.561-5.811-4.915-6.8-6.759-8.008-6.819-3.12-11.054-4.248-16.102-2.41-26.369-2.848c-18.2-.777-18.883-.706-27.333 2.843-4.767 2.002-13.16 5.125-18.651 6.94-5.492 1.816-14.792 5.567-20.667 8.337s-13.982 7.72-18.015 11-10.034 7.812-13.334 10.07-10.2 8.545-15.333 13.97-14.14 14.94-20.014 21.143c-6.723 7.1-12.564 14.878-15.765 20.993-2.796 5.343-7.97 13.48-11.498 18.083s-7.618 10.731-9.09 13.619-6.086 13.35-10.255 23.25c-4.168 9.9-9.046 23.06-10.84 29.246-1.793 6.185-4.418 17.585-5.833 25.333s-4.547 19.488-6.961 26.088c-4.39 12-4.39 12-4.022 52 .201 22 .95 49.9 1.664 62 .713 12.1 2.172 25.6 3.241 30 1.07 4.4 1.966 9.452 1.992 11.228s.946 4.22 2.044 5.434c1.098 1.213 2.376 5.845 2.841 10.293.786 7.52.623 8.228-2.33 10.092-1.745 1.103-9.774 3.544-17.84 5.426-8.067 1.88-19.752 4.044-25.966 4.807-6.214.762-15.814 1.39-21.333 1.394-5.52.004-12.327.644-15.13 1.422-2.801.778-7.366 3.467-10.144 5.977-2.828 2.555-6.706 8.234-8.816 12.91-3.766 8.35-3.766 8.35-4.773 63.217-.553 30.177-1.664 58.491-2.467 62.92-.803 4.428-2.586 11.326-3.963 15.327-1.377 4.002-3.446 12.889-4.599 19.748-1.152 6.86-2.701 17.871-3.442 24.471-.74 6.6-1.35 20.15-1.357 30.111s.675 21.661 1.513 26c.838 4.34 2.788 9.324 4.333 11.078s6.41 4.838 10.81 6.853 12.371 4.962 17.714 6.548 15.292 3.355 22.11 3.93 13.106 1.486 13.974 2.022c.868.537 1.27 1.476.892 2.087-.377.61-5.037 2.418-10.355 4.015-5.317 1.598-12.166 4.351-15.218 6.118s-7.471 4.83-9.82 6.807c-2.35 1.976-5.383 6.19-6.743 9.362s-3.162 12.352-4.005 20.4c-.882 8.421-1.187 21.858-.72 31.651.448 9.36 1.162 21.518 1.588 27.018s1.572 11.8 2.547 14c.974 2.2 2.417 9.4 3.205 16 .79 6.6 2.023 17.7 2.742 24.667s1.637 16.867 2.039 22 1.654 19.533 2.782 32 2.925 28.921 3.993 36.565c1.068 7.645 1.942 18.013 1.942 23.042 0 7.227-.457 9.318-2.177 9.979-1.197.459-3.342.108-4.767-.783-2.073-1.295-3.857-1.197-8.941.492-3.493 1.16-7.98 3.81-9.97 5.886s-5.915 9.111-8.723 15.631-6.677 16.836-8.597 22.923c-1.92 6.088-3.489 12.988-3.485 15.334s.599 6.391 1.32 8.99c.723 2.6 3.42 6.767 5.993 9.262s4.68 5.225 4.68 6.067-1.261 2.674-2.803 4.069-3.642 4.158-4.667 6.14-1.849 6.184-1.832 9.337c.018 3.153.535 7.896 1.15 10.541s3.6 8.169 6.635 12.276c3.034 4.108 5.506 8.244 5.493 9.192-.014.948-1.8 4.343-3.969 7.544s-4.318 7.815-4.776 10.254c-.502 2.676.016 6.985 1.306 10.87 1.365 4.107 5.03 9.64 10.134 15.294 4.397 4.873 7.996 9.534 7.996 10.358s-.847 2.826-1.883 4.45c-1.035 1.625-2.891 7.986-4.125 14.137-1.233 6.15-3.626 15.805-5.317 21.455s-3.451 14.717-3.911 20.15-1.429 20.078-2.153 32.545-1.883 25.067-2.576 28-1.9 16.733-2.682 30.667c-.781 13.933-2.393 31.113-3.582 38.177-1.773 10.539-2.033 19.395-1.447 49.334.559 28.62 1.172 37.783 2.841 42.489 1.171 3.3 2.138 7.607 2.149 9.571.01 1.964-.935 4.525-2.1 5.691-1.167 1.166-4.1 4.998-6.52 8.516s-6.05 9.657-8.066 13.642c-2.016 3.986-6.934 12.617-10.93 19.18-3.994 6.564-9.097 15.564-11.338 20-2.24 4.437-5.503 12.263-7.249 17.393-2.49 7.315-4.726 10.91-10.366 16.667-3.955 4.037-9.382 11.364-12.06 16.283-2.677 4.919-8.727 17.485-13.443 27.925-4.717 10.44-8.576 19.511-8.576 20.157s-2.329 5.18-5.176 10.075-6.702 12.8-8.567 17.566c-1.865 4.767-4.133 11.224-5.04 14.35-.906 3.125-2.451 6.348-3.432 7.163-1.372 1.138-1.785 7.14-1.785 25.937 0 23.092-.148 24.536-2.666 25.884-2.267 1.213-2.667 2.791-2.667 10.531 0 7.701-.474 9.596-3.077 12.287-1.692 1.75-5.666 7.335-8.832 12.41-3.165 5.076-10.964 19.805-17.331 32.73-6.368 12.925-13.448 29.172-15.734 36.104-2.286 6.933-5.155 17.404-6.374 23.271-1.22 5.867-2.316 17.267-2.435 25.333-.18 12.114.324 16.348 2.89 24.322 2.725 8.467 4.01 10.427 10.44 15.92 5.521 4.717 7.179 6.944 6.707 9.012-.345 1.51-3.734 10.246-7.531 19.413-3.798 9.167-8.133 21.134-9.633 26.594s-4.72 15.083-7.152 21.383-5.394 17.047-6.58 23.881c-1.186 6.835-4.46 19.713-7.274 28.618s-5.547 19.49-6.071 23.524c-.524 4.033-4.293 17.533-8.375 30-7.423 22.667-7.423 22.667-8.197 58s-.774 35.333-137.441 35.346c-75.167.013-196.667-.293-270-.666m406.108-36.013c.774-35.334.774-35.334 8.196-58 4.083-12.467 7.852-25.967 8.376-30s3.255-14.62 6.07-23.524 6.075-21.703 7.243-28.439c1.17-6.736 4.446-18.65 7.282-26.476 2.836-7.825 6.688-19.157 8.562-25.182s6.125-17.41 9.45-25.299c6.045-14.344 6.045-14.344-1.621-21.712-6.381-6.133-8.113-8.82-10.333-16.035-2.058-6.69-2.637-12.162-2.536-24 .075-8.688 1.126-20.245 2.428-26.667 1.263-6.233 4.164-16.988 6.448-23.899 2.283-6.91 9.13-22.69 15.216-35.064s13.855-26.82 17.264-32.1c3.41-5.282 7.62-11.3 9.357-13.372 2.65-3.164 3.157-5.244 3.157-12.953 0-7.82.396-9.397 2.666-10.612 2.518-1.347 2.667-2.791 2.667-25.883 0-18.798.413-24.8 1.784-25.938.982-.814 2.526-4.038 3.433-7.163s3.071-9.282 4.81-13.682 5.033-11.439 7.32-15.642 4.72-7.988 5.406-8.412 1.247-1.943 1.247-3.377.597-3.647 1.326-4.92 4.51-9.546 8.402-18.382c3.892-8.835 9.4-20.235 12.242-25.333 2.841-5.097 8.542-12.868 12.67-17.268 5.75-6.13 8.07-9.869 9.927-16 1.333-4.4 4.227-11.6 6.432-16s6.508-11.9 9.564-16.666c3.055-4.767 7.929-13.345 10.83-19.062s8.424-14.607 12.274-19.755 6.99-10.37 6.98-11.604c-.01-1.236-.98-4.946-2.155-8.246-1.69-4.75-2.282-13.887-2.839-43.838-.578-31.12-.32-40.117 1.455-50.667 1.187-7.056 2.798-24.228 3.579-38.162s1.988-27.733 2.681-30.666c.694-2.934 1.853-15.534 2.577-28 .724-12.467 1.693-27.112 2.153-32.545s2.22-14.5 3.91-20.15c1.691-5.65 4.084-15.305 5.318-21.455 1.233-6.151 3.118-12.556 4.188-14.233 1.843-2.889 1.557-3.484-5.448-11.333-4.066-4.556-8.363-10.32-9.548-12.807s-2.467-6.842-2.847-9.677c-.426-3.173.164-7.395 1.533-10.981 1.224-3.204 3.404-6.892 4.844-8.196s2.619-3.064 2.619-3.913-2.767-5.267-6.15-9.818c-5.922-7.97-6.17-8.68-6.758-19.25-.527-9.499-.24-11.514 2.13-14.976 1.507-2.2 3.483-5.031 4.393-6.292 1.403-1.946 1-2.967-2.67-6.753-2.378-2.454-4.913-6.518-5.634-9.032s-1.311-7.095-1.311-10.178 1.57-10.588 3.491-16.676c1.92-6.088 5.79-16.403 8.597-22.923 2.808-6.52 6.734-13.554 8.724-15.631s6.582-4.761 10.205-5.964c5.166-1.716 7.299-1.864 9.885-.686 1.814.826 3.853 1.16 4.53.74.68-.42 1.234-4.222 1.234-8.451 0-4.23-.874-13.944-1.942-21.588s-2.864-24.099-3.992-36.566c-1.128-12.466-2.38-26.866-2.782-32-.403-5.133-1.32-15.033-2.04-22-.719-6.966-1.965-18.066-2.77-24.666s-2.096-13.5-2.87-15.334c-.772-1.833-1.889-7.833-2.48-13.333s-1.46-18.524-1.932-28.942c-.521-11.52-.246-24.784.704-33.854 1.046-9.988 2.532-16.941 4.5-21.053 2.145-4.484 5.178-7.692 11.24-11.89 4.566-3.162 12.26-7.084 17.097-8.715s8.765-3.548 8.727-4.257-5.235-1.693-11.55-2.187c-7.075-.553-16.596-2.54-24.81-5.177-7.332-2.354-16.127-6.15-19.545-8.436-4.444-2.972-6.753-5.675-8.103-9.489-1.197-3.38-2.105-13.085-2.48-26.494-.325-11.64.1-27.765.945-35.837.845-8.07 2.435-19.848 3.533-26.172 1.098-6.323 3.404-15.997 5.124-21.497s3.544-13.103 4.054-16.896 1.367-31.093 1.904-60.667c.976-53.77.976-53.77 4.745-62.12 2.11-4.673 5.991-10.357 8.818-12.91 2.777-2.51 7.342-5.2 10.144-5.978s9.595-1.42 15.095-1.425c5.5-.007 15.4-.672 22-1.48s19.5-3.356 28.666-5.663c16.667-4.194 16.667-4.194 16.398-11.98-.149-4.283-.942-8.596-1.762-9.586-.821-.989-2.671-7.385-4.111-14.213-1.44-6.829-3.18-22.015-3.864-33.749-.685-11.733-1.414-39.933-1.62-62.666-.373-41.334-.373-41.334 4.026-53.334 2.42-6.6 5.557-18.34 6.972-26.087 1.415-7.749 4.055-19.207 5.868-25.463s7.32-20.854 12.237-32.44c6.48-15.269 11.036-23.857 16.555-31.205 4.188-5.576 8.976-12.838 10.64-16.138s4.84-8.7 7.056-12 8.069-10.2 13.004-15.333a2245 2245 0 0 0 18.048-19.044c4.99-5.34 12.107-11.78 15.814-14.31s10.34-7.404 14.74-10.83 12.274-8.22 17.498-10.653 13.924-5.886 19.333-7.676c5.41-1.789 13.735-4.89 18.502-6.892 8.503-3.57 9.043-3.624 28.666-2.855 11.242.44 23.503 1.7 28 2.876 6.31 1.65 9.127 3.299 13.334 7.8 2.933 3.138 6.022 6.878 6.865 8.311 1.446 2.459 1.879 2.27 7.667-3.338 3.374-3.27 6.134-7.06 6.134-8.421 0-1.362-.646-3.684-1.435-5.16-.79-1.474-2.258-5.485-3.263-8.912-1.005-3.426-3.983-12.23-6.617-19.563-4.79-13.333-4.79-13.333-4.223-45.333.497-28.056.986-33.89 3.96-47.334 1.865-8.433 4.88-20.133 6.7-26 1.818-5.866 6.329-18.702 10.023-28.522 3.805-10.116 9.257-21.676 12.578-26.667 3.224-4.846 9.528-13.366 14.009-18.934s10.461-12.168 13.29-14.667c2.83-2.498 10.057-8.365 16.061-13.036 6.005-4.671 10.917-9.022 10.917-9.668 0-.677-255.248-1.033-601.666-.84C106 131.333 106 131.333 106 1368s0 1236.667 133.333 1237.346c73.334.374 194.234.674 268.667.667 135.333-.013 135.333-.013 136.108-35.346m189.642 36.287c-.87-.554-2.21-2.657-2.976-4.672-.767-2.016-1.995-12.504-2.73-23.307s-1.345-40.148-1.357-65.212c-.012-25.063.62-50.263 1.4-56 .782-5.736 2.632-15.224 4.111-21.084 1.48-5.86 4.39-15.46 6.467-21.333 2.078-5.874 5.249-14.28 7.046-18.68s4.065-9.8 5.04-12c.976-2.2 3.857-7 6.403-10.666s6.75-8.917 9.341-11.667c2.592-2.75 5.382-5 6.2-5s4.632-.934 8.476-2.075c4.012-1.191 9.237-4.107 12.268-6.846 3.486-3.149 7.76-9.722 12.576-19.344 4.012-8.015 9.947-23.084 13.187-33.487s8.07-26.714 10.732-36.248 6.568-20.933 8.681-25.333 6.514-15.5 9.78-24.667c3.267-9.166 7.568-21.766 9.56-28 1.99-6.233 6.24-16.831 9.446-23.551 3.204-6.72 6.99-15.72 8.41-20 1.422-4.28 2.98-11.982 3.464-17.115.484-5.134.276-14.547-.462-20.918-.765-6.61-2.516-13.887-4.077-16.947-1.505-2.95-2.736-7.14-2.736-9.313s2.366-8.347 5.259-13.72c2.892-5.373 7.155-14.747 9.473-20.83 2.713-7.12 5.352-11.807 7.408-13.153 1.803-1.182 3.193-3.4 3.193-5.093 0-1.65 1.11-4.431 2.468-6.18s2.707-3.78 3-4.513 2.812-5.598 5.597-10.81c3.173-5.936 6.41-10.144 8.667-11.265 1.98-.985 6.745-5.12 10.587-9.19 5.538-5.868 8.368-10.66 13.657-23.13 3.669-8.65 7.044-17.215 7.5-19.031.456-1.817 2.094-4.189 3.64-5.272s4.108-1.969 5.694-1.969 3.841-1.46 5.011-3.247c1.37-2.09 3.649-3.396 6.399-3.666 3.425-.337 4.473-1.18 5.29-4.26.56-2.114 2.15-5.114 3.533-6.668s4.06-5.54 5.95-8.86 4.924-11.12 6.743-17.333c1.819-6.215 4.601-14.544 6.183-18.51s3.471-11.963 4.2-17.769c.728-5.806 3.35-17.261 5.827-25.455s5.218-18.798 6.091-23.565 2.995-13.467 4.715-19.333c1.719-5.867 4.013-14.476 5.1-19.132 1.085-4.656 2.888-9.476 4.007-10.712s9.85-17.743 19.404-36.682 20.347-38.452 23.987-43.362 8.447-12.794 10.683-17.52 4.066-9.26 4.066-10.076 1.882-3.816 4.182-6.666c2.299-2.851 5.955-8.934 8.125-13.517 2.171-4.586 4.816-8.333 5.882-8.333s2.958 1.888 4.208 4.195 5.254 8.742 8.9 14.298c3.645 5.556 9.77 13.268 13.608 17.137 5.404 5.447 7.904 7.036 11.071 7.036 3.137 0 4.387.778 5.359 3.334 1.234 3.247 1.608 3.333 14.546 3.333 7.304 0 14.8.578 16.656 1.283 2.206.84 4.777 4.06 7.42 9.296 2.224 4.406 4.044 9.288 4.044 10.848s1.65 4.47 3.667 6.465 7.984 8.702 13.261 14.902 11.323 13.66 13.435 16.575c2.113 2.916 4.695 6.867 5.74 8.78 1.043 1.913 3.864 6.075 6.269 9.25 2.404 3.175 4.733 7.309 5.175 9.187s1.864 4.614 3.16 6.08 5.418 9.4 9.159 17.63c3.74 8.23 6.801 15.845 6.801 16.922s.543 2.293 1.206 2.703 2.984 3.896 5.157 7.746 7.622 11.492 12.109 16.982c4.486 5.49 11.01 15.39 14.497 22s8.917 14.804 12.069 18.21c3.83 4.139 9.456 8.004 16.969 11.658 8.679 4.222 14.21 5.897 24.283 7.353 7.174 1.037 16.643 2.288 21.043 2.78 7.577.846 8.395 1.305 15.464 8.67 4.105 4.276 8.813 10.644 10.46 14.15 1.648 3.505 4.53 8.384 6.403 10.84 3.355 4.398 3.394 4.717 2.536 20.745-.479 8.953-1.763 24.678-2.853 34.945s-1.988 19.944-1.995 21.506c-.013 1.561-2.265 5.164-5.015 8.005s-7.31 8.656-10.134 12.922-6.359 11.164-7.856 15.329c-1.992 5.544-2.712 10.785-2.687 19.571.024 8.557 1.227 17.215 4.19 30.171 3.17 13.872 4.154 21.346 4.154 31.588 0 7.507.587 13.78 1.333 14.241.735.455 1.354 6.621 1.379 13.746.025 7.106.593 18.921 1.263 26.254s2.43 18.434 3.912 24.667 3.948 19.133 5.481 28.667c1.534 9.533 3.337 25.433 4.007 35.333s2.096 20.818 3.169 24.261c1.073 3.444 2.662 7.644 3.53 9.334.869 1.69 3.425 5.022 5.68 7.405 2.257 2.383 4.792 4.333 5.634 4.333s2.464 1.05 3.604 2.334c1.784 2.01 2.275 13.04 3.54 79.666 1.275 67.053 1.21 78.43-.494 85.578-1.081 4.534-4.625 14.163-7.876 21.396s-7.448 18.223-9.326 24.422-4.415 16.671-5.637 23.271c-1.413 7.632-2.521 23.162-3.044 42.667-.822 30.666-.822 30.666-328.822 30.98-180.4.174-328.712-.139-329.583-.693m657.072-31.62c.523-19.505 1.63-35.035 3.044-42.667 1.221-6.6 3.758-17.072 5.636-23.271s6.079-17.196 9.334-24.439 6.814-17.03 7.909-21.752c1.722-7.428 1.808-17.246.636-72.895-.745-35.37-1.36-69.89-1.368-76.711-.013-12.402-.013-12.402-4.346-14.224-2.384-1.003-5.91-3.522-7.837-5.6-1.927-2.076-4.216-5.157-5.086-6.847s-2.46-5.89-3.533-9.333c-1.074-3.444-2.5-14.362-3.17-24.262s-2.472-25.8-4.006-35.333-3.936-22.194-5.34-28.134c-1.402-5.94-2.932-13.74-3.4-17.333s-1.411-16.133-2.099-27.866c-.687-11.734-1.748-28.534-2.358-37.334-.64-9.25-2.678-22.468-4.83-31.333-2.803-11.544-3.723-18.628-3.725-28.667 0-9.28.709-15.36 2.334-20 1.284-3.666 4.67-10.185 7.526-14.485 2.854-4.3 5.19-8.365 5.19-9.033s1.5-1.785 3.334-2.482c1.833-.697 3.333-1.985 3.333-2.862s.827-2.542 1.838-3.7c1.17-1.34 2.629-10.1 4.012-24.104 1.196-12.1 2.56-28.464 3.033-36.364.86-14.363.86-14.363-3.188-20-2.227-3.1-4.937-7.764-6.023-10.364s-5.368-8.392-9.515-12.872c-7.312-7.897-7.793-8.172-15.849-9.048-4.57-.498-14.157-1.756-21.306-2.796-9.632-1.402-15.676-3.185-23.334-6.884-6.4-3.092-12.873-7.533-17.001-11.666-4.022-4.025-9.172-11.482-12.98-18.795-3.472-6.667-9.94-16.567-14.372-22s-10.346-13.778-13.14-18.545c-2.795-4.766-6.027-11.066-7.183-14s-4.844-11.033-8.195-18c-3.351-6.966-6.635-13.566-7.298-14.666s-2.322-4.33-3.686-7.177-4.13-6.85-6.146-8.897-3.667-4.373-3.667-5.169-1.833-3.977-4.072-7.069c-2.24-3.091-8.39-10.705-13.667-16.92-5.277-6.213-11.544-13.238-13.928-15.61-2.383-2.372-4.333-5.57-4.333-7.107s-1.82-6.4-4.044-10.806c-2.643-5.236-5.215-8.456-7.42-9.295-1.857-.706-9.352-1.284-16.656-1.284-12.938 0-13.312-.085-14.547-3.333-.976-2.567-2.218-3.333-5.403-3.333-2.793 0-5.4-1.265-8.033-3.898-2.143-2.143-3.897-4.558-3.897-5.366s-1.5-2.04-3.333-2.736-3.334-1.79-3.334-2.43-3.293-6.204-7.317-12.366c-4.025-6.162-8.128-12.37-9.119-13.793-1.674-2.406-2.054-2.036-5.385 5.24-1.972 4.306-5.668 10.372-8.215 13.48s-4.63 6.45-4.631 7.426c-.001.977-1.72 5.376-3.82 9.776s-6.72 11.9-10.265 16.667c-3.545 4.766-14.465 24.566-24.266 44-9.8 19.433-18.901 36.533-20.224 38s-2.767 5.042-3.21 7.945c-.442 2.903-2.557 11.303-4.701 18.666-2.144 7.364-4.826 18.189-5.962 24.055-1.135 5.867-3.883 16.54-6.106 23.72-2.223 7.178-4.629 17.733-5.346 23.454-.718 5.722-2.599 13.648-4.18 17.615-1.582 3.966-4.367 12.311-6.19 18.545-2.173 7.436-5.447 14.53-9.52 20.628-3.416 5.112-6.512 10.812-6.882 12.667-.53 2.66-1.591 3.46-5.026 3.791-2.839.274-5.093 1.55-6.48 3.667-1.17 1.786-3.426 3.247-5.011 3.247-1.586 0-4.217.934-5.847 2.075s-2.963 2.686-2.963 3.433-3.083 8.854-6.85 18.018c-5.434 13.214-8.25 18.192-13.614 24.06-3.72 4.07-8.887 8.77-11.483 10.444-3.322 2.142-6.292 6.142-10.027 13.507-2.919 5.754-6.369 11.894-7.667 13.643-1.298 1.748-2.36 4.53-2.36 6.18 0 1.693-1.39 3.91-3.193 5.092-2.003 1.313-4.547 5.72-6.824 11.82-1.996 5.35-6.26 14.672-9.473 20.715s-5.843 12.217-5.843 13.72 1.232 5.146 2.736 8.095c1.547 3.032 3.33 10.399 4.103 16.947.752 6.371.993 16.084.535 21.584s-1.465 12.4-2.238 15.333c-.774 2.934-3.554 10.134-6.179 16-2.624 5.867-5.508 11.567-6.407 12.667-.9 1.1-2.35 4.7-3.223 8-.874 3.3-4.171 13.5-7.328 22.667-3.156 9.166-7.635 21.762-9.954 27.99s-5.077 12.274-6.13 13.437-1.915 3.599-1.915 5.41c0 1.813-.573 3.87-1.273 4.57s-3.736 10.27-6.745 21.266-7.788 26.96-10.62 35.476c-2.83 8.516-7.538 20.216-10.46 26-2.923 5.785-7.19 13.087-9.481 16.228-2.293 3.141-6.05 6.855-8.35 8.254s-7.23 3.266-10.959 4.15-8.224 2.732-9.992 4.106c-1.767 1.374-5.789 6.039-8.937 10.365s-6.72 10.165-7.938 12.974-3.696 8.707-5.508 13.107-4.993 12.806-7.071 18.68c-2.078 5.873-4.994 15.473-6.48 21.332-1.485 5.86-3.41 16.052-4.279 22.649-1.11 8.437-1.36 28.604-.846 68 .403 30.803 1.391 60.159 2.196 65.235s2.126 10.027 2.936 11.003c1.219 1.468 57.78 1.715 328.973 1.437C1490 2606 1490 2606 1490.822 2575.333" style="fill:#b2b7c1;stroke-width:1.33333" transform="translate(22.347 -6.385)"/><path d="M1871.515 2598.336c-2.594-4.585-7.466-11.8-10.827-16.034-3.36-4.235-11.04-11.602-17.066-16.373-6.025-4.77-16.655-11.597-23.622-15.17s-18.067-8.079-24.667-10.012-15.151-4.49-19.003-5.682c-4.691-1.452-9.975-4.723-16-9.905-4.948-4.256-9.493-7.758-10.1-7.782s-2.856-1.798-5-3.942c-2.143-2.144-3.897-4.522-3.897-5.286s-1.093-1.975-2.43-2.69c-1.336-.715-4.036-3.619-6-6.452-1.963-2.833-3.57-6.784-3.57-8.78 0-2.642-.905-3.971-3.333-4.895-1.833-.697-3.333-2.16-3.333-3.253s-1.11-2.58-2.467-3.306-5.603-7.757-9.437-15.624-8.766-16.914-10.961-20.104c-2.195-3.191-5.275-8.632-6.844-12.09-2.611-5.757-2.94-9.563-3.88-44.956-.565-21.267-1.408-52.562-1.874-69.545-.847-30.879-.847-30.879 4.407-34.355 2.89-1.913 6.593-5.29 8.231-7.505s3.844-6.48 4.901-9.479c1.482-4.2 1.92-13.14 1.907-38.95-.013-18.425-.607-50-1.328-70.166-.721-20.167-1.922-43.81-2.669-52.54-1.165-13.618-1.07-16.192.661-18.106 1.253-1.384 2.02-4.836 2.02-9.099 0-3.777.875-9.13 1.946-11.895s3.13-9.827 4.577-15.693c1.447-5.867 3.862-17.567 5.367-26s3.421-22.834 4.26-32c1.009-11.026 1.229-30.658.65-58-.481-22.734-1.444-44.934-2.14-49.334-.694-4.4-1.666-14.198-2.16-21.774-.834-12.845-1.106-13.855-4.031-14.967-1.725-.656-3.136-2.015-3.136-3.02s-1.2-2.911-2.667-4.239c-2.448-2.215-2.668-4.115-2.68-23.206-.012-20.563-.055-20.87-3.934-27.632-3.802-6.63-4.144-6.866-11.227-7.75-4.018-.503-7.995-1.744-8.836-2.758s-3.008-7.427-4.813-14.25c-1.805-6.822-4.713-18.704-6.464-26.404-1.75-7.7-4.944-19.1-7.097-25.333s-6.664-18.03-10.025-26.216c-3.36-8.185-8.558-19.585-11.55-25.333a2584 2584 0 0 0-10.066-19.118c-2.543-4.766-4.628-9.604-4.633-10.75 0-1.146-1.508-5.193-3.342-8.994-1.833-3.8-3.333-8.02-3.333-9.376 0-1.357-1.2-3.552-2.667-4.88-1.605-1.452-2.666-4.106-2.666-6.666 0-2.519-1.057-5.21-2.591-6.599-1.425-1.29-3.006-4.232-3.513-6.54-.506-2.306-2.148-6.894-3.648-10.194s-5.26-11.4-8.357-18-7.16-15.3-9.031-19.334c-1.87-4.033-4.616-10.472-6.102-14.309-1.485-3.836-4.894-11.336-7.575-16.666s-8.072-14.55-11.978-20.486c-3.907-5.937-13.332-19.137-20.945-29.333-7.614-10.197-15.199-19.738-16.856-21.204-1.657-1.465-5.631-6.565-8.83-11.333-3.2-4.768-9.439-12.25-13.863-16.627-5.224-5.168-8.045-9.04-8.045-11.042 0-1.696-.884-3.423-1.964-3.838-1.08-.414-3.439-3.87-5.241-7.68s-4.591-12.302-6.197-18.871c-1.606-6.57-4.647-15.777-6.759-20.462s-3.839-9.765-3.839-11.289-.958-5.28-2.128-8.345c-1.989-5.206-1.95-6.501.57-19.636 1.776-9.245 3.733-15.458 5.714-18.137 1.657-2.242 3.779-4.075 4.715-4.075s2.344 1.2 3.13 2.666c1.01 1.888 2.791 2.667 6.1 2.667 2.57 0 7.169 1.273 10.22 2.83 4.377 2.233 8.028 2.842 17.307 2.885 11.025.052 12.112-.198 17.4-4.005 3.893-2.804 7.094-6.897 10.337-13.219 2.585-5.037 5.392-11.258 6.24-13.824s2.526-7.367 3.732-10.667 3.349-7.239 4.761-8.753c1.413-1.514 2.569-3.93 2.569-5.37s.931-3.946 2.069-5.571 3.02-6.108 4.18-9.963c1.161-3.856 2.644-15.71 3.296-26.343s1.688-32.833 2.303-49.333 1.57-34.8 2.124-40.667c.552-5.867 1.76-11.567 2.683-12.667 1.13-1.345 2.04-10.507 2.786-28 .609-14.3 1.109-35.3 1.111-46.666 0-12.35-.72-24.034-1.796-29.033-.99-4.602-1.48-8.688-1.088-9.08s6.433 3.758 13.423 9.223c6.991 5.464 16.186 11.58 20.435 13.59 4.728 2.237 10.918 3.91 15.962 4.315 6.07.487 10.643-.074 17.375-2.134 5.025-1.538 13.795-5.461 19.488-8.72 5.694-3.257 15.227-9.426 21.185-13.709s14.8-11.711 19.649-16.51c4.848-4.797 12.645-14.397 17.327-21.332 4.681-6.936 10.579-15.17 13.106-18.298s6.472-6.658 8.767-7.845 8.59-2.653 13.99-3.258c5.446-.611 13.026-2.57 17.027-4.403 5.954-2.725 8.157-4.763 12.63-11.683 2.979-4.61 9.585-16.597 14.68-26.639 7.635-15.045 10.497-19.339 16.276-24.41 3.857-3.384 13.386-10.635 21.175-16.113 14.164-9.961 14.164-9.961 46.94-9.961 31.065 0 33.226-.164 41.408-3.134 4.748-1.723 11.658-5.075 15.357-7.448s10.029-7.884 14.067-12.246c4.184-4.519 9.312-12.069 11.922-17.551 2.52-5.292 5.865-13.821 7.435-18.955s3.4-15.333 4.07-22.666c.668-7.334 1.235-21.494 1.26-31.468.045-18.134.045-18.134 6.711-22.278 3.667-2.28 6.667-4.632 6.667-5.227s8.427-.852 18.726-.57c16.493.454 19.037.234 21.333-1.844 1.513-1.369 2.608-4.084 2.608-6.466 0-2.258.905-10.715 2.012-18.793s2.848-21.888 3.87-30.688c1.516-13.04 1.546-16.74.163-20-.933-2.2-3.875-7.21-6.537-11.134-2.663-3.923-4.842-7.605-4.842-8.182 0-.576 1.769-1.307 3.93-1.624s4.824-.077 5.916.534c1.091.61 21.073.952 44.403.759 42.418-.353 42.418-.353 42.83-12.353.238-6.938-.267-14.09-1.198-16.953-.886-2.725-2.94-6.204-4.566-7.73-2.833-2.662-4.494-2.789-40.135-3.047-37.18-.27-37.18-.27-37.18-33.739s0-33.469-8.872-43.333c-4.88-5.425-12.68-14.18-17.334-19.453-6.488-7.354-9.704-9.925-13.794-11.03-2.933-.792-6.233-1.942-7.333-2.555s-2.405-3.935-2.9-7.38c-.496-3.447-1.59-7.096-2.43-8.11-.842-1.013-2.837-2.029-4.434-2.256-2.805-.4-2.903-.977-2.903-17.08 0-16.667 0-16.667-6.99-16.61-3.844.03-7.744.81-8.666 1.73-1.05 1.049-1.927 7.16-2.344 16.332-.666 14.656-.666 14.656-10.614 19.602-5.47 2.72-10.377 5.846-10.903 6.946-.527 1.1-1.281 3.05-1.678 4.333-.67 2.168-4.468 2.341-53.763 2.448-29.173.063-59.642-.068-67.708-.292-8.067-.223-18.082-.424-22.256-.447s-8.332-.78-9.24-1.683c-.909-.902-1.993-4.202-2.411-7.333-.561-4.201-1.546-6.038-3.76-7.01-1.65-.723-3-1.836-3-2.473s1.5-2.941 3.333-5.12c2.154-2.56 3.334-5.598 3.334-8.586 0-3.02-1.043-5.667-3.004-7.629-1.652-1.652-4.032-4.573-5.288-6.49-1.257-1.918-4.07-3.879-6.252-4.358-2.181-.48-5.203-.21-6.714.599-1.51.809-3.762 3.699-5.003 6.422-1.24 2.724-2.59 10.032-2.998 16.242-.741 11.29-.741 11.29-6.389 15.075-4.088 2.74-6.743 6.065-9.62 12.043-2.184 4.542-7.222 16.059-11.193 25.592-4.482 10.757-7.862 21.27-8.91 27.709-.928 5.707-2.193 10.688-2.81 11.07s-42.68.595-93.471.476c-50.792-.12-95.34-.3-98.996-.403-6.25-.174-6.7-.425-7.509-4.185-.474-2.2-.932-9.477-1.019-16.17-.121-9.336.308-12.557 1.842-13.83 1.1-.913 2-2.185 2-2.827s2.655-4.773 5.9-9.18c3.246-4.41 6.621-10.198 7.501-12.864.937-2.84 1.304-8.222.885-12.989-.393-4.477-1.98-12.002-3.524-16.723-1.546-4.72-3.158-10.758-3.583-13.417-.77-4.816-.73-4.863 10.554-12.449 6.23-4.188 12.061-8.5 12.96-9.583.899-1.082 3.075-1.968 4.837-1.968 2.19 0 3.604-1.055 4.47-3.334 1.065-2.8 2.134-3.333 6.677-3.333 4.247 0 5.628-.591 6.427-2.752.56-1.513 3.37-4.07 6.245-5.683 3.585-2.011 5.531-4.185 6.193-6.916.531-2.19 1.648-9.982 2.481-17.316.834-7.333 1.804-19.633 2.156-27.333s.076-26.754-.613-42.341c-1.253-28.342-1.253-28.342-7.558-41.047-3.468-6.988-8.034-14.433-10.146-16.545-3.222-3.222-3.705-4.556-3.001-8.287.461-2.446 1.684-5.425 2.717-6.62 1.34-1.549 1.765-4.994 1.484-11.999-.395-9.826-.395-9.826-33.027-28.722-17.948-10.394-32.848-19.545-33.112-20.336-.343-1.03 156.884-1.344 551.299-1.105 551.778.335 551.778.335 551.778 1237.669s0 1237.333-369.55 1237.669-369.55.336-374.268-8M2614 1368.666c0-1236 0-1236-549-1236.334-301.95-.184-548.996.116-548.991.666 0 .551 13.588 8.802 30.187 18.335 16.598 9.534 30.994 18.127 31.991 19.096 1.223 1.188 1.813 5.149 1.813 12.17 0 7.263-.56 10.873-1.855 11.947-1.02.847-2.121 3.352-2.446 5.568-.413 2.815.069 4.382 1.603 5.203 1.207.646 5.694 8.024 9.971 16.397 7.777 15.222 7.777 15.222 8.989 43.087.666 15.326.924 34.766.572 43.199s-1.342 21.633-2.2 29.333c-.857 7.7-2.122 15.525-2.81 17.389s-3.393 4.542-6.012 5.953c-2.62 1.41-5.284 3.936-5.921 5.611-.943 2.482-2.16 3.047-6.558 3.047-4.532 0-5.603.536-6.666 3.334-.808 2.124-2.304 3.333-4.125 3.333-1.571 0-4.844 1.65-7.272 3.667s-8.122 6.032-12.65 8.924c-4.53 2.891-8.486 5.913-8.794 6.714-.307.8 1.253 7.735 3.466 15.409 2.395 8.304 4.028 17.078 4.033 21.672 0 5.129-.896 9.493-2.686 13.001-1.482 2.905-5.682 9.685-9.333 15.067-6.64 9.785-6.64 9.785-6.482 20.332.087 5.801.546 12.347 1.02 14.547.813 3.772 1.242 4.007 7.51 4.122 3.655.067 47.614.24 97.687.387 50.072.146 91.534-.04 92.137-.413s1.884-5.347 2.846-11.053 3.514-14.576 5.67-19.71a1965 1965 0 0 0 7.17-17.333c1.788-4.4 5.175-11.79 7.527-16.422s5.476-9.057 6.942-9.833 4.017-2.64 5.667-4.144c2.54-2.313 3-4.1 3-11.655 0-6.037.906-11.103 2.8-15.661 1.976-4.755 3.912-7.199 6.579-8.303 2.078-.861 5.582-1.17 7.787-.685 2.63.578 4.937 2.454 6.71 5.458 1.485 2.518 3.225 4.579 3.865 4.579s1.86 1.528 2.712 3.396c.85 1.868 1.547 5.38 1.547 7.805 0 2.918-1.191 5.694-3.52 8.208-2.132 2.3-2.912 4.002-1.977 4.314.85.283 2.434 1.404 3.52 2.49 1.088 1.088 1.977 3.395 1.977 5.128s.558 4.62 1.24 6.413c1.24 3.261 1.24 3.261 76.006 3.49 74.767.228 74.767.228 75.994-3 .675-1.775 2.836-4.493 4.803-6.04 1.966-1.546 6.81-4.343 10.766-6.214 7.191-3.402 7.191-3.402 7.191-16.757 0-12.401.234-13.588 3.273-16.627 2.488-2.488 4.686-3.273 9.17-3.273 3.653 0 6.538.772 7.581 2.03 1.233 1.485 1.497 5.983.984 16.789-.7 14.76-.7 14.76 2.963 16.037 2.014.702 4.344 2.775 5.179 4.606.834 1.832 1.526 4.952 1.537 6.934.013 1.982.461 4.28 1 5.107s3.4 1.908 6.36 2.402c4.802.803 7.235 2.912 22.666 19.653 9.508 10.315 17.887 19.734 18.62 20.931.794 1.296 1.334 15.407 1.334 34.844 0 32.667 0 32.667 36.297 32.934 21.879.161 37.319.814 38.87 1.644 1.415.757 3.831 3.977 5.37 7.154 2.242 4.632 2.796 8.305 2.796 18.526 0 9.548-.489 13.155-1.946 14.364-1.465 1.216-13.484 1.503-48.667 1.163-25.697-.248-46.721 0-46.72.549 0 .55.493 1 1.095 1 .603 0 3.599 4.374 6.658 9.72 5.562 9.722 5.562 9.722 3.597 26.334-1.08 9.137-2.917 24.712-4.082 34.612-1.164 9.9-2.852 19.5-3.75 21.334-1.628 3.323-1.69 3.333-21.359 3.443-11.791.066-20.081.656-20.61 1.467-.485.747-3.338 2.895-6.338 4.774-5.455 3.416-5.455 3.416-6.276 31.866-.654 22.657-1.39 30.621-3.616 39.116-1.536 5.867-5.54 16.351-8.898 23.299-4.574 9.464-8.15 14.674-14.263 20.778-5.816 5.807-11.573 9.837-20.05 14.035-11.893 5.888-11.893 5.888-47.343 6.555s-35.45.667-44.774 7.16c-5.129 3.57-14.322 10.47-20.429 15.333-10.732 8.544-11.373 9.376-19.143 24.84-4.422 8.8-10.826 20.716-14.23 26.479-5.523 9.35-7.027 10.902-13.972 14.41-5.018 2.537-11.175 4.33-17.333 5.047-5.253.613-11.105 1.726-13.004 2.475-1.899.748-5.96 4.21-9.026 7.693s-9.539 12.269-14.385 19.525c-4.846 7.257-12.484 16.78-16.974 21.162-4.489 4.383-13.562 11.843-20.162 16.577s-18.798 12.064-27.108 16.287c-15.107 7.679-15.107 7.679-27.353 7.679-11.105 0-13.05-.4-20.892-4.286-4.756-2.357-13.747-8.147-19.98-12.867s-11.45-8.476-11.592-8.345c-.142.13.388 2.92 1.178 6.2s1.492 15.864 1.56 27.964-.365 33.7-.965 48c-.676 16.138-1.75 27.518-2.832 30-.958 2.2-2.18 7.297-2.716 11.327s-1.485 21.73-2.11 39.334c-.626 17.603-1.667 40.706-2.316 51.34-.648 10.633-1.963 22.033-2.923 25.333s-2.567 6.975-3.571 8.168-2.184 4.365-2.62 7.05c-.436 2.691-1.859 5.454-3.168 6.155-1.306.699-2.793 3.226-3.304 5.616s-1.382 4.944-1.935 5.677c-.553.734-1.757 3.734-2.676 6.667s-4.016 9.833-6.883 15.333c-3.75 7.195-6.79 11.098-10.837 13.913-5.275 3.671-6.408 3.91-18.29 3.867-10.27-.038-13.73-.589-18.28-2.913-3.088-1.577-7.665-2.867-10.171-2.867-3.134 0-5.132-.864-6.395-2.767-1.808-2.723-1.889-2.698-5.057 1.587-2.194 2.968-3.96 8.412-5.548 17.1-1.28 7.011-2 14.41-1.6 16.441.4 2.032 1.25 4.018 1.89 4.412.638.395 1.16 2.532 1.16 4.75 0 2.216 1.82 8.175 4.043 13.24s5.264 14.166 6.757 20.224c1.494 6.057 4.159 14.093 5.923 17.857 1.765 3.765 4.124 7.196 5.243 7.625s2.035 2.175 2.035 3.879c0 1.917 2.313 5.362 6.07 9.041 3.34 3.27 8.89 9.75 12.334 14.402s8.768 11.372 11.83 14.934c3.063 3.562 10.66 13.29 16.885 21.617 6.223 8.328 14.723 20.208 18.888 26.4s10.716 17.558 14.558 25.258c3.84 7.7 8.381 17.6 10.09 22s3.91 8.947 4.892 10.105 1.786 2.866 1.786 3.795c0 .93 3.039 8.083 6.753 15.895 3.714 7.813 7.569 16.005 8.566 18.205s2.487 6.197 3.311 8.882c.825 2.686 2.37 5.217 3.434 5.625 1.188.456 1.936 2.568 1.936 5.465 0 3.071.932 5.519 2.667 7.004 1.466 1.256 2.672 3.5 2.68 4.987.012 1.487 1.506 5.914 3.333 9.836 1.826 3.923 3.32 7.88 3.32 8.794s4.75 10.905 10.557 22.202c5.806 11.296 13.389 27.439 16.85 35.872s8.015 20.408 10.119 26.61c2.103 6.2 4.78 16.4 5.949 22.666 1.168 6.265 2.91 13.284 3.87 15.598.961 2.314 2.456 7.714 3.323 12s2.387 9.07 3.378 10.63c1.299 2.044 3.92 3.162 9.38 4 7.44 1.142 7.646 1.292 11.409 8.347 3.756 7.043 3.832 7.601 3.832 28.287 0 19.737.172 21.194 2.666 22.529 1.467.785 2.667 2.32 2.667 3.413s1.411 2.523 3.136 3.178c2.925 1.112 3.197 2.122 4.032 14.967.493 7.577 1.46 17.375 2.15 21.775s1.661 26.9 2.157 50c.615 28.61.398 47.664-.678 59.765-.87 9.771-3.06 25.772-4.867 35.557s-4.894 23.092-6.859 29.568-3.802 15.377-4.082 19.777c-.314 4.916-1.26 8.581-2.456 9.509-1.645 1.276-1.737 3.749-.595 16 .744 7.97 1.954 31.29 2.69 51.824.735 20.533 1.332 53.233 1.325 72.667-.013 32.68-.216 35.784-2.728 41.333-1.493 3.3-4.33 7.704-6.304 9.786-1.973 2.082-5.308 4.684-7.411 5.782-3.824 1.996-3.824 1.996-2.972 32.214l1.95 68.885c.86 30.32 1.562 39.893 3.25 44.348 1.185 3.124 3.89 8.224 6.01 11.333 2.121 3.109 7.301 12.41 11.512 20.672 4.21 8.26 8.799 15.631 10.197 16.38 1.399.748 2.543 2.254 2.543 3.346s1.416 2.525 3.146 3.183c2.317.88 3.368 2.584 3.988 6.46.583 3.643 2.489 6.962 6.187 10.773 2.94 3.03 5.346 5.853 5.346 6.275s1.753 2.522 3.897 4.665 4.305 3.898 4.804 3.898 5.043 3.569 10.098 7.93c6.474 5.587 11.262 8.528 16.196 9.953a6632 6632 0 0 0 16.922 4.851c5.454 1.556 16.313 6.036 24.132 9.957 7.818 3.921 19.13 10.834 25.14 15.361 6.008 4.528 14.119 12.237 18.025 17.132s8.452 11.58 10.104 14.858c1.653 3.277 3.606 6.71 4.341 7.627 1.067 1.33 75.97 1.601 369.506 1.333C2614 2604.667 2614 2604.667 2614 1368.667M1587.454 653.139c-.313-.992-.917-8.105-1.344-15.805-.775-14-.775-14 4.97-20.213 3.819-4.131 7.505-6.676 10.999-7.593 2.89-.759 12.302-1.516 20.916-1.683s15.75.154 15.858.714-1.24 3.439-2.995 6.398c-1.755 2.96-6.32 8.877-10.145 13.15-3.824 4.274-8.778 11.002-11.007 14.953-4.054 7.183-4.054 7.183-13.713 8.904-5.313.947-10.405 2.005-11.315 2.35-.91.347-1.911-.182-2.224-1.175m14.415-2.891c7.742-1.61 7.953-1.776 13.09-10.275 2.871-4.751 7.785-11.339 10.918-14.639s6.972-8.25 8.531-11c2.835-5 2.835-5-12.12-4.897-8.225.056-17.288.807-20.139 1.667-3.373 1.019-6.95 3.661-10.242 7.565-5.057 5.999-5.057 5.999-4.288 19.665.72 12.786.95 13.663 3.575 13.609 1.543-.032 6.347-.795 10.675-1.695m248.687-13.404c-.06-.097-.314-4.822-.564-10.5-.254-5.788-1.368-12.155-2.535-14.495-1.144-2.294-1.755-4.699-1.357-5.343s5.096-1.172 10.439-1.172c7.718 0 10.168.501 11.921 2.439 1.214 1.34 2.207 3.17 2.207 4.066s.938 3.443 2.085 5.66c1.148 2.22 3.845 4.647 6 5.398 2.153.75 3.915 1.773 3.915 2.271s-3.75 2.54-8.334 4.536c-4.583 1.997-9.533 3.657-11 3.689-1.466.032-4.916.861-7.666 1.843-2.75.981-5.05 1.705-5.11 1.608m12.443-4.9c3.483-.664 8.283-2.199 10.667-3.411s4.576-2.42 4.87-2.683c.296-.263-.984-1.675-2.844-3.139s-4.407-5.22-5.658-8.348-2.972-6.13-3.822-6.671c-.85-.54-5.365-.993-10.034-1.004-8.213-.02-8.457.077-7.493 2.98.547 1.65 1.634 7.969 2.416 14.042 1.172 9.113 1.782 10.903 3.493 10.241 1.14-.44 4.922-1.344 8.405-2.008m-69.228-131.393c-.398-1.036-.28-2.933.26-4.217s1.676-5.633 2.525-9.666c1.303-6.197 2.04-7.405 4.754-7.794 1.766-.253 6.544.219 10.617 1.048s17.606 2.092 30.073 2.804 41.867 1.876 65.333 2.586 44.621 1.633 47.01 2.052c2.594.455 5.225 2.107 6.532 4.101 1.364 2.082 1.717 3.811.936 4.592-.689.688-4.228 1.615-7.865 2.058s-8.503 1.65-10.814 2.68c-3.452 1.538-17.092 1.852-76.42 1.756-60.894-.099-72.332-.412-72.941-2m148.453-1.225c2.623-1.095 6.345-2 8.272-2.01s4.883-.387 6.568-.839c1.877-.503 2.905-1.655 2.65-2.972-.227-1.183-1.926-2.875-3.774-3.761-2.215-1.062-18.573-2.084-47.984-3-24.542-.763-55.123-1.987-67.956-2.719s-25.733-1.884-28.667-2.56c-2.933-.677-6.755-1.133-8.492-1.014-2.752.189-3.464 1.42-5.522 9.55-1.3 5.133-2.136 9.712-1.86 10.174.276.463 32.338.91 71.25.992 59.99.129 71.472-.151 75.515-1.84m-199.948-34.827c-.492-.491-.522-2.455-.068-4.363.455-1.907 1.417-4.218 2.14-5.135.916-1.164 5.585-1.623 15.482-1.522 7.794.08 17.77.53 22.17 1 8 .855 8 .855 8 5.522s0 4.667-23.415 5.03c-12.878.2-23.817-.04-24.309-.532z" style="fill:#fec25b;stroke-width:1.33333" transform="translate(22.347 -6.385)"/><path d="M1876.327 2603.67c-.736-.919-2.69-4.351-4.342-7.628s-6.199-9.963-10.104-14.858c-3.906-4.895-12.017-12.604-18.026-17.132-6.008-4.527-17.32-11.44-25.14-15.36-7.818-3.922-18.677-8.402-24.131-9.958a6632 6632 0 0 1-16.922-4.85c-4.934-1.426-9.722-4.367-16.196-9.954-5.055-4.361-9.6-7.93-10.098-7.93s-2.66-1.754-4.804-3.898c-2.144-2.143-3.897-4.242-3.897-4.665 0-.422-2.406-3.246-5.346-6.275-3.698-3.811-5.604-7.13-6.187-10.773-.62-3.876-1.671-5.58-3.988-6.46-1.73-.658-3.146-2.09-3.146-3.183s-1.144-2.598-2.543-3.346c-1.398-.749-5.987-8.12-10.197-16.38s-9.39-17.564-11.512-20.672c-2.12-3.109-4.825-8.209-6.01-11.333-1.688-4.455-2.39-14.028-3.25-44.348l-1.95-68.885c-.852-30.218-.852-30.218 2.972-32.214 2.103-1.098 5.438-3.7 7.411-5.782 1.974-2.082 4.81-6.486 6.304-9.786 2.512-5.55 2.717-8.653 2.728-41.333 0-19.434-.59-52.134-1.325-72.667-.736-20.533-1.946-43.854-2.69-51.824-1.142-12.251-1.05-14.724.595-16 1.196-.928 2.142-4.593 2.456-9.51.28-4.4 2.117-13.299 4.082-19.776 1.965-6.476 5.052-19.782 6.86-29.568 1.807-9.785 3.997-25.786 4.866-35.557 1.076-12.101 1.293-31.155.678-59.765-.496-23.1-1.466-45.6-2.156-50s-1.658-14.198-2.15-21.774c-.836-12.846-1.108-13.856-4.033-14.968-1.725-.655-3.136-2.086-3.136-3.178s-1.2-2.628-2.667-3.413c-2.494-1.335-2.666-2.792-2.666-22.53 0-20.685-.076-21.243-3.832-28.286-3.763-7.055-3.968-7.205-11.41-8.347-5.458-.838-8.08-1.956-9.379-4-.99-1.56-2.511-6.344-3.378-10.63s-2.362-9.686-3.322-12c-.961-2.314-2.703-9.333-3.871-15.598s-3.846-16.465-5.95-22.667c-2.103-6.201-6.656-18.176-10.118-26.609-3.461-8.433-11.044-24.576-16.85-35.872-5.806-11.297-10.557-21.287-10.557-22.201s-1.494-4.872-3.32-8.795c-1.827-3.922-3.327-8.349-3.334-9.836-.013-1.487-1.213-3.73-2.68-4.987-1.734-1.485-2.666-3.933-2.666-7.004 0-2.897-.748-5.009-1.935-5.465-1.065-.408-2.61-2.94-3.435-5.624-.824-2.686-2.314-6.683-3.311-8.883s-4.852-10.392-8.566-18.205-6.753-14.965-6.753-15.895-.804-2.637-1.786-3.795-3.184-5.705-4.892-10.105-6.25-14.3-10.09-22c-3.842-7.7-10.392-19.066-14.558-25.258-4.165-6.192-12.665-18.072-18.888-26.4s-13.822-18.055-16.885-21.617c-3.062-3.562-8.386-10.282-11.83-14.934s-8.995-11.132-12.334-14.402c-3.757-3.679-6.07-7.124-6.07-9.041 0-1.704-.916-3.45-2.035-3.879-1.12-.43-3.478-3.86-5.243-7.625-1.764-3.764-4.43-11.8-5.923-17.857-1.493-6.058-4.534-15.159-6.757-20.224s-4.042-11.024-4.042-13.24c0-2.218-.523-4.355-1.161-4.75-.64-.394-1.49-2.38-1.89-4.412s.32-9.43 1.6-16.44c1.588-8.69 3.354-14.133 5.548-17.101 3.169-4.285 3.249-4.31 5.057-1.587 1.264 1.903 3.261 2.767 6.395 2.767 2.506 0 7.083 1.29 10.17 2.867 4.552 2.324 8.01 2.876 18.28 2.913 11.883.043 13.016-.196 18.291-3.867 4.047-2.815 7.086-6.718 10.837-13.913 2.867-5.5 5.964-12.4 6.883-15.333s2.123-5.933 2.676-6.667c.553-.733 1.424-3.288 1.935-5.677.51-2.39 1.998-4.917 3.304-5.616 1.31-.7 2.732-3.464 3.168-6.154.436-2.686 1.615-5.859 2.62-7.051s2.612-4.868 3.571-8.168 2.275-14.7 2.924-25.334c.648-10.633 1.69-33.736 2.315-51.34.625-17.603 1.575-35.303 2.11-39.332s1.758-9.128 2.716-11.328c1.082-2.482 2.156-13.862 2.832-30 .6-14.3 1.034-35.9.965-48-.068-12.1-.77-24.683-1.56-27.964s-1.32-6.07-1.178-6.2 5.358 3.624 11.592 8.345c6.233 4.72 15.224 10.51 19.98 12.867 7.841 3.887 9.787 4.286 20.892 4.286 12.246 0 12.246 0 27.354-7.679 8.309-4.223 20.507-11.552 27.107-16.287s15.673-12.194 20.162-16.577c4.49-4.382 12.128-13.905 16.974-21.162s11.32-16.043 14.385-19.525c3.065-3.483 7.127-6.945 9.026-7.693 1.9-.749 7.75-1.862 13.004-2.475 6.158-.718 12.315-2.51 17.333-5.046 6.945-3.51 8.449-5.061 13.972-14.411 3.404-5.763 9.808-17.679 14.23-26.479 7.77-15.464 8.411-16.296 19.143-24.84 6.108-4.863 15.3-11.763 20.429-15.334 9.324-6.492 9.324-6.492 44.774-7.159s35.45-.667 47.343-6.555c8.477-4.198 14.234-8.228 20.05-14.035 6.113-6.104 9.69-11.314 14.263-20.778 3.357-6.948 7.362-17.432 8.899-23.299 2.225-8.495 2.961-16.459 3.615-39.116.82-28.45.82-28.45 6.276-31.866 3-1.88 5.853-4.027 6.339-4.774.528-.811 8.818-1.401 20.61-1.467 19.668-.11 19.73-.12 21.358-3.443.898-1.834 2.586-11.434 3.75-21.334s3.002-25.475 4.082-34.612c1.965-16.612 1.965-16.612-3.597-26.333-3.06-5.347-6.055-9.721-6.658-9.721-.602 0-1.096-.45-1.096-1s21.024-.797 46.72-.549c35.184.34 47.203.053 48.668-1.163 1.457-1.21 1.946-4.816 1.946-14.364 0-10.221-.554-13.894-2.797-18.526-1.538-3.177-3.954-6.397-5.37-7.154-1.55-.83-16.99-1.483-38.87-1.644-36.296-.267-36.296-.267-36.296-32.934 0-19.437-.54-33.548-1.334-34.844-.733-1.197-9.112-10.616-18.62-20.93-15.43-16.742-17.864-18.851-22.666-19.654-2.96-.494-5.821-1.575-6.36-2.402-.539-.826-.989-3.125-1-5.107-.013-1.982-.703-5.102-1.537-6.934-.835-1.83-3.165-3.904-5.18-4.606-3.661-1.276-3.661-1.276-2.961-16.037.512-10.806.248-15.304-.985-16.79-1.043-1.257-3.928-2.029-7.581-2.029-4.484 0-6.682.785-9.17 3.273-3.04 3.039-3.273 4.226-3.273 16.627 0 13.355 0 13.355-7.191 16.757-3.955 1.871-8.8 4.668-10.766 6.214-1.967 1.547-4.128 4.265-4.803 6.04-1.227 3.228-1.227 3.228-75.994 3s-74.766-.229-76.006-3.49c-.682-1.794-1.24-4.68-1.24-6.413s-.89-4.04-1.976-5.127c-1.087-1.087-2.671-2.208-3.521-2.491-.935-.312-.155-2.014 1.976-4.314 2.33-2.514 3.521-5.29 3.521-8.208 0-2.425-.696-5.937-1.547-7.805s-2.072-3.396-2.712-3.396-2.38-2.06-3.865-4.579c-1.773-3.004-4.08-4.88-6.71-5.458-2.205-.484-5.71-.176-7.787.685-2.667 1.104-4.603 3.548-6.579 8.303-1.894 4.558-2.8 9.624-2.8 15.66 0 7.556-.46 9.343-3 11.656-1.65 1.503-4.2 3.368-5.667 4.144s-4.59 5.201-6.942 9.833-5.739 12.022-7.527 16.422-5.014 12.2-7.17 17.334c-2.156 5.133-4.707 14.002-5.67 19.709-.962 5.706-2.243 10.68-2.846 11.053s-42.065.559-92.137.413-94.032-.32-97.688-.387c-6.267-.115-6.696-.35-7.509-4.122-.474-2.2-.933-8.746-1.02-14.547-.157-10.547-.157-10.547 6.482-20.332 3.651-5.382 7.851-12.162 9.333-15.067 1.79-3.508 2.692-7.872 2.686-13 0-4.595-1.638-13.37-4.033-21.673-2.213-7.674-3.773-14.608-3.465-15.41.307-.8 4.264-3.822 8.793-6.713s10.221-6.908 12.65-8.924c2.428-2.017 5.701-3.667 7.272-3.667 1.82 0 3.317-1.21 4.125-3.333 1.064-2.798 2.134-3.334 6.666-3.334 4.397 0 5.615-.565 6.558-3.047.637-1.675 3.302-4.2 5.92-5.611 2.62-1.41 5.326-4.09 6.014-5.953s1.952-9.689 2.81-17.389c.857-7.7 1.847-20.9 2.199-29.333s.095-27.873-.572-43.199c-1.212-27.865-1.212-27.865-8.989-43.087-4.277-8.373-8.764-15.751-9.97-16.397-1.534-.821-2.017-2.388-1.604-5.203.325-2.216 1.426-4.721 2.446-5.568 1.295-1.074 1.855-4.684 1.855-11.947 0-7.021-.59-10.982-1.813-12.17-.997-.97-15.393-9.562-31.991-19.096-16.599-9.533-30.183-17.784-30.187-18.335 0-.55 247.041-.85 548.991-.666 549 .335 549 .335 549 1236.335s0 1236-368.168 1236.335c-293.536.268-368.44 0-369.505-1.333M1587.618 638.332c-.77-13.666-.77-13.666 4.288-19.665 3.291-3.904 6.869-6.546 10.242-7.565 2.851-.86 11.914-1.61 20.14-1.667 14.954-.103 14.954-.103 12.12 4.897-1.56 2.75-5.4 7.7-8.532 11-3.133 3.3-8.047 9.888-10.918 14.639-5.137 8.499-5.348 8.664-13.09 10.275-4.328.9-9.132 1.663-10.675 1.695-2.625.054-2.856-.823-3.575-13.609M1851.1 623.71c-.782-6.073-1.869-12.392-2.417-14.042-.963-2.903-.72-3 7.494-2.98 4.669.01 9.184.463 10.034 1.004s2.57 3.543 3.822 6.671c1.251 3.128 3.797 6.885 5.658 8.348 1.86 1.464 3.14 2.876 2.845 3.14-.295.262-2.487 1.47-4.871 2.682s-7.184 2.747-10.667 3.41-7.265 1.568-8.405 2.008c-1.71.662-2.321-1.128-3.493-10.24m-55.642-123.535c-.277-.462.56-5.04 1.86-10.174 2.058-8.13 2.77-9.361 5.522-9.55 1.737-.119 5.559.337 8.492 1.013 2.934.677 15.834 1.829 28.667 2.561s43.414 1.956 67.956 2.72c29.411.915 45.769 1.937 47.984 2.999 1.848.886 3.547 2.578 3.775 3.761.254 1.317-.774 2.47-2.65 2.972-1.686.452-4.642.83-6.569.84s-5.65.914-8.272 2.01c-4.043 1.689-15.525 1.969-75.515 1.84-38.912-.083-70.974-.53-71.25-.992" style="fill:#fea100;stroke-width:1.33333" transform="translate(22.347 -6.385)"/><path d="M239.333 2605.346C106 2604.666 106 2604.666 106 1368s0-1236.667 601.667-1237.001c346.418-.193 601.666.163 601.666.84 0 .646-4.912 4.997-10.917 9.668-6.004 4.671-13.232 10.538-16.06 13.036-2.83 2.5-8.81 9.1-13.291 14.667s-10.785 14.088-14.01 18.934c-3.32 4.991-8.772 16.55-12.577 26.667-3.694 9.82-8.205 22.656-10.024 28.522-1.819 5.867-4.834 17.567-6.7 26-2.973 13.444-3.461 19.278-3.959 47.334-.567 32-.567 32 4.223 45.333 2.634 7.333 5.612 16.137 6.617 19.563 1.005 3.427 2.473 7.438 3.263 8.913s1.435 3.797 1.435 5.159-2.76 5.151-6.134 8.42c-5.788 5.61-6.221 5.798-7.667 3.34-.843-1.434-3.932-5.174-6.865-8.313-4.207-4.5-7.024-6.148-13.334-7.799-4.496-1.176-16.758-2.436-28-2.876-19.623-.769-20.163-.715-28.666 2.855-4.767 2.002-13.092 5.103-18.501 6.892s-14.11 5.244-19.334 7.676-13.099 7.226-17.499 10.653c-4.4 3.426-11.032 8.3-14.74 10.83-3.706 2.53-10.822 8.97-15.813 14.31-4.99 5.34-13.112 13.91-18.048 19.044-4.935 5.133-10.787 12.033-13.004 15.333s-5.392 8.7-7.056 12-6.452 10.562-10.64 16.138c-5.519 7.348-10.075 15.936-16.555 31.205-4.917 11.586-10.424 26.184-12.237 32.44s-4.453 17.714-5.868 25.463c-1.415 7.748-4.552 19.487-6.972 26.087-4.4 12-4.4 12-4.025 53.334.205 22.733.934 50.933 1.619 62.666.685 11.734 2.424 26.92 3.864 33.749 1.44 6.828 3.29 13.224 4.11 14.213.821.99 1.614 5.303 1.763 9.585.269 7.787.269 7.787-16.398 11.981-9.166 2.307-22.066 4.855-28.666 5.663s-16.5 1.474-22 1.48-12.293.647-15.095 1.425c-2.802.779-7.367 3.468-10.144 5.977-2.827 2.554-6.709 8.238-8.818 12.912-3.769 8.349-3.769 8.349-4.745 62.12-.537 29.573-1.394 56.873-1.904 60.666S867.626 966.5 865.907 972s-4.026 15.174-5.124 21.497-2.688 18.101-3.533 26.172-1.27 24.198-.945 35.836c.375 13.41 1.283 23.115 2.48 26.495 1.35 3.814 3.659 6.517 8.103 9.49 3.418 2.285 12.213 6.08 19.544 8.435 8.215 2.637 17.736 4.624 24.81 5.177 6.316.494 11.513 1.478 11.551 2.187.038.71-3.89 2.625-8.727 4.257s-12.531 5.553-17.097 8.715c-6.062 4.198-9.095 7.406-11.24 11.89-1.968 4.112-3.454 11.065-4.5 21.052-.95 9.07-1.225 22.335-.704 33.855.472 10.418 1.341 23.442 1.932 28.942s1.708 11.5 2.48 13.333c.774 1.834 2.065 8.734 2.87 15.334s2.051 17.7 2.77 24.666c.72 6.967 1.637 16.867 2.04 22 .402 5.134 1.654 19.534 2.782 32s2.924 28.921 3.992 36.566c1.069 7.644 1.942 17.359 1.942 21.588s-.555 8.032-1.233 8.451-2.717.087-4.531-.74c-2.586-1.178-4.719-1.03-9.885.686-3.623 1.203-8.215 3.887-10.205 5.964s-5.916 9.111-8.724 15.631-6.676 16.835-8.597 22.923-3.491 13.592-3.491 16.676.59 7.664 1.31 10.178c.722 2.514 3.257 6.578 5.635 9.032 3.67 3.786 4.073 4.807 2.67 6.753a405 405 0 0 0-4.393 6.292c-2.37 3.462-2.657 5.477-2.13 14.976.587 10.57.836 11.28 6.759 19.25 3.382 4.551 6.149 8.97 6.149 9.818 0 .849-1.179 2.61-2.62 3.913-1.44 1.304-3.62 4.992-4.843 8.196-1.37 3.586-1.959 7.808-1.533 10.98.38 2.836 1.661 7.191 2.847 9.678s5.482 8.25 9.548 12.807c7.005 7.85 7.29 8.445 5.448 11.333-1.07 1.677-2.955 8.082-4.188 14.232-1.234 6.151-3.627 15.806-5.318 21.456s-3.45 14.717-3.91 20.15-1.429 20.078-2.153 32.545c-.724 12.466-1.883 25.066-2.577 28-.693 2.933-1.9 16.733-2.681 30.666s-2.392 31.106-3.579 38.162c-1.775 10.55-2.033 19.547-1.455 50.667.557 29.95 1.149 39.089 2.84 43.838 1.174 3.3 2.144 7.01 2.154 8.246.011 1.234-3.13 6.457-6.98 11.604-3.85 5.148-9.374 14.038-12.275 19.755s-7.774 14.295-10.83 19.062c-3.055 4.766-7.358 12.266-9.563 16.666s-5.099 11.6-6.432 16c-1.857 6.131-4.176 9.87-9.927 16-4.128 4.4-9.829 12.17-12.67 17.268-2.841 5.097-8.35 16.497-12.242 25.333-3.892 8.837-7.673 17.108-8.402 18.381-.73 1.274-1.326 3.488-1.326 4.921s-.561 2.953-1.247 3.377-3.118 4.21-5.406 8.412-5.582 11.242-7.32 15.642-3.903 10.557-4.81 13.682-2.451 6.349-3.433 7.163c-1.371 1.138-1.784 7.14-1.784 25.938 0 23.092-.149 24.536-2.667 25.883-2.27 1.215-2.666 2.792-2.666 10.612 0 7.709-.507 9.789-3.157 12.953-1.736 2.073-5.947 8.09-9.357 13.371s-11.178 19.727-17.264 32.101-12.933 28.153-15.216 35.064c-2.284 6.911-5.185 17.666-6.448 23.9-1.301 6.42-2.353 17.978-2.428 26.666-.1 11.838.478 17.31 2.536 24 2.22 7.214 3.952 9.902 10.333 16.035 7.666 7.368 7.666 7.368 1.621 21.712-3.325 7.89-7.577 19.274-9.45 25.299-1.874 6.025-5.726 17.357-8.562 25.182-2.836 7.826-6.113 19.74-7.282 26.476s-4.428 19.534-7.243 28.439-5.546 19.49-6.07 23.524c-.524 4.033-4.293 17.533-8.376 30-7.422 22.666-7.422 22.666-8.196 58-.775 35.333-.775 35.333-136.108 35.346-74.433.013-195.333-.293-268.667-.667m403.623-35.013c.576-35 .576-35 8.007-57.666 4.087-12.467 7.86-25.967 8.383-30 .524-4.034 3.256-14.62 6.071-23.524s6.074-21.703 7.243-28.439 4.445-18.65 7.281-26.476c2.836-7.825 6.69-19.157 8.562-25.182 1.873-6.025 6.117-17.389 9.432-25.253 6.025-14.3 6.025-14.3-1.622-21.713-6.34-6.145-8.104-8.896-10.314-16.08-2.058-6.69-2.636-12.164-2.535-24 .074-8.688 1.126-20.245 2.427-26.667 1.263-6.233 4.165-16.988 6.448-23.899 2.284-6.91 9.13-22.69 15.217-35.064 6.085-12.374 13.775-26.688 17.087-31.809 3.313-5.12 6.024-9.673 6.024-10.116s1.5-2.196 3.333-3.895c2.995-2.776 3.333-4.123 3.333-13.278 0-9.067.294-10.265 2.667-10.886 2.548-.666 2.667-1.818 2.667-25.808 0-19.748.387-25.34 1.811-26.178.996-.587 2.555-3.467 3.463-6.4s3.06-8.933 4.783-13.333c1.722-4.4 5.002-11.439 7.29-15.642 2.287-4.203 4.72-7.988 5.406-8.412s1.247-1.943 1.247-3.377.596-3.647 1.325-4.92c.73-1.274 4.51-9.546 8.403-18.382 3.892-8.835 9.4-20.235 12.242-25.333 2.84-5.097 8.542-12.868 12.67-17.268 5.75-6.13 8.07-9.869 9.927-16 1.333-4.4 4.227-11.6 6.432-16s6.5-11.9 9.544-16.666c3.044-4.767 7.852-13.167 10.683-18.667s7.163-12.851 9.627-16.336 4.48-6.914 4.48-7.62 1.2-1.926 2.667-2.71c1.466-.786 2.658-2.757 2.647-4.38-.01-1.625-.98-5.654-2.155-8.954-1.69-4.75-2.282-13.887-2.839-43.838-.578-31.12-.32-40.117 1.455-50.667 1.187-7.056 2.797-24.228 3.579-38.162.781-13.933 1.988-27.733 2.681-30.666.693-2.934 1.853-15.534 2.577-28 .724-12.467 1.692-27.112 2.152-32.545s2.22-14.5 3.911-20.15 4.084-15.305 5.317-21.455c1.234-6.151 3.118-12.556 4.188-14.233 1.843-2.889 1.557-3.484-5.447-11.333-4.067-4.556-8.363-10.32-9.549-12.807s-2.466-6.842-2.847-9.677c-.425-3.173.164-7.395 1.534-10.981 1.224-3.204 3.403-6.892 4.844-8.196 1.44-1.303 2.618-2.95 2.618-3.66s-2.77-5.173-6.155-9.917c-5.88-8.24-6.182-9.112-6.758-19.503-.52-9.394-.23-11.422 2.136-14.877 1.506-2.2 3.483-5.031 4.392-6.292 1.404-1.946 1-2.967-2.67-6.753-2.377-2.454-4.913-6.518-5.634-9.032-.72-2.514-1.31-7.095-1.31-10.178s1.57-10.588 3.491-16.676c1.92-6.088 5.793-16.411 8.605-22.941s7.068-13.89 9.456-16.354c2.625-2.709 7.166-5.371 11.478-6.73 5.698-1.797 7.65-1.927 9.7-.646 1.412.881 2.875 1.602 3.251 1.602.377 0 .685-3.495.685-7.768s-.874-14.022-1.942-21.666-2.865-24.099-3.992-36.566c-1.128-12.466-2.38-26.866-2.783-32-.402-5.133-1.32-15.033-2.039-22-.719-6.966-1.953-18.066-2.741-24.666-.789-6.6-2.232-13.8-3.206-16-.975-2.2-2.125-8.5-2.557-14s-1.143-18.28-1.582-28.4c-.462-10.655-.155-24.539.73-32.984.84-8.022 2.636-17.142 3.992-20.267s3.888-6.943 5.626-8.483 6.033-4.734 9.543-7.097 9.21-5.234 12.666-6.377c3.457-1.144 6.764-2.51 7.35-3.034.584-.524-3.62-1.314-9.343-1.756-5.998-.462-15.769-2.554-23.064-4.938-6.962-2.275-15.058-5.548-17.991-7.273-2.934-1.726-6.598-4.545-8.143-6.265s-3.496-6.676-4.334-11.015-1.518-16.64-1.512-27.334.616-24.844 1.357-31.444c.74-6.6 2.289-17.612 3.441-24.471 1.153-6.86 3.222-15.746 4.6-19.748 1.376-4.002 3.16-10.9 3.963-15.328s1.913-32.742 2.467-62.92c1.006-54.866 1.006-54.866 4.764-63.196 2.23-4.945 6.066-10.458 9.438-13.566 3.124-2.88 7.992-5.877 10.82-6.662 2.826-.785 9.654-1.43 15.174-1.435 5.519-.004 15.119-.631 21.333-1.394s17.898-2.938 25.965-4.834 15.786-4.03 17.155-4.743c2.137-1.113 2.36-2.262 1.577-8.16-.5-3.775-1.77-7.814-2.821-8.975s-1.932-3.564-1.959-5.34c-.026-1.775-.922-6.828-1.992-11.228s-2.53-17.9-3.245-30-1.468-40.6-1.674-63.333c-.373-41.334-.373-41.334 4.026-53.334 2.42-6.6 5.557-18.34 6.972-26.087 1.414-7.749 4.055-19.207 5.868-25.463s7.32-20.854 12.237-32.44c6.48-15.269 11.036-23.857 16.555-31.205 4.187-5.576 8.976-12.838 10.64-16.138s4.832-8.7 7.039-12 8.045-10.2 12.973-15.333a3565 3565 0 0 0 18.751-19.723c5.385-5.714 12.815-12.454 16.51-14.977 3.697-2.523 10.321-7.391 14.721-10.818s12.275-8.22 17.5-10.652c5.224-2.433 13.924-5.887 19.333-7.676s13.734-4.89 18.5-6.892c8.504-3.57 9.044-3.624 28.667-2.855 11.405.446 23.36 1.683 27.819 2.877 4.3 1.152 9.345 3.295 11.211 4.763s5.18 5.1 7.365 8.07c3.971 5.4 3.971 5.4 9.122.37 2.832-2.765 5.15-6.164 5.15-7.552s-.827-4.116-1.837-6.063c-1.01-1.946-2.48-5.939-3.267-8.872-.787-2.934-3.584-11.334-6.216-18.667-4.785-13.333-4.785-13.333-4.218-45.333.497-28.056.985-33.89 3.96-47.334 1.865-8.433 4.88-20.133 6.699-26 1.819-5.866 6.33-18.702 10.023-28.522 3.805-10.116 9.258-21.676 12.578-26.667 3.224-4.846 9.575-13.424 14.112-19.062s12.65-14.188 18.025-19c5.377-4.812 10.308-8.766 10.958-8.788.65-.021 3.133-1.813 5.516-3.981s4.334-4.25 4.334-4.628c0-.377-270-.685-600-.685-600 0-600 0-600 1235.994s0 1235.993 133 1236.34c73.15.19 193.685.493 267.856.672 134.857.327 134.857.327 135.433-34.673m190.57 34.566c-.81-.976-2.13-5.927-2.936-11.003-.805-5.076-1.793-34.432-2.196-65.235-.514-39.396-.264-59.563.846-68 .868-6.597 2.794-16.789 4.28-22.649 1.485-5.86 4.4-15.46 6.479-21.333s5.26-14.279 7.071-18.679c1.812-4.4 4.29-10.298 5.508-13.107s4.79-8.647 7.938-12.974c3.148-4.326 7.17-8.99 8.937-10.365 1.768-1.374 6.264-3.222 9.992-4.106s8.66-2.752 10.96-4.15 6.056-5.113 8.349-8.254c2.292-3.14 6.558-10.443 9.48-16.228 2.923-5.784 7.63-17.484 10.461-26s7.61-24.48 10.62-35.476 6.045-20.566 6.745-21.266 1.273-2.757 1.273-4.57c0-1.811.862-4.246 1.915-5.41s3.811-7.21 6.13-13.438c2.319-6.227 6.798-18.823 9.954-27.99s6.454-19.366 7.328-22.666c.873-3.3 2.324-6.9 3.223-8 .9-1.1 3.783-6.8 6.407-12.667 2.625-5.866 5.405-13.066 6.179-16 .773-2.933 1.78-9.833 2.238-15.333s.217-15.213-.535-21.584c-.772-6.548-2.556-13.915-4.103-16.947-1.504-2.95-2.736-6.592-2.736-8.095s2.63-7.677 5.843-13.72 7.477-15.365 9.473-20.715c2.277-6.1 4.821-10.507 6.824-11.82 1.803-1.181 3.194-3.399 3.194-5.093 0-1.65 1.061-4.43 2.36-6.18 1.297-1.748 4.747-7.888 7.666-13.642 3.735-7.365 6.705-11.365 10.027-13.507 2.596-1.674 7.763-6.373 11.483-10.443 5.363-5.869 8.18-10.847 13.613-24.061 3.768-9.164 6.85-17.272 6.85-18.018s1.334-2.291 2.964-3.433 4.26-2.075 5.847-2.075c1.585 0 3.84-1.461 5.01-3.247 1.388-2.118 3.642-3.393 6.481-3.667 3.435-.331 4.496-1.131 5.026-3.791.37-1.855 3.467-7.555 6.881-12.667 4.074-6.098 7.348-13.192 9.522-20.628 1.822-6.234 4.607-14.579 6.188-18.545 1.582-3.967 3.463-11.893 4.18-17.615.718-5.721 3.124-16.276 5.347-23.455s4.97-17.852 6.106-23.719c1.136-5.866 3.818-16.691 5.962-24.055 2.144-7.363 4.26-15.763 4.702-18.666s1.886-6.479 3.209-7.945 10.424-18.567 20.225-38c9.8-19.434 20.72-39.234 24.265-44 3.545-4.767 8.165-12.267 10.265-16.667s3.819-8.8 3.82-9.776 2.084-4.318 4.631-7.426 6.243-9.174 8.215-13.48c3.33-7.276 3.711-7.646 5.385-5.24.991 1.424 5.094 7.63 9.119 13.793s7.317 11.727 7.317 12.366c0 .64 1.5 1.733 3.334 2.43 1.833.697 3.333 1.928 3.333 2.736s1.754 3.223 3.897 5.366c2.633 2.633 5.24 3.898 8.033 3.898 3.185 0 4.427.766 5.403 3.333 1.235 3.248 1.61 3.333 14.547 3.333 7.304 0 14.799.578 16.655 1.284 2.206.839 4.778 4.06 7.42 9.295 2.225 4.407 4.045 9.27 4.045 10.806 0 1.537 1.95 4.735 4.333 7.107s8.651 9.397 13.928 15.61c5.277 6.215 11.427 13.829 13.667 16.92s4.072 6.273 4.072 7.07c0 .795 1.65 3.121 3.667 5.168 2.016 2.046 4.782 6.05 6.147 8.897 1.363 2.847 3.022 6.077 3.685 7.177s3.947 7.7 7.298 14.666 7.039 15.067 8.195 18c1.156 2.934 4.388 9.234 7.183 14 2.794 4.767 8.707 13.112 13.14 18.545s10.9 15.333 14.372 22c3.808 7.313 8.958 14.77 12.98 18.795 4.128 4.133 10.601 8.574 17.001 11.666 7.658 3.699 13.703 5.482 23.334 6.884 7.149 1.04 16.737 2.298 21.306 2.796 8.056.876 8.537 1.151 15.849 9.048 4.147 4.48 8.429 10.272 9.515 12.872s3.796 7.264 6.023 10.364c4.047 5.637 4.047 5.637 3.188 20-.472 7.9-1.837 24.264-3.033 36.364-1.383 14.005-2.841 22.765-4.011 24.105-1.012 1.157-1.839 2.822-1.839 3.7 0 .876-1.5 2.164-3.333 2.861s-3.334 1.814-3.334 2.482-2.336 4.733-5.19 9.033-6.242 10.819-7.526 14.485c-1.625 4.64-2.335 10.72-2.334 20 0 10.039.922 17.123 3.725 28.667 2.152 8.865 4.19 22.083 4.83 31.333.61 8.8 1.67 25.6 2.358 37.334.688 11.733 1.632 24.273 2.1 27.866.467 3.593 1.997 11.393 3.4 17.333s3.805 18.6 5.339 28.134 3.336 25.433 4.006 35.333 2.096 20.818 3.17 24.262 2.663 7.643 3.533 9.333 3.159 4.771 5.086 6.848 5.453 4.596 7.837 5.599c4.333 1.822 4.333 1.822 4.346 14.224.013 6.82.623 41.34 1.368 76.711 1.172 55.65 1.086 65.467-.636 72.895-1.095 4.721-4.654 14.51-7.91 21.752-3.254 7.243-7.454 18.24-9.333 24.439-1.878 6.199-4.415 16.67-5.636 23.27-1.413 7.633-2.521 23.163-3.044 42.667C1490 2606 1490 2606 1162.499 2606.336c-271.192.278-327.754.031-328.973-1.437m656.21-30.566c.462-20.08 1.47-34.992 2.864-42.333 1.182-6.233 3.688-16.405 5.567-22.604s6.077-17.19 9.328-24.422c3.251-7.234 6.79-16.862 7.864-21.396 1.687-7.124 1.754-18.575.488-84.245-.91-47.244-1.977-76.63-2.819-77.666-.745-.917-2.06-1.667-2.92-1.667-.862 0-3.718-2.25-6.346-5-2.63-2.75-5.49-6.382-6.356-8.072-.868-1.69-2.455-5.89-3.529-9.333s-2.5-14.362-3.17-24.262-2.472-25.8-4.005-35.333c-1.534-9.533-4-22.433-5.482-28.667-1.481-6.233-3.242-17.333-3.912-24.666s-1.238-19.148-1.263-26.255c-.025-7.124-.643-13.29-1.378-13.745-.746-.461-1.334-6.735-1.334-14.241 0-10.272-.978-17.677-4.173-31.588-3.168-13.799-4.177-21.38-4.192-31.505-.013-9.318.683-15.34 2.315-20 1.285-3.666 4.671-10.185 7.526-14.485s5.191-8.665 5.191-9.7c0-1.034 1.5-2.45 3.333-3.148 1.834-.697 3.334-2.152 3.334-3.234s.82-2.447 1.821-3.033c1.267-.742 2.489-7.763 4.012-23.066 1.205-12.1 2.577-28.464 3.05-36.364.859-14.363.859-14.363-3.189-20-2.226-3.1-4.925-7.736-5.997-10.303s-5.05-8.058-8.84-12.204c-6.62-7.244-7.214-7.573-15.207-8.443-4.574-.498-14.166-1.756-21.315-2.797-9.617-1.4-15.688-3.188-23.334-6.876-6.781-3.271-12.856-7.511-17.668-12.332-4.672-4.682-9.603-11.703-13.587-19.348-3.44-6.6-10.34-17.15-15.334-23.446s-10.846-14.396-13.007-18c-2.16-3.605-4.944-9.254-6.188-12.554s-4.663-11.124-7.598-17.387c-2.936-6.263-6.302-12.186-7.479-13.163s-2.14-2.915-2.14-4.306-1.492-4.893-3.314-7.78-4.523-5.896-6-6.687c-1.478-.79-2.686-2.642-2.686-4.114s-2.327-5.801-5.17-9.62-9.436-11.743-14.649-17.61-9.486-11.131-9.496-11.7c-.011-.567-1.519-1.603-3.352-2.3-2.551-.97-3.333-2.222-3.333-5.338 0-2.24-1.809-7.654-4.02-12.033-2.21-4.38-4.16-8.046-4.333-8.148s-7.814-.552-16.98-1c-15.985-.78-16.685-.937-17.093-3.814-.362-2.543-1.243-3-5.792-3-4.244 0-5.511-.557-6.063-2.667-.383-1.466-1.583-2.666-2.666-2.666-1.084 0-2.296-1.246-2.694-2.77-.398-1.522-2.142-3.307-3.875-3.966s-3.151-2.021-3.151-3.027-3.3-6.76-7.333-12.785-7.334-11.518-7.334-12.204c0-.687-.509-1.248-1.13-1.248-.623 0-2.273 2.534-3.667 5.631-1.395 3.098-4.786 8.48-7.536 11.961s-5 7.097-5.001 8.035c0 .938-1.72 5.306-3.82 9.706s-6.72 11.9-10.265 16.667c-3.545 4.766-14.464 24.566-24.265 44-9.8 19.433-18.902 36.533-20.225 38-1.322 1.466-2.767 5.042-3.209 7.945s-2.558 11.303-4.702 18.666c-2.143 7.364-4.826 18.189-5.962 24.055-1.135 5.867-3.883 16.54-6.106 23.72-2.223 7.178-4.629 17.733-5.346 23.454-.718 5.722-2.599 13.648-4.18 17.615-1.582 3.966-4.344 12.226-6.138 18.355s-4.729 13.467-6.522 16.307c-1.792 2.84-3.259 5.67-3.259 6.29s-1.468 2.507-3.261 4.192-3.444 4.94-3.667 7.232c-.367 3.78-.879 4.208-5.47 4.586-3.939.325-5.34 1.14-6.3 3.667-.897 2.357-2.252 3.255-4.936 3.27-2.035.012-4.477.513-5.428 1.116s-4.937 9.005-8.86 18.671-8.629 19.514-10.457 21.883c-1.829 2.37-5.642 6.73-8.473 9.69s-6.648 6.054-8.481 6.875c-2.18.976-5.17 5.11-8.64 11.951-2.92 5.753-6.37 11.89-7.667 13.64-1.298 1.748-2.36 4.913-2.36 7.033 0 2.834-.841 4.172-3.182 5.062-2.354.896-4.13 3.75-6.824 10.968-2.003 5.366-6.27 14.7-9.484 20.744-3.214 6.043-5.843 12.217-5.843 13.72s1.23 5.146 2.736 8.095c1.546 3.032 3.33 10.399 4.103 16.947.752 6.371.992 16.084.534 21.584s-1.465 12.4-2.238 15.333c-.773 2.934-3.553 10.134-6.178 16-2.625 5.867-5.508 11.567-6.408 12.667-.899 1.1-2.35 4.7-3.223 8-.874 3.3-4.171 13.5-7.327 22.667-3.156 9.166-7.636 21.762-9.955 27.99s-5.077 12.274-6.13 13.437-1.914 3.448-1.914 5.077-.846 4.596-1.88 6.595-4.062 11.718-6.73 21.6c-2.67 9.882-7.218 25.06-10.107 33.727-2.89 8.668-7.973 21.025-11.296 27.46-3.324 6.434-8.19 14.208-10.816 17.274-2.625 3.067-6.421 6.429-8.437 7.471-2.016 1.043-6.526 2.616-10.022 3.496-4.05 1.02-8.154 3.344-11.306 6.404-2.722 2.64-6.497 6.94-8.39 9.553-1.891 2.614-4.462 7.114-5.712 10s-3.756 8.849-5.567 13.249-4.994 12.806-7.072 18.68c-2.078 5.873-4.994 15.473-6.48 21.332-1.485 5.86-3.41 16.052-4.278 22.649-1.11 8.437-1.361 28.603-.846 68 .402 30.803 1.386 60.125 2.185 65.16s1.781 9.684 2.182 10.333c.42.678 139.631 1.18 327.829 1.18 327.1 0 327.1 0 327.812-31" style="fill:#6d778a;stroke-width:1.33333" transform="translate(22.347 -6.385)"/><path d="M239.667 2604.334c-133-.347-133-.347-133-1236.34s0-1235.994 600-1235.994c330 0 600 .45 600 1s-269.7.848-599.334.662C108 133.325 108 133.325 108 1367.775s0 1234.45 198.221 1235.337c109.022.489 228.956.888 266.522.888 68.3 0 68.3 0 68.88-34.333.58-34.334.58-34.334 8.009-57 4.086-12.467 7.857-25.967 8.38-30 .525-4.034 3.257-14.62 6.072-23.524s6.074-21.703 7.243-28.439 4.445-18.65 7.281-26.476c2.836-7.825 6.689-19.157 8.562-25.182s6.15-17.425 9.503-25.333c6.096-14.38 6.096-14.38 2.407-17.046-2.029-1.467-5.307-4.332-7.284-6.367-2.03-2.089-4.945-7.895-6.695-13.333-2.557-7.943-3.078-12.324-2.97-24.967.074-8.688 1.126-20.245 2.427-26.667 1.263-6.233 4.165-16.987 6.448-23.899 2.283-6.91 9.188-22.81 15.345-35.333 6.156-12.522 14.2-27.673 17.874-33.67 3.675-5.996 7.828-11.939 9.228-13.206 2.066-1.87 2.547-4.152 2.547-12.087 0-8.338.394-10.028 2.667-11.447 2.507-1.566 2.666-3.11 2.666-25.848 0-19.49.375-24.494 1.932-25.786 1.063-.882 2.62-3.806 3.463-6.497.842-2.691 3.05-8.793 4.906-13.56s5.698-12.77 8.537-17.786 5.162-9.532 5.162-10.037 3.586-8.903 7.969-18.663 10.533-22.609 13.667-28.552 9.06-14.44 13.168-18.884c5.24-5.666 8.182-10.268 9.854-15.411 1.31-4.034 4.34-11.254 6.734-16.046s7.614-14.092 11.6-20.667 9.443-16.154 12.128-21.287c2.685-5.134 7.282-12.496 10.215-16.36 2.932-3.866 5.323-7.766 5.313-8.667-.011-.902-.98-4.34-2.155-7.64-1.69-4.75-2.282-13.887-2.84-43.839-.578-31.119-.32-40.116 1.455-50.666 1.187-7.056 2.798-24.228 3.58-38.162.78-13.933 1.988-27.733 2.682-30.666.695-2.934 1.863-15.834 2.596-28.667s1.675-27.233 2.09-32c.417-4.767 2.213-13.767 3.991-20 1.78-6.233 4.154-15.833 5.277-21.333s2.688-11.602 3.477-13.56c1.31-3.254.799-4.33-5.954-12.517-4.063-4.926-8.316-11.68-9.45-15.01-1.135-3.33-2.05-7.898-2.034-10.15.016-2.254 1.249-6.786 2.74-10.073 1.49-3.287 3.63-6.992 4.755-8.235 1.86-2.056 1.544-2.92-3.539-9.653-3.07-4.067-6.109-9.661-6.752-12.432-.643-2.77-1.184-8.21-1.202-12.09-.02-4.46.942-8.962 2.616-12.243 1.456-2.854 3.277-5.578 4.045-6.053.849-.525-.162-2.64-2.575-5.388-2.184-2.488-4.601-6.79-5.37-9.56s-1.402-7.66-1.407-10.868c-.004-3.207 2.107-12.148 4.69-19.869 2.584-7.72 6.99-18.93 9.792-24.908s6.757-12.178 8.791-13.778 6.965-3.938 10.958-5.197c5.83-1.838 7.769-1.97 9.844-.675 2.436 1.522 2.585 1.205 2.585-5.498 0-3.912-.874-13.367-1.942-21.011-1.068-7.645-2.865-24.099-3.993-36.566-1.128-12.466-2.38-26.866-2.782-32-.402-5.133-1.32-15.033-2.04-22-.718-6.966-1.952-18.066-2.74-24.666-.79-6.6-2.232-13.8-3.206-16-.975-2.2-2.125-8.5-2.557-14s-1.144-18.28-1.582-28.4c-.464-10.7-.155-24.541.739-33.075 1.023-9.77 2.588-17.055 4.683-21.792 2.566-5.802 4.698-8.168 11.548-12.82 4.62-3.138 11.062-6.715 14.315-7.95 5.914-2.245 5.914-2.245-2.39-3.185-4.568-.517-13.74-2.715-20.381-4.886-6.642-2.17-14.915-5.49-18.384-7.379s-7.473-5.026-8.898-6.973-3.296-7.09-4.157-11.43c-.862-4.338-1.562-16.638-1.556-27.333s.617-24.844 1.357-31.444 2.29-17.612 3.442-24.471 3.222-15.746 4.599-19.748 3.16-10.9 3.963-15.328 1.907-32.764 2.452-62.967c.991-54.916.991-54.916 5.334-64.2 2.39-5.108 5.656-10.694 7.26-12.416 1.603-1.721 5.316-4.367 8.249-5.88 4.25-2.191 9.167-2.96 24.193-3.786 10.373-.57 22.673-1.712 27.333-2.538 4.66-.827 12.074-2.4 16.474-3.498a1572 1572 0 0 0 13.16-3.343c5.159-1.347 5.159-1.347 4.243-8.246-.503-3.795-1.775-7.85-2.826-9.011-1.05-1.161-1.932-3.564-1.958-5.34s-.922-6.828-1.992-11.228-2.53-17.9-3.245-30-1.468-40.6-1.674-63.333c-.374-41.334-.374-41.334 4.026-53.334 2.42-6.6 5.556-18.34 6.971-26.087 1.415-7.749 4.056-19.207 5.869-25.463s7.331-20.883 12.264-32.505 11.565-24.764 14.738-29.205 7.417-10.601 9.43-13.691 5.76-9.39 8.327-14 8.267-12.052 12.667-16.538 12.618-13.257 18.263-19.49c5.644-6.234 13.444-13.503 17.333-16.154s10.67-7.624 15.07-11.052 12.808-8.499 18.683-11.271 15.175-6.525 20.666-8.338c5.492-1.814 13.585-4.838 17.985-6.72 6.901-2.952 9.923-3.421 22-3.413 7.7.005 18.5.593 24 1.306s12.812 2.23 16.25 3.372c3.83 1.271 8.022 4.037 10.826 7.14 2.517 2.786 4.877 5.9 5.246 6.92.486 1.346 2 .594 5.508-2.739 2.66-2.527 4.837-5.435 4.837-6.46 0-1.027-.827-3.46-1.837-5.406s-2.48-5.939-3.268-8.872c-.786-2.934-3.583-11.334-6.215-18.667-4.786-13.333-4.786-13.333-4.219-45.333.498-28.056.986-33.89 3.96-47.334 1.866-8.433 4.88-20.133 6.7-26 1.818-5.866 6.255-18.466 9.857-28 3.603-9.533 7.495-19.134 8.65-21.335 1.154-2.202 5.54-8.8 9.746-14.662 4.206-5.863 10.418-13.904 13.803-17.869s11.692-11.616 18.458-17.004 12.72-9.796 13.232-9.796-.478 1.5-2.2 3.333-3.71 3.333-4.416 3.333-5.682 3.937-11.059 8.75c-5.376 4.811-13.487 13.361-18.025 19-4.537 5.637-10.888 14.215-14.112 19.06-3.32 4.992-8.773 16.552-12.578 26.668-3.694 9.82-8.204 22.656-10.023 28.522-1.82 5.867-4.834 17.567-6.7 26-2.974 13.444-3.462 19.278-3.96 47.334-.566 32-.566 32 4.22 45.333 2.631 7.333 5.428 15.733 6.215 18.667.786 2.933 2.257 6.926 3.267 8.872 1.01 1.947 1.837 4.675 1.837 6.063s-2.318 4.787-5.15 7.553c-5.15 5.029-5.15 5.029-9.122-.371-2.185-2.97-5.499-6.602-7.365-8.07s-6.911-3.611-11.211-4.763c-4.458-1.194-16.415-2.43-27.819-2.877-19.623-.769-20.163-.715-28.666 2.855-4.767 2.001-13.093 5.103-18.502 6.892s-14.109 5.243-19.333 7.676-13.099 7.226-17.499 10.652c-4.4 3.427-11.024 8.295-14.72 10.818s-11.126 9.263-16.511 14.977a3565 3565 0 0 1-18.75 19.723c-4.929 5.133-10.767 12.033-12.974 15.333s-5.375 8.7-7.04 12c-1.663 3.3-6.452 10.562-10.64 16.138-5.518 7.348-10.074 15.936-16.554 31.205-4.918 11.586-10.424 26.184-12.237 32.44s-4.454 17.714-5.868 25.463c-1.415 7.748-4.552 19.487-6.972 26.087-4.4 12-4.4 12-4.026 53.334.206 22.733.96 51.233 1.674 63.333.716 12.1 2.176 25.6 3.245 30 1.07 4.4 1.966 9.453 1.992 11.228s.908 4.179 1.959 5.34c1.05 1.161 2.32 5.2 2.82 8.975.783 5.898.561 7.047-1.576 8.16-1.369.713-9.088 2.848-17.155 4.743s-19.75 4.071-25.965 4.834-15.814 1.39-21.333 1.394c-5.52.004-12.348.65-15.175 1.435s-7.695 3.783-10.82 6.662c-3.37 3.108-7.207 8.621-9.437 13.566-3.758 8.33-3.758 8.33-4.764 63.197-.554 30.177-1.664 58.49-2.467 62.92-.803 4.428-2.587 11.325-3.964 15.327s-3.446 12.888-4.599 19.748c-1.152 6.859-2.7 17.871-3.441 24.471s-1.351 20.75-1.357 31.444c-.007 10.695.674 22.995 1.512 27.334s2.788 9.296 4.334 11.016 5.21 4.538 8.143 6.264 11.029 4.998 17.99 7.273c7.296 2.384 17.067 4.476 23.065 4.938 5.723.442 9.927 1.232 9.342 1.756-.585.525-3.892 1.89-7.349 3.034-3.456 1.144-9.156 4.013-12.666 6.377s-7.805 5.557-9.543 7.097-4.27 5.358-5.626 8.483-3.153 12.245-3.993 20.267c-.884 8.445-1.19 22.329-.729 32.984.439 10.12 1.15 22.9 1.582 28.4s1.582 11.8 2.557 14 2.417 9.4 3.206 16c.788 6.6 2.022 17.7 2.741 24.666s1.637 16.867 2.04 22c.402 5.134 1.654 19.534 2.782 32 1.127 12.467 2.924 28.921 3.992 36.566 1.068 7.644 1.942 17.394 1.942 21.667 0 4.272-.308 7.767-.685 7.767-.376 0-1.84-.72-3.25-1.602-2.05-1.28-4.003-1.15-9.701.646-4.312 1.359-8.853 4.021-11.478 6.73-2.388 2.464-6.644 9.823-9.456 16.354s-6.685 16.853-8.605 22.941-3.492 13.592-3.492 16.676.59 7.664 1.311 10.178 3.257 6.578 5.635 9.032c3.67 3.786 4.073 4.807 2.67 6.753a405 405 0 0 0-4.393 6.292c-2.366 3.455-2.657 5.483-2.136 14.877.576 10.39.878 11.263 6.758 19.503 3.385 4.744 6.155 9.207 6.155 9.916 0 .71-1.178 2.358-2.618 3.661-1.44 1.304-3.62 4.992-4.844 8.196-1.37 3.586-1.96 7.808-1.534 10.98.38 2.836 1.662 7.191 2.847 9.678s5.482 8.25 9.549 12.807c7.004 7.85 7.29 8.445 5.447 11.333-1.07 1.677-2.954 8.082-4.188 14.233s-3.626 15.805-5.317 21.455-3.45 14.717-3.91 20.15-1.43 20.078-2.153 32.545c-.724 12.466-1.884 25.066-2.577 28-.693 2.933-1.9 16.733-2.681 30.666s-2.392 31.106-3.58 38.162c-1.774 10.55-2.032 19.547-1.454 50.667.557 29.95 1.149 39.089 2.839 43.838 1.175 3.3 2.144 7.329 2.155 8.953s-1.18 3.595-2.647 4.38-2.667 2.005-2.667 2.71c0 .707-2.016 4.136-4.48 7.62-2.464 3.486-6.796 10.837-9.627 16.337s-7.639 13.9-10.683 18.667c-3.045 4.766-7.34 12.266-9.544 16.666s-5.1 11.6-6.432 16c-1.857 6.131-4.177 9.87-9.928 16-4.127 4.4-9.828 12.17-12.67 17.268-2.84 5.098-8.35 16.498-12.241 25.334s-7.673 17.107-8.403 18.38c-.729 1.274-1.325 3.488-1.325 4.922s-.561 2.952-1.247 3.376-3.119 4.21-5.406 8.412c-2.288 4.203-5.568 11.242-7.29 15.642s-3.875 10.4-4.783 13.333-2.467 5.813-3.463 6.4c-1.424.838-1.811 6.43-1.811 26.178 0 23.99-.12 25.142-2.667 25.808-2.373.62-2.667 1.82-2.667 10.886 0 9.155-.338 10.502-3.333 13.278-1.833 1.699-3.333 3.452-3.333 3.895s-2.71 4.995-6.024 10.116c-3.312 5.121-11.002 19.435-17.087 31.81-6.086 12.374-12.933 28.152-15.217 35.063-2.283 6.912-5.185 17.666-6.448 23.9-1.3 6.42-2.353 17.978-2.427 26.666-.1 11.836.477 17.31 2.535 24 2.21 7.184 3.974 9.935 10.314 16.08 7.647 7.414 7.647 7.414 1.622 21.713-3.315 7.864-7.559 19.228-9.432 25.253s-5.726 17.357-8.562 25.182c-2.836 7.826-6.112 19.74-7.28 26.476-1.17 6.736-4.429 19.534-7.244 28.439s-5.547 19.49-6.07 23.524c-.525 4.033-4.297 17.533-8.384 30-7.431 22.666-7.431 22.666-8.007 57.666s-.576 35-135.433 34.674c-74.17-.18-194.706-.483-267.856-.673m594.428-.18c-.4-.649-1.383-5.299-2.182-10.334-.8-5.034-1.783-34.356-2.185-65.16-.515-39.395-.264-59.562.846-68 .868-6.596 2.793-16.788 4.279-22.648s4.401-15.46 6.479-21.333 5.26-14.279 7.072-18.679c1.811-4.4 4.316-10.362 5.567-13.249 1.25-2.886 3.82-7.386 5.713-10 1.892-2.613 5.667-6.912 8.389-9.553 3.152-3.06 7.255-5.384 11.306-6.404 3.496-.88 8.006-2.453 10.022-3.496 2.016-1.042 5.812-4.404 8.437-7.47 2.625-3.067 7.492-10.841 10.816-17.276 3.323-6.434 8.406-18.79 11.296-27.459 2.889-8.668 7.437-23.845 10.106-33.727 2.67-9.882 5.698-19.602 6.732-21.6s1.879-4.966 1.879-6.595.861-3.913 1.914-5.077c1.053-1.163 3.812-7.21 6.13-13.438 2.32-6.227 6.799-18.823 9.955-27.99s6.453-19.366 7.327-22.666 2.324-6.9 3.223-8c.9-1.1 3.783-6.8 6.408-12.667 2.625-5.866 5.405-13.066 6.178-16s1.78-9.833 2.238-15.333.218-15.213-.534-21.584c-.773-6.548-2.557-13.915-4.103-16.947-1.505-2.95-2.736-6.592-2.736-8.095s2.629-7.677 5.843-13.72 7.481-15.378 9.484-20.744c2.694-7.219 4.47-10.072 6.824-10.967 2.34-.89 3.182-2.23 3.182-5.063 0-2.12 1.062-5.285 2.36-7.033 1.297-1.75 4.747-7.887 7.666-13.64 3.471-6.84 6.46-10.975 8.64-11.951 1.834-.821 5.65-3.914 8.482-6.874s6.644-7.32 8.473-9.69c1.828-2.37 6.534-12.218 10.457-21.884s7.91-18.068 8.86-18.67c.951-.604 3.393-1.106 5.428-1.118 2.684-.015 4.04-.912 4.935-3.269.96-2.526 2.362-3.342 6.3-3.667 4.592-.378 5.104-.807 5.471-4.586.223-2.293 1.873-5.547 3.667-7.232s3.261-3.571 3.261-4.192c0-.62 1.467-3.45 3.26-6.29s4.727-10.178 6.52-16.307c1.795-6.13 4.557-14.389 6.139-18.355s3.462-11.893 4.18-17.615 3.123-16.276 5.346-23.455 4.97-17.852 6.106-23.719c1.136-5.866 3.819-16.691 5.962-24.055 2.144-7.363 4.26-15.763 4.702-18.666s1.887-6.479 3.21-7.945 10.423-18.567 20.224-38c9.8-19.434 20.72-39.234 24.266-44 3.545-4.767 8.164-12.267 10.264-16.667s3.82-8.768 3.82-9.706 2.251-4.554 5.001-8.035 6.141-8.863 7.536-11.96 3.044-5.632 3.666-5.632 1.131.561 1.131 1.248 3.3 6.178 7.334 12.204 7.333 11.779 7.333 12.785 1.418 2.368 3.151 3.027 3.477 2.444 3.875 3.967 1.61 2.769 2.694 2.769 2.283 1.2 2.666 2.666c.552 2.11 1.819 2.667 6.063 2.667 4.55 0 5.43.457 5.792 3 .408 2.877 1.108 3.033 17.092 3.814 9.167.448 16.808.898 16.981 1 .173.103 2.123 3.769 4.333 8.148 2.211 4.38 4.02 9.794 4.02 12.033 0 3.116.782 4.369 3.333 5.338 1.833.697 3.342 1.733 3.352 2.3.01.569 4.283 5.834 9.496 11.7 5.213 5.867 11.805 13.791 14.648 17.61s5.17 8.148 5.17 9.62 1.21 3.323 2.687 4.114 4.177 3.8 6 6.687c1.822 2.887 3.314 6.388 3.314 7.78 0 1.391.963 3.329 2.14 4.306s4.543 6.9 7.479 13.163 6.355 14.087 7.598 17.387c1.244 3.3 4.028 8.95 6.188 12.554s8.014 11.704 13.007 18 11.894 16.846 15.334 23.446c3.984 7.645 8.915 14.666 13.587 19.348 4.812 4.82 10.887 9.06 17.668 12.332 7.646 3.688 13.717 5.477 23.334 6.876 7.149 1.04 16.74 2.3 21.315 2.797 7.993.87 8.587 1.2 15.207 8.443 3.79 4.146 7.767 9.637 8.84 12.204s3.771 7.203 5.997 10.303c4.048 5.637 4.048 5.637 3.189 20-.473 7.9-1.845 24.264-3.05 36.364-1.523 15.303-2.745 22.324-4.012 23.066-1.002.586-1.821 1.951-1.821 3.033s-1.5 2.537-3.334 3.234c-1.833.697-3.333 2.114-3.333 3.148s-2.336 5.4-5.19 9.7c-2.856 4.3-6.242 10.819-7.527 14.485-1.632 4.66-2.329 10.682-2.315 20 .015 10.125 1.024 17.706 4.192 31.505 3.195 13.911 4.173 21.316 4.173 31.588 0 7.506.588 13.78 1.334 14.24.735.455 1.353 6.622 1.378 13.746.025 7.107.593 18.921 1.263 26.255s2.43 18.433 3.912 24.666 3.948 19.134 5.482 28.667c1.533 9.533 3.336 25.433 4.006 35.333s2.096 20.818 3.17 24.262 2.66 7.643 3.528 9.333 3.727 5.322 6.356 8.072 5.484 5 6.345 5c.862 0 2.176.75 2.921 1.667.843 1.036 1.91 30.422 2.82 77.666 1.265 65.67 1.198 77.121-.49 84.245-1.073 4.534-4.612 14.162-7.863 21.396-3.25 7.233-7.448 18.223-9.328 24.422s-4.384 16.37-5.567 22.604c-1.394 7.341-2.402 22.253-2.864 42.333-.713 31-.713 31-327.812 31-188.198 0-327.41-.5-327.829-1.18m654.309-30.487c.458-19.384 1.493-34.425 2.865-41.667 1.182-6.233 3.686-16.405 5.565-22.604s6.08-17.196 9.335-24.439 6.814-17.03 7.91-21.752c1.722-7.428 1.807-17.246.635-72.895-.744-35.37-1.36-69.575-1.367-76.01-.013-11.532-.065-11.72-3.68-13.088-2.017-.764-5.075-2.7-6.797-4.3-1.721-1.602-4.324-5.24-5.783-8.087s-3.518-7.947-4.574-11.334-2.469-14.258-3.138-24.158c-.67-9.9-2.473-25.8-4.007-35.333s-4-22.433-5.481-28.667c-1.482-6.233-3.242-17.333-3.912-24.666s-1.239-19.148-1.263-26.255c-.025-7.124-.644-13.29-1.379-13.745-.746-.461-1.333-6.735-1.333-14.241 0-10.272-.978-17.677-4.173-31.588-3.156-13.742-4.181-21.421-4.208-31.505-.027-10.11.618-15.135 2.666-20.792 1.485-4.102 4.765-10.702 7.289-14.666s5.005-8.315 5.514-9.668 2.122-2.773 3.585-3.156c1.463-.382 2.66-1.328 2.66-2.101 0-.774.84-2.354 1.867-3.512 1.19-1.341 2.629-9.598 3.968-22.771 1.156-11.367 2.489-27.267 2.962-35.334.86-14.666.86-14.666-3.969-21.8-2.655-3.924-4.828-7.887-4.828-8.807s-3.615-5.62-8.034-10.441c-7.691-8.394-8.36-8.806-15.667-9.649-4.197-.484-13.502-1.73-20.676-2.766-10.15-1.468-15.621-3.135-24.666-7.517-7.16-3.468-13.928-7.946-17.623-11.66-3.314-3.33-8.827-11.455-12.313-18.15-3.472-6.666-9.959-16.565-14.415-21.998s-10.213-13.623-12.795-18.2-5.245-8.662-5.919-9.078c-.674-.417-1.225-1.639-1.225-2.716s-3.06-8.691-6.801-16.921-7.94-16.202-9.334-17.716c-1.392-1.514-2.532-3.532-2.532-4.485s-1.313-4.07-2.919-6.926c-1.605-2.856-4.305-6.102-6-7.212-1.694-1.11-3.08-2.947-3.08-4.081s-1.757-4.57-3.904-7.636c-2.146-3.066-8.197-10.374-13.446-16.24-5.25-5.867-10.133-11.892-10.851-13.389s-2.618-3.296-4.22-4c-2.058-.903-3.134-2.844-3.666-6.612-.414-2.933-2.137-8.033-3.83-11.333s-3.353-6.3-3.689-6.667c-.336-.366-7.912-.966-16.836-1.333-15.235-.626-16.306-.85-17.542-3.667-.93-2.12-2.451-3-5.191-3-2.568 0-5.38-1.461-8.336-4.333-2.454-2.383-4.468-5.013-4.476-5.844-.01-.832-1.21-1.825-2.674-2.207-1.463-.383-3.08-1.803-3.592-3.156-.513-1.353-3.816-6.887-7.34-12.297s-6.408-10.361-6.408-11c0-.64-.48-1.163-1.067-1.163-.588 0-2.447 2.84-4.133 6.31s-4.726 8.42-6.755 11-4.147 6.19-4.707 8.024-2.676 6.633-4.701 10.666-6.559 11.234-10.075 16c-3.516 4.767-14.423 24.567-24.239 44-9.816 19.434-18.621 36.234-19.568 37.334s-2.107 4.1-2.578 6.666-2.594 10.667-4.718 18-4.59 17.834-5.48 23.334-2.42 11.828-3.399 14.062-3.31 9.95-5.18 17.146-3.412 15.268-3.428 17.938c-.015 2.67-1.553 9.054-3.417 14.187s-4.905 14.418-6.757 20.632c-1.853 6.214-4.928 14.014-6.835 17.333-1.906 3.32-4.853 7.731-6.548 9.804s-3.081 5.103-3.081 6.733-.72 3.685-1.6 4.565-3.438 1.6-5.684 1.6c-2.952 0-4.449.829-5.4 2.992-.724 1.646-2.516 3.169-3.983 3.385s-3.95.665-5.52.996c-1.64.347-3.202 1.998-3.676 3.887-.453 1.806-3.898 10.561-7.654 19.456-5.496 13.012-8.257 17.714-14.128 24.055-4.013 4.335-8.872 8.637-10.798 9.56-2.129 1.02-5.475 5.286-8.53 10.876-2.765 5.058-5.027 9.913-5.027 10.788s-1.167 2.647-2.593 3.938c-1.426 1.29-2.776 4.233-3 6.54-.275 2.834-1.381 4.62-3.412 5.512-2.1.921-4.23 4.532-7.075 12-2.238 5.875-6.436 15.078-9.328 20.45-2.893 5.373-5.259 10.947-5.259 12.387s1.231 5.03 2.736 7.98c1.55 3.038 3.326 10.386 4.098 16.947.749 6.371.968 16.384.487 22.25-.48 5.867-2.042 14.148-3.468 18.403s-5.209 13.255-8.404 20-8.065 19.164-10.821 27.598-7.664 22.533-10.905 31.333-6.755 17.329-7.808 18.953-1.915 4.195-1.915 5.714c0 1.518-.854 4.089-1.898 5.713s-4.073 11.053-6.732 20.953-7.155 24.963-9.991 33.474c-2.837 8.51-7.85 20.81-11.14 27.333s-7.832 14.394-10.093 17.49c-2.26 3.097-6.372 6.785-9.136 8.195s-7.7 3.284-10.97 4.164-7.413 2.755-9.206 4.166c-1.793 1.41-5.727 6.003-8.743 10.205s-6.299 9.44-7.297 11.64c-.999 2.2-3.286 7.6-5.083 12s-4.968 12.806-7.046 18.68c-2.078 5.873-4.988 15.473-6.467 21.332-1.48 5.86-3.329 15.348-4.11 21.085-.782 5.736-1.412 30.336-1.4 54.666.011 24.33.621 53.076 1.356 63.879s1.911 21.153 2.613 23c1.277 3.358 1.277 3.358 327.153 3.358s325.876 0 326.594-30.333" style="fill:#394660;stroke-width:1.33333" transform="translate(22.347 -6.385)"/><path d="M240.333 2603C108 2602.654 108 2602.654 108 1367.994s0-1234.66 598.196-1234.66 598.195 0 585 10.451c-7.258 5.748-15.966 13.7-19.352 17.671-3.385 3.971-9.597 12.017-13.803 17.88s-8.592 12.46-9.746 14.662c-1.155 2.2-5.047 11.802-8.65 21.335-3.602 9.534-8.038 22.134-9.857 28-1.82 5.867-4.834 17.567-6.7 26-2.974 13.444-3.462 19.278-3.96 47.334-.567 32-.567 32 4.219 45.333 2.632 7.333 5.429 15.733 6.216 18.667.786 2.933 2.256 6.926 3.267 8.872 1.01 1.947 1.837 4.379 1.837 5.405s-2.177 3.934-4.837 6.461c-3.508 3.333-5.022 4.085-5.508 2.74-.368-1.021-2.73-4.135-5.246-6.921-2.804-3.103-6.997-5.869-10.826-7.14-3.437-1.141-10.75-2.659-16.25-3.372s-16.3-1.3-24-1.306c-12.077-.008-15.099.46-22 3.413-4.4 1.882-12.493 4.906-17.984 6.72-5.492 1.813-14.792 5.565-20.667 8.338s-14.282 7.844-18.682 11.271-11.182 8.4-15.071 11.052c-3.889 2.65-11.689 9.92-17.333 16.154-5.645 6.233-13.863 15.004-18.263 19.49s-10.1 11.928-12.667 16.538c-2.566 4.61-6.313 10.91-8.326 14s-6.257 9.251-9.43 13.691-9.807 17.583-14.74 29.205-10.45 26.25-12.263 32.505-4.454 17.714-5.869 25.463c-1.415 7.748-4.552 19.487-6.971 26.087-4.4 12-4.4 12-4.026 53.334.206 22.733.959 51.233 1.674 63.333s2.176 25.6 3.245 30c1.07 4.4 1.966 9.453 1.992 11.228s.907 4.179 1.958 5.34 2.323 5.216 2.826 9.01c.916 6.9.916 6.9-4.244 8.247-2.837.74-8.759 2.245-13.159 3.343s-11.813 2.671-16.474 3.498c-4.66.826-16.96 1.968-27.333 2.538-15.026.825-19.944 1.595-24.193 3.786-2.933 1.513-6.646 4.159-8.25 5.88-1.603 1.722-4.87 7.308-7.259 12.415-4.343 9.285-4.343 9.285-5.334 64.2-.545 30.204-1.649 58.54-2.452 62.968s-2.586 11.326-3.963 15.328-3.446 12.888-4.599 19.748c-1.152 6.859-2.701 17.871-3.442 24.471-.74 6.6-1.35 20.75-1.357 31.444-.007 10.695.694 22.995 1.556 27.334.861 4.339 2.732 9.482 4.157 11.43 1.425 1.946 5.43 5.084 8.898 6.972 3.47 1.889 11.742 5.21 18.384 7.38s15.813 4.369 20.38 4.885c8.305.94 8.305.94 2.39 3.185-3.252 1.235-9.694 4.812-14.314 7.95-6.85 4.652-8.982 7.018-11.548 12.82-2.095 4.737-3.66 12.022-4.683 21.792-.894 8.534-1.203 22.375-.74 33.075.44 10.12 1.151 22.9 1.583 28.4s1.582 11.8 2.557 14 2.417 9.4 3.205 16c.79 6.6 2.023 17.7 2.742 24.666s1.637 16.867 2.039 22c.402 5.134 1.654 19.534 2.782 32s2.925 28.921 3.993 36.566c1.068 7.644 1.942 17.1 1.942 21.011 0 6.704-.149 7.02-2.585 5.499-2.075-1.297-4.014-1.164-9.844.674-3.993 1.259-8.924 3.597-10.958 5.197s-5.99 7.8-8.791 13.779c-2.802 5.978-7.208 17.187-9.792 24.907-2.583 7.721-4.694 16.662-4.69 19.87.004 3.207.637 8.097 1.406 10.867.77 2.77 3.187 7.072 5.371 9.56 2.413 2.749 3.424 4.863 2.575 5.388-.768.475-2.589 3.199-4.045 6.053-1.674 3.281-2.636 7.784-2.616 12.243.018 3.88.559 9.32 1.202 12.09s3.682 8.365 6.752 12.432c5.083 6.732 5.4 7.597 3.539 9.653-1.124 1.243-3.264 4.949-4.755 8.235-1.491 3.287-2.724 7.82-2.74 10.072-.016 2.253.899 6.82 2.034 10.15s5.387 10.085 9.45 15.011c6.753 8.187 7.265 9.263 5.954 12.517-.79 1.958-2.354 8.06-3.477 13.56s-3.498 15.1-5.277 21.333-3.574 15.233-3.99 20-1.357 19.167-2.09 32c-.734 12.833-1.902 25.733-2.597 28.667-.694 2.933-1.901 16.733-2.683 30.666s-2.392 31.106-3.579 38.162c-1.774 10.55-2.033 19.547-1.454 50.667.557 29.95 1.148 39.089 2.839 43.838 1.174 3.3 2.144 6.738 2.155 7.64s-2.38 4.801-5.313 8.666-7.53 11.227-10.215 16.36c-2.685 5.134-8.143 14.713-12.129 21.288s-9.205 15.875-11.599 20.667c-2.393 4.792-5.424 12.012-6.734 16.046-1.672 5.143-4.614 9.745-9.854 15.412-4.109 4.443-10.034 12.94-13.168 18.883s-9.284 18.791-13.667 28.552-7.969 18.158-7.969 18.663-2.323 5.021-5.162 10.037-6.68 13.02-8.537 17.786c-1.856 4.767-4.064 10.869-4.906 13.56s-2.4 5.615-3.463 6.497c-1.557 1.292-1.932 6.296-1.932 25.786 0 22.738-.159 24.282-2.666 25.848-2.273 1.42-2.667 3.109-2.667 11.447 0 7.935-.48 10.217-2.547 12.087-1.4 1.267-5.553 7.21-9.228 13.206-3.674 5.997-11.718 21.148-17.874 33.67-6.157 12.522-13.062 28.422-15.345 35.333-2.283 6.912-5.185 17.666-6.448 23.9-1.301 6.42-2.353 17.978-2.427 26.666-.108 12.643.413 17.024 2.97 24.967 1.75 5.438 4.666 11.244 6.695 13.333 1.977 2.035 5.255 4.9 7.284 6.367 3.69 2.666 3.69 2.666-2.407 17.046-3.354 7.908-7.63 19.308-9.503 25.333s-5.726 17.357-8.562 25.182c-2.836 7.826-6.112 19.74-7.281 26.476s-4.428 19.534-7.243 28.439-5.547 19.49-6.071 23.524c-.524 4.033-4.295 17.533-8.381 30-7.428 22.666-7.428 22.666-8.009 57-.58 34.333-.58 34.333-134.768 34.006-73.804-.18-193.738-.482-266.522-.673m594.324-2.358c-.702-1.847-1.878-12.197-2.613-23s-1.345-39.548-1.357-63.879.62-48.93 1.4-54.667c.782-5.736 2.632-15.224 4.111-21.084 1.48-5.86 4.39-15.46 6.467-21.333s5.249-14.279 7.046-18.679 4.084-9.8 5.083-12c.998-2.2 4.282-7.438 7.297-11.64 3.016-4.203 6.95-8.795 8.743-10.205s5.935-3.285 9.205-4.166c3.27-.88 8.207-2.754 10.971-4.164s6.875-5.098 9.136-8.195c2.26-3.096 6.802-10.967 10.093-17.49 3.29-6.523 8.303-18.823 11.14-27.333s7.333-23.574 9.991-33.474c2.66-9.9 5.688-19.329 6.732-20.953s1.898-4.195 1.898-5.713c0-1.519.862-4.09 1.915-5.714s4.567-10.153 7.808-18.953 8.148-22.9 10.905-31.333 7.626-20.853 10.821-27.598c3.195-6.746 6.977-15.746 8.404-20 1.426-4.255 2.987-12.536 3.468-18.402s.262-15.88-.487-22.251c-.772-6.56-2.549-13.91-4.098-16.947-1.505-2.95-2.736-6.54-2.736-7.98s2.366-7.014 5.259-12.387c2.892-5.373 7.09-14.576 9.328-20.45 2.845-7.468 4.974-11.079 7.075-12 2.03-.891 3.137-2.678 3.412-5.512.224-2.307 1.574-5.25 3-6.54s2.593-3.063 2.593-3.938 2.262-5.73 5.027-10.788c3.055-5.59 6.401-9.856 8.53-10.876 1.926-.924 6.785-5.225 10.799-9.56 5.87-6.34 8.632-11.043 14.127-24.055 3.756-8.895 7.201-17.65 7.654-19.456.474-1.89 2.036-3.54 3.677-3.887 1.569-.332 4.052-.78 5.519-.996s3.259-1.74 3.983-3.385c.951-2.163 2.448-2.992 5.4-2.992 2.246 0 4.804-.72 5.684-1.6s1.6-2.934 1.6-4.565c0-1.63 1.387-4.66 3.081-6.733 1.695-2.073 4.642-6.485 6.548-9.804 1.907-3.319 4.982-11.119 6.835-17.333s4.893-15.499 6.757-20.632 3.402-11.518 3.417-14.187c.015-2.67 1.558-10.742 3.428-17.938s4.2-14.912 5.18-17.146 2.51-8.562 3.399-14.062 3.355-16 5.48-23.334c2.124-7.333 4.247-15.433 4.718-18 .47-2.566 1.63-5.566 2.578-6.666.947-1.1 9.752-17.9 19.568-37.334 9.816-19.433 20.723-39.233 24.24-44 3.515-4.766 8.049-11.966 10.074-16 2.025-4.033 4.14-8.833 4.7-10.666s2.68-5.445 4.708-8.024c2.03-2.58 5.069-7.53 6.755-11s3.546-6.31 4.133-6.31 1.067.523 1.067 1.163c0 .639 2.884 5.589 6.408 11s6.827 10.944 7.34 12.297 2.13 2.773 3.592 3.156c1.463.382 2.667 1.375 2.675 2.206.01.832 2.021 3.462 4.475 5.845 2.956 2.872 5.768 4.333 8.336 4.333 2.74 0 4.26.88 5.192 3 1.235 2.817 2.306 3.041 17.54 3.667 8.925.367 16.501.967 16.837 1.333.336.367 1.996 3.367 3.689 6.667s3.417 8.4 3.83 11.333c.532 3.768 1.608 5.709 3.666 6.612 1.602.704 3.501 2.504 4.22 4 .719 1.497 5.601 7.522 10.85 13.388 5.25 5.867 11.301 13.175 13.448 16.24 2.146 3.066 3.902 6.502 3.902 7.636s1.387 2.971 3.081 4.082c1.695 1.11 4.395 4.355 6 7.212s2.92 5.973 2.92 6.926 1.139 2.971 2.531 4.485 5.593 9.486 9.334 17.716 6.801 15.844 6.801 16.921.551 2.299 1.225 2.715c.674.417 3.338 4.502 5.92 9.08 2.58 4.576 8.338 12.766 12.794 18.199 4.456 5.432 10.943 15.332 14.415 21.999 3.487 6.694 8.999 14.82 12.313 18.15 3.695 3.713 10.463 8.19 17.623 11.66 9.045 4.381 14.516 6.048 24.666 7.516 7.174 1.037 16.479 2.282 20.677 2.766 7.306.843 7.975 1.255 15.666 9.648 4.419 4.823 8.034 9.521 8.034 10.441s2.173 4.884 4.828 8.808c4.828 7.134 4.828 7.134 3.969 21.8-.473 8.067-1.806 23.967-2.962 35.334-1.34 13.173-2.778 21.43-3.968 22.771-1.027 1.158-1.867 2.738-1.867 3.511s-1.197 1.72-2.66 2.102c-1.463.383-3.076 1.803-3.585 3.156-.51 1.353-2.99 5.703-5.514 9.668s-5.804 10.564-7.289 14.666c-2.048 5.656-2.692 10.681-2.666 20.792.027 10.084 1.052 17.763 4.208 31.505 3.195 13.911 4.173 21.316 4.173 31.588 0 7.506.587 13.78 1.333 14.24.735.455 1.354 6.622 1.379 13.746.025 7.107.593 18.921 1.263 26.255s2.43 18.433 3.912 24.666 3.948 19.134 5.481 28.667c1.534 9.533 3.337 25.433 4.007 35.333s2.082 20.771 3.138 24.158 3.115 8.487 4.574 11.334c1.46 2.846 4.062 6.485 5.783 8.086s4.78 3.536 6.797 4.3c3.614 1.37 3.666 1.557 3.68 13.09.013 6.434.623 40.639 1.368 76.01 1.172 55.648 1.086 65.466-.637 72.894-1.095 4.721-4.654 14.51-7.909 21.752-3.255 7.243-7.456 18.24-9.335 24.439s-4.383 16.37-5.565 22.604c-1.372 7.242-2.406 22.282-2.865 41.667-.718 30.333-.718 30.333-326.594 30.333s-325.876 0-327.153-3.358" style="fill:#22314e;stroke-width:1.33333" transform="translate(22.347 -6.385)"/></svg>