<svg xmlns="http://www.w3.org/2000/svg" width="643.404" height="643.404"><path d="M286.308 565.692c2.346-8.58 2.157-9.578-2.516-13.269l-4.416-3.487 6.017-.51 6.016-.511 1.615-4.779c.888-2.628 1.896-5.055 2.241-5.393.345-.337 1.497 1.813 2.56 4.78l1.933 5.392 6.121.51 6.121.511-4.851 3.368c-2.668 1.853-4.851 3.724-4.851 4.159s.74 2.965 1.647 5.623c.905 2.658 1.444 5.036 1.196 5.283s-2.252-.913-4.455-2.58c-4.856-3.674-5.052-3.69-9.015-.717-5.599 4.2-6.111 4.354-5.363 1.62m46.217-2.62c2.031-6.748 1.954-7.006-3.31-11.025l-4.743-3.621h5.64c6.33 0 7.147-.625 9.008-6.894.709-2.387 1.603-4.34 1.986-4.34.384 0 1.278 1.953 1.987 4.34 1.862 6.273 2.675 6.894 9.03 6.894h5.659l-4.763 3.71c-2.62 2.042-4.764 4.037-4.764 4.434s.673 2.957 1.495 5.688 1.332 5.128 1.133 5.327c-.198.198-2.472-1.127-5.052-2.946l-4.692-3.307-4.524 3.249c-2.488 1.787-4.748 3.249-5.022 3.249-.275 0 .145-2.141.932-4.758m-87.408-6.22c.006-.422.697-3.026 1.534-5.786.838-2.761 1.407-5.085 1.266-5.165s-2.313-1.728-4.825-3.661l-4.567-3.517 6.02-.51 6.02-.51 2.01-6.051 2.012-6.05 1.472 4.007c3.364 9.163 2.766 8.6 9.196 8.638l5.894.034-2.553 2.086c-7.677 6.273-7.232 5.368-5.506 11.18.858 2.887 1.377 5.432 1.155 5.655-.223.223-2.207-.959-4.41-2.625-2.203-1.667-4.399-3.044-4.88-3.06-.48-.015-2.615 1.351-4.742 3.036-3.951 3.13-5.115 3.654-5.096 2.298m126.956-.66c.301-.785 1.124-3.35 1.828-5.701 1.403-4.682 1.987-3.791-7.202-10.97-1.3-1.015-.433-1.25 4.738-1.276l6.331-.032 1.775-5.63c.976-3.098 2.088-5.28 2.47-4.852.384.429 1.51 2.963 2.502 5.63l1.805 4.852 5.734.03 5.733.03-4.524 3.91-4.523 3.91 1.639 5.762c.901 3.17 1.403 5.762 1.116 5.762-.288 0-2.551-1.457-5.03-3.237l-4.508-3.237-4.507 3.237c-4.945 3.55-6.208 3.976-5.377 1.811M279.83 518.25c-3.651-1.86-11.148-4.877-16.659-6.704l-10.02-3.323-7.852 2.345c-17.295 5.165-19.801 5.567-34.916 5.596-12.708.024-15.931-.315-22.723-2.387-4.354-1.328-7.915-2.805-7.915-3.281 0-1.87 8.689-7.005 17.146-10.133 7.564-2.799 10.66-3.364 20.676-3.775 10.462-.43 12.886-.182 21.67 2.21 13.428 3.66 28.372 8.936 41.15 14.532 9.583 4.197 10.537 4.853 9.601 6.601-1.344 2.511-2.209 2.368-10.158-1.681m74.096 1.862c-.41-1.07-.041-2.224.942-2.943 3.239-2.368 33.031-13.688 45.299-17.212 20.103-5.774 36.18-4.872 52.597 2.95 4.027 1.92 8.43 4.387 9.786 5.485 2.36 1.912 2.382 2.038.51 2.984-6.567 3.322-15.682 4.783-30.039 4.816-14.172.032-15.412-.138-28.854-3.943l-14.045-3.975-8.353 2.752c-4.594 1.514-12.24 4.573-16.99 6.8-4.75 2.225-8.983 4.046-9.407 4.046s-1.074-.792-1.446-1.76m-181.265-25.984c-7.89-1.127-32.87-9.11-33.026-10.554-.186-1.726 6.394-5.527 13.468-7.778 9.696-3.086 28.56-3.776 39.985-1.462 10.623 2.152 26.997 8.671 26.997 10.75 0 2.325-10.414 7.044-19.239 8.717-8.78 1.665-18.064 1.773-28.185.327m269.041-.326c-6.58-1.455-14.061-4.54-17.357-7.158-2.376-1.888-1.895-2.384 5.612-5.785 11.414-5.17 19.679-7.115 32.741-7.706 14.198-.642 23.825.569 32.083 4.034 6.561 2.753 11.147 5.905 10.064 6.917-1.839 1.718-26.845 9.077-34.366 10.114-10.385 1.431-21.123 1.276-28.777-.416m-139.915-.482c-39.785-3.62-65.3-17.141-76.205-40.384-6.956-14.826-6.518-3.713-6.518-165.447 0-137.832.105-146.49 1.865-153.995 5.503-23.46 21.353-40.695 45.624-49.61 26.337-9.674 69.95-11.067 101.133-3.231 4.76 1.196 13.4 4.474 19.2 7.285 14.121 6.843 23.467 15.828 29.632 28.488 7.214 14.813 7.614 17.301 8.081 50.297l.416 29.362h-86.972v-19.831c0-10.908-.276-20.55-.612-21.426-2.959-7.71-25.955-8.224-29.996-.672-1.115 2.082-1.547 67.647-.454 68.74.33.329 2.512-.747 4.851-2.39 6.832-4.802 16.331-6.334 39.998-6.449 24.366-.119 31.868 1.22 46.23 8.246 11.203 5.482 20.506 13.943 24.309 22.11l2.462 5.29.01 89.963c.01 85.626-.085 90.337-1.965 97.69-4.534 17.724-13.613 29.43-31.17 40.182-9.717 5.951-26.015 11.731-39.876 14.141-11.094 1.93-37.395 2.791-50.043 1.64zm-.088-40.752c.299-.483 2.692-1.173 5.32-1.533 2.626-.36 5.396-1.17 6.155-1.8 1.103-.915 1.382-7.414 1.393-32.424.008-17.203.283-32.282.612-33.508.907-3.383 7.504-7.375 14.262-8.631 11.525-2.142 10.644-.562 10.644-19.088 0-14.146.228-16.41 1.79-17.824 1.087-.984 9.352-3.052 21.033-5.265 10.584-2.004 19.43-3.644 19.657-3.644s.413-6.09.412-13.532c-.002-14.924-1.069-18.7-6.39-22.601-2.562-1.88-3.394-1.965-9.191-.954-3.506.611-12.809 3.505-20.673 6.43-21.412 7.966-27.563 7.94-31.738-.134l-1.653-3.197-8.817.678c-12.81.984-16.509 2.186-17.875 5.806-.622 1.646-1.719 2.993-2.438 2.993-1.813 0-1.646 4.577.224 6.128 1.331 1.105 1.531 9.592 1.531 64.942 0 56.994-.176 64.04-1.68 67.194l-1.681 3.525 3.979 3.654c3.493 3.209 4.624 3.655 9.28 3.659 2.915.003 5.545-.39 5.844-.874m15.44-84.512c-1.286-1.285-1.581-3.345-1.35-9.41.29-7.606.369-7.813 3.87-10.176 3.61-2.436 8.129-2.67 14.043-.73 3.371 1.106 2.937-1.282-.966-5.308-2.913-3.006-3.04-3.368-1.18-3.368 4.49 0 5.465 2.85 5.465 15.961 0 8.147-.409 12.635-1.225 13.452-1.944 1.944-16.624 1.613-18.658-.42m-168.033 98.28c-20.99-5.64-42.379-17.237-46.506-25.218-1.932-3.736-1.055-4.012 12.774-4.012 12.597 0 22.691 2.41 35.775 8.54 14.305 6.702 27.574 17.092 27.574 21.591 0 2.565-18.85 1.992-29.617-.9M464.685 468c.002-.421.91-2.252 2.017-4.069 4.701-7.71 27.35-20.585 43.551-24.757 9.841-2.535 31-2.668 31.818-.2.677 2.038-8.825 10.66-16.442 14.92-16.874 9.436-35.619 14.872-51.286 14.872-5.314 0-9.66-.345-9.658-.766m-274.832-3.311c-11.124-5.88-22.259-24.961-27.97-47.931-3.338-13.428-4.25-21.524-2.426-21.525 2.58 0 18.658 17.8 23.564 26.089 6.556 11.079 11.014 24.85 11.757 36.326.333 5.13.19 9.056-.329 9.03-.504-.025-2.573-.92-4.596-1.99m259.003-5.88c.379-4.354 1.338-10.82 2.13-14.369 3.215-14.383 14.028-32.333 26.376-43.783 6.692-6.205 7.26-6.526 7.591-4.297.197 1.326-.198 5.866-.877 10.09-3.958 24.613-15.969 48.978-28.109 57.019-7.474 4.95-7.923 4.656-7.111-4.66m-297.437-19.192c-20.017-5.39-45.515-28.587-50.114-45.59-.56-2.07-.833-3.946-.607-4.172s3.218-.026 6.648.443c18.025 2.465 34.882 17.566 51.397 46.042l2.813 4.851-2.395-.067c-1.317-.037-4.801-.715-7.742-1.507m331.645.847c0-1.785 9.846-17.417 15.109-23.987 13.033-16.272 25.68-24.645 40.348-26.712 5.353-.755 5.683.925 1.808 9.206-7.408 15.83-26.062 32.553-43.656 39.135-6.72 2.515-13.61 3.708-13.61 2.358M146.198 404.17c-4.594-5.962-8.973-15.434-11.022-23.847-2.474-10.154-2.304-31.49.317-39.721 2.673-8.397 4.292-8.353 8.809.241 7.632 14.525 12.089 37.847 10.012 52.395-1.27 8.894-2.947 15.273-4.016 15.273-.415 0-2.26-1.954-4.1-4.34m346.095 1.888c-2.79-7.34-3.364-12.512-2.825-25.459.641-15.374 3.355-26.37 9.655-39.11 4.492-9.086 6.09-9.336 8.922-1.4 1.657 4.647 1.996 8.249 1.969 20.932-.03 13.768-.306 16.147-2.732 23.49-2.698 8.168-8.322 18.682-11.977 22.395-1.914 1.944-1.954 1.932-3.012-.848m-383.802-24.12c-12.984-4.614-26.292-12.932-34.539-21.59-7.444-7.813-12.937-14.928-12.31-15.943.773-1.25 11.412-.402 18.018 1.437 7.804 2.172 22.345 9.999 28.374 15.273 2.773 2.426 7.889 8.567 11.368 13.647L125.73 384l-5.928-.075c-3.26-.04-8.35-.935-11.31-1.987m411.558-1.257c1.377-1.826 4.837-6.543 7.688-10.483 10.644-14.71 31.918-25.983 49.094-26.016l6.448-.012-6.346 8.204c-6.571 8.494-12.434 13.939-20.337 18.885C542.794 379.9 532.015 384 523.114 384h-5.57zm-401.281-19.399c-4.508-9.106-6.407-16.29-7.09-26.814-.944-14.568 3.462-35.175 8.89-41.575 1.896-2.236 2.048-2.257 3.423-.486 2.336 3.011 5.752 17.331 6.637 27.83 1.44 17.073-1.489 35.921-6.935 44.62l-1.762 2.814zm399.438-.174c-7.266-15.871-7.395-45.548-.28-64.563 1.128-3.015 2.444-5.481 2.925-5.481 3.017 0 6.987 8.97 9.628 21.753 2.03 9.83 2.037 24.793.016 33.396-1.726 7.347-7.38 20.425-8.83 20.425-.51 0-2.066-2.488-3.459-5.53m-417.61-9.98c-13.301-7.485-29.464-33.433-33.691-54.086-.845-4.13-1.777-8.544-2.07-9.808-.814-3.508 1.556-2.878 8.55 2.271 13.9 10.231 26.583 31.221 28.715 47.516.624 4.775 1.396 10.175 1.716 12 .62 3.543.024 3.933-3.22 2.108m438.657.446c.01-.42.89-6.145 1.956-12.72 1.56-9.62 2.766-13.61 6.175-20.42 4.826-9.642 10.632-17.717 17.35-24.128 4.816-4.598 13.033-9.986 13.902-9.117.646.646-2.254 15.084-4.36 21.705-5.054 15.888-19.811 37.233-29.936 43.298-3.788 2.269-5.118 2.63-5.087 1.382M99.275 305.37c-8.622-3.913-22.051-19.265-29.119-33.289-2.563-5.087-5.904-14.368-7.272-20.203-.683-2.917-.668-2.928 3.193-2.212 14.218 2.636 28.855 19.714 35.921 41.91 3.814 11.98 4.525 15.836 2.913 15.807-.688-.013-3.225-.918-5.636-2.013m438.938-.115c0-3.484 2.906-13.688 5.858-20.566 7.04-16.409 16.082-27.274 26.992-32.435 10.696-5.06 11.53-4.383 7.92 6.418-6.573 19.67-21.334 39.953-33.597 46.168-6.162 3.122-7.173 3.18-7.173.415M107.653 289.4c-3.22-17.16 9.05-47.506 23.731-58.696 4.59-3.498 5.917-3.156 6.33 1.635 1.504 17.43-14.382 53.022-26.45 59.263-2.914 1.507-2.916 1.506-3.611-2.202m422.647.71c-5.327-3.859-13.714-16.662-17.756-27.107-5.29-13.67-8.609-33.13-5.932-34.785 1.815-1.121 8.68 4.2 13.489 10.453 5.027 6.54 10.176 16.185 13.245 24.813 2.242 6.305 3.893 29.621 2.096 29.621-.554 0-2.868-1.347-5.142-2.995M98.107 260.988c-6.911-5.107-15.57-17.515-18.992-27.21-1.518-4.303-4.537-24.045-4.554-29.778-.012-4.388 2.24-3.43 9.044 3.843 11.214 11.987 18.918 32.15 18.312 47.923l-.3 7.816zm443.466-6.757c1.184-18.435 7.98-35.444 18.616-46.595 3.381-3.545 6.713-6.445 7.405-6.445 1.644 0 1.578 5.8-.22 19.232-1.127 8.428-2.227 12.228-5.47 18.893-4.657 9.576-12.403 19.56-17.47 22.518l-3.48 2.032zm-439.394-28.639c-8.204-13.296-10.918-26.832-9.164-45.704.983-10.585 3.633-22.006 5.927-25.546.685-1.056 1.555-.3 3.526 3.064 4.109 7.014 5.422 10.888 7.334 21.642 3.044 17.116.812 43.477-4.114 48.587-1.163 1.206-1.696.896-3.509-2.043m10.161 2.823c0-.193.892-2.942 1.982-6.109 5.674-16.493 17.675-32.726 29.485-39.882 5.646-3.422 18.364-8.338 19.258-7.444.852.852-3.373 11.71-6.864 17.641-4.376 7.434-21.027 24.447-28.541 29.163-6.453 4.05-15.32 7.888-15.32 6.631m411.7-2.26c-7.497-3.406-18.207-11.518-25.265-19.14-9.619-10.385-17.754-24.319-17.754-30.408 0-1.763.275-1.777 5.362-.268 19.368 5.746 34.832 22.077 42.78 45.178 2.91 8.46 3.04 8.344-5.122 4.638m13.296.824c-7.428-13.996-6.318-50.042 2.022-65.669 1.898-3.556 3.974-6.629 4.615-6.829 2.65-.828 7.499 21.751 7.509 34.966.008 11.206-2.614 22.416-7.302 31.215-2.375 4.457-4.673 8.104-5.107 8.104-.433 0-1.215-.804-1.737-1.787m-419.295-42.894c-1.174-15.205 2.072-34.36 7.697-45.418 2.09-4.11 7.765-11.007 9.055-11.007 3.521 0 4.204 28.151.967 39.833-3.63 13.1-11.306 25.528-15.766 25.528-.854 0-1.486-2.893-1.953-8.936m401.056 5.617c-7.943-8.3-13.524-25.571-13.55-41.93-.015-9.954 1.402-18.584 3.239-19.72 2.74-1.693 10.587 11.754 14.084 24.135 3.637 12.874 4.09 40.834.661 40.834-.692 0-2.687-1.493-4.434-3.319m-20.203-23.97c-2.911-1.471-8.854-6.369-13.822-11.39-6.866-6.94-9.623-10.653-12.987-17.49-4.87-9.9-7.367-19.31-7.39-27.851l-.014-5.894 4.34 2.21c10.124 5.152 22.876 22.003 29.274 38.683 2.82 7.355 6.843 23.217 6.075 23.957-.203.196-2.668-.805-5.476-2.225m-358.98-.564c0-5.322 4.37-19.125 9.172-28.968 7.216-14.792 17.262-26.67 26.716-31.585 2.52-1.31 2.725-1.247 3.151.98.852 4.458-1.309 17.21-4.162 24.556-6.152 15.843-21.597 33.265-32.578 36.747-1.949.618-2.298.355-2.298-1.73" style="fill:#ffd800;stroke-width:1.02128;fill-opacity:1"/></svg>