<?xml version="1.0" encoding="UTF-8"?>
<svg id="Layer_1" xmlns="http://www.w3.org/2000/svg" viewBox="0 0 1148.46 250.36">
  <defs>
    <style>
      .cls-1 {
        fill: #ef5f14;
      }

      .cls-2 {
        fill: #fff;
      }

      .cls-3 {
        fill: #1a171b;
      }
    </style>
  </defs>
  <g id="Layer_1-2">
    <g id="logo_kyberna">
      <path id="Path_1" class="cls-2" d="M216.48,49.96c0-7.46-2.3-14.93-6.89-21.25L185.48,0v124.03c0,6.32-2.3,7.46-5.74,2.3h0c-1.15-1.72-2.3-2.87-3.45-4.59-5.17-4.59-10.91-9.19-17.23-13.21-9.76-6.32-19.52-13.21-28.14-21.25-9.19-8.61-15.5-18.95-19.52-31.01l-37.32,30.43c3.45,13.21,10.34,24.69,19.52,34.45,8.61,8.61,18.95,16.08,30.43,21.25,7.46,2.87,14.93,7.46,20.67,13.78,4.02,5.74,6.89,12.06,8.61,18.95h60.87l-22.39-29.86c-2.87-4.59-1.72-6.89,4.02-6.89h107.38l-31.01-36.75h-54.55v-50.53s-1.15-1.15-1.15-1.15Z"/>
      <path id="Path_2" class="cls-1" d="M269.31,248.64l-32.16-43.07h-110.83c-2.3-8.04-6.32-14.93-10.91-21.82-5.74-6.89-12.63-12.06-20.67-14.93-11.48-4.59-21.25-11.48-30.43-20.1-10.34-10.34-17.23-23.54-19.52-37.9h0C44.79,109.68,0,146.43,0,146.43c5.17,13.78,12.63,26.41,22.97,37.32,8.61,9.76,18.38,17.8,29.86,23.54,8.61,4.02,16.65,9.76,22.39,16.65,5.74,7.46,10.34,15.5,13.78,24.12h180.31v.57Z"/>
      <g id="Group_1">
        <path id="Path_3" class="cls-2" d="M347.41,74.08c-1.72-2.87-3.45-4.02-5.74-4.02-2.87,0-5.17,1.72-5.74,4.59h0c0,1.15.57,2.87,1.72,3.45,1.72,1.15,4.02,2.3,6.32,2.87,6.32,2.87,9.19,6.32,9.19,11.48,0,6.89-5.74,12.63-12.63,12.63-4.02,0-8.04-1.72-10.34-5.17-1.15-1.72-2.3-4.02-2.3-6.32l6.32-1.15c0,1.72,0,2.87,1.15,4.59,1.72,2.87,5.74,4.02,9.19,2.3,1.72-1.15,2.87-3.45,2.87-5.74s-1.15-4.02-2.87-5.17c-2.3-1.15-4.59-2.3-6.89-2.87-5.74-2.3-8.04-5.74-8.04-9.76,0-6.32,5.74-10.91,11.48-10.34h0c4.59,0,8.61,2.3,10.91,6.89l-4.59,2.87s0-1.15,0-1.15Z"/>
        <path id="Path_4" class="cls-2" d="M374.4,105.08h-5.74v-33.88h-9.19v-5.74h24.12v5.74h-9.19v33.88Z"/>
        <path id="Path_5" class="cls-2" d="M416.89,105.08h-7.47l-11.48-16.08h-1.15v16.08h-5.74v-39.62h6.89c3.45,0,7.47,0,10.34,2.3s4.59,5.74,4.59,9.19c0,5.17-3.45,9.76-8.61,10.91l12.06,16.65.57.57ZM400.81,61.44l-9.19-8.04,4.02-2.87,5.17,4.59,5.17-4.59,4.02,2.87-9.19,8.04ZM399.09,83.26c2.3,0,4.02,0,5.74-1.15s2.3-2.87,2.3-5.17c0-1.72-1.15-3.45-2.3-4.59-1.72-1.15-4.02-1.72-5.74-1.15h-2.3v12.63h1.72l.57-.57Z"/>
        <path id="Path_6" class="cls-2" d="M431.25,70.63v9.76h15.5v5.74h-15.5v13.21h16.08v5.74h-21.82v-39.62h21.82v5.74h-16.08s0-.57,0-.57Z"/>
        <path id="Path_7" class="cls-2" d="M457.09,65.46h8.04c5.17,0,10.34,1.15,14.93,4.02,5.17,4.02,8.04,9.76,7.47,16.08,0,6.32-2.87,12.63-8.04,16.08-4.02,2.87-9.19,4.59-14.36,4.02h-8.04v-39.62h0v-.57ZM465.7,99.34c4.02,0,7.47-.57,10.34-2.87,3.45-2.87,5.74-6.89,5.17-11.48,0-4.59-1.72-8.61-5.17-11.48-2.87-2.3-6.89-2.87-10.34-2.87h-2.87v28.14h2.87v.57Z"/>
        <path id="Path_8" class="cls-2" d="M497.28,62.59l28.71,30.43v-27.56h5.74v41.92l-28.71-30.43v27.56h-5.74v-42.49s0,.57,0,.57Z"/>
        <path id="Path_9" class="cls-2" d="M547.24,61.44l-2.87-2.3,8.04-8.04,4.59,3.45s-9.76,6.89-9.76,6.89ZM550.11,105.08h-5.74v-39.62h5.74v39.62Z"/>
        <path id="Path_10" class="cls-2" d="M597.2,74.08c-1.72-2.87-3.45-4.02-5.74-4.02-2.87,0-5.74,1.72-5.74,4.59h0c0,1.15.57,2.87,1.72,3.45,1.72,1.15,4.02,2.3,6.32,2.87,6.32,2.87,9.19,6.32,9.19,11.48,0,6.89-5.74,12.63-12.63,12.63-4.02,0-8.04-1.72-10.34-5.17-1.15-1.72-2.3-4.02-2.3-6.32l6.32-1.15c0,1.72,0,2.87,1.15,4.59,1.72,2.87,5.74,4.02,9.19,2.3,1.72-1.15,2.87-3.45,2.87-5.74s-1.15-4.02-2.87-5.17c-2.3-1.15-4.59-2.3-6.89-2.87-5.74-2.3-8.04-5.74-8.04-9.76,0-6.32,5.74-10.91,11.48-10.34h0c4.59,0,8.61,2.3,10.91,6.89l-4.59,2.87s0-1.15,0-1.15ZM590.88,61.44l-9.19-8.04,4.02-2.87,5.17,4.59,5.17-4.59,4.02,2.87-9.19,8.04Z"/>
        <path id="Path_11" class="cls-2" d="M633.95,65.46h8.04l-17.8,17.8,17.8,21.82h-8.04l-14.36-17.8-1.15,1.15v16.65h-5.74v-39.62h5.74v16.08l15.5-15.5v-.57Z"/>
        <path id="Path_12" class="cls-2" d="M686.78,84.99c0,11.48-9.19,20.67-20.67,20.67h0c-5.74,0-11.48-2.87-15.5-6.89-3.45-4.02-5.17-8.61-5.17-13.78,0-11.48,9.19-20.67,20.67-20.67s20.67,9.19,20.67,20.67h0ZM651.18,84.99c0,4.02,1.72,8.04,4.59,10.91s6.32,4.02,10.34,4.02c8.04,0,14.93-6.32,15.5-14.36,0-8.04-6.32-14.93-14.36-15.5s-14.93,6.32-15.5,14.36h0s-.57.57-.57.57Z"/>
        <path id="Path_13" class="cls-2" d="M702.86,99.34h11.48v5.74h-17.8v-39.62h5.74v33.88h.57Z"/>
        <path id="Path_14" class="cls-2" d="M728.7,95.32l-4.59,9.76h-6.32l19.52-41.92,18.95,41.92h-6.32l-4.02-9.76s-17.23,0-17.23,0ZM737.31,76.37l-6.32,13.21h12.06l-5.74-13.21Z"/>
        <path id="Path_15" class="cls-2" d="M352.58,151.02v25.27h-5.74v-2.87c-1.72,2.3-4.59,3.45-7.46,3.45-7.46-.57-12.63-7.46-12.06-14.36.57-6.32,5.74-10.91,11.48-12.06,2.87,0,5.74,1.15,8.04,3.45v-2.87h5.74,0ZM333.05,163.66c0,4.02,4.02,6.89,8.04,6.32,4.02,0,6.89-4.02,6.32-8.04,0-3.45-3.45-6.32-6.89-6.32-4.02,0-6.89,3.45-6.89,7.46h0l-.57.57Z"/>
        <path id="Path_16" class="cls-2" d="M393.35,163.66l10.91-27.56h6.32l-17.8,42.49-17.23-42.49h6.32l10.91,27.56h.57Z"/>
        <path id="Path_17" class="cls-2" d="M413.45,136.67h6.89l9.19,16.08,9.19-16.08h6.89l-13.21,22.39v17.23h-5.74v-17.23l-13.21-22.39h0Z"/>
        <path id="Path_18" class="cls-2" d="M470.29,145.28c-1.72-2.87-3.45-4.02-5.74-4.02-2.87,0-5.17,1.72-5.74,4.59h0c0,1.15.57,2.87,1.72,3.45,1.72,1.15,4.02,2.3,6.32,2.87,6.32,2.87,9.19,6.32,9.19,11.48,0,6.89-5.74,12.63-12.63,12.63-4.02,0-8.04-1.72-10.34-5.17-1.15-1.72-2.3-4.02-2.3-6.32l6.32-1.15c0,1.72,0,2.87,1.15,4.59,1.72,2.87,5.74,4.02,9.19,2.3,1.72-1.15,2.87-3.45,2.87-5.74s-1.15-4.02-2.87-5.17c-2.3-1.15-4.59-2.3-6.89-2.87-5.74-2.3-8.04-5.74-8.04-9.76,0-6.32,5.74-10.91,11.48-10.34h0c4.59,0,8.61,2.3,10.91,6.89l-4.59,2.87s0-1.15,0-1.15ZM463.98,132.65l-9.19-8.04,4.02-2.87,5.17,4.59,5.17-4.59,4.02,2.87-9.19,8.04Z"/>
        <path id="Path_19" class="cls-2" d="M503.03,145.28c-1.72-2.87-3.45-4.02-5.74-4.02-2.87,0-5.74,1.72-5.74,4.59h0c0,1.15.57,2.87,1.72,3.45,1.72,1.15,4.02,2.3,6.32,2.87,6.32,2.87,9.19,6.32,9.19,11.48,0,6.89-5.74,12.63-12.63,12.63-4.02,0-8.04-1.72-10.34-5.17-1.15-1.72-2.3-4.02-2.3-6.32l6.32-1.15c0,1.72,0,2.87,1.15,4.59,1.72,2.87,5.74,4.02,9.19,2.3,1.72-1.15,2.87-3.45,2.87-5.74s-1.15-4.02-2.87-5.17c-2.3-1.15-4.59-2.3-6.89-2.87-5.74-2.3-8.04-5.74-8.04-9.76,0-6.32,5.74-10.91,11.48-10.34h0c4.59,0,8.61,2.3,10.91,6.89l-4.59,2.87s0-1.15,0-1.15ZM496.71,132.65l-9.19-8.04,4.02-2.87,5.17,4.59,5.17-4.59,4.02,2.87-9.19,8.04Z"/>
        <path id="Path_20" class="cls-2" d="M521.4,132.65l-2.87-2.3,8.04-8.04,4.59,3.45s-9.76,6.89-9.76,6.89ZM524.27,176.29h-5.74v-39.62h5.74v39.62Z"/>
        <path id="Path_21" class="cls-2" d="M593.18,156.19c0,11.48-9.19,20.67-20.67,20.67h0c-5.74,0-11.48-2.87-15.5-6.89-3.45-4.02-5.17-8.61-5.17-13.78,0-11.48,9.19-20.67,20.67-20.67s20.67,9.19,20.67,20.67h0ZM557.58,156.19c0,4.02,1.72,8.04,4.59,10.91,2.87,2.87,6.32,4.02,10.34,4.02,8.04,0,14.93-6.32,15.5-14.36,0-8.04-6.32-14.93-14.36-15.5-8.04,0-14.93,6.32-15.5,14.36h0s-.57.57-.57.57Z"/>
        <path id="Path_22" class="cls-2" d="M602.94,136.67h8.04c5.17,0,10.34,1.15,14.93,4.02,5.17,4.02,8.04,9.76,7.47,16.08,0,6.32-2.87,12.63-8.04,16.08-4.02,2.87-9.19,4.59-14.36,4.02h-8.04v-39.62h0v-.57ZM611.56,170.55c4.02,0,7.47-.57,10.34-2.87,3.45-2.87,5.74-6.89,5.17-11.48,0-4.59-1.72-8.61-5.17-11.48-2.87-2.3-6.89-2.87-10.34-2.87h-2.87v28.14h2.87v.57Z"/>
        <path id="Path_23" class="cls-2" d="M643.14,136.67h5.74c3.45,0,6.89,0,9.76,2.3,2.87,2.3,4.59,5.74,4.59,9.19,0,2.87-1.15,5.17-3.45,7.46,4.02,1.72,6.89,5.74,6.89,9.76,0,3.45-1.72,6.32-4.02,8.61-2.87,2.3-6.89,3.45-10.34,2.87h-9.19v-39.62h0v-.57ZM651.18,153.32c1.72,0,3.45,0,4.59-1.15,1.15-1.15,1.72-2.87,1.72-4.59,0-2.87-2.3-5.74-5.17-5.74h-3.45v11.48s2.3,0,2.3,0ZM652.9,170.55c1.72,0,4.02,0,5.74-1.15s2.3-2.87,2.3-4.59-1.15-3.45-2.3-4.59c-1.72-1.15-4.02-1.72-6.32-1.15h-2.87v12.06h3.45v-.57Z"/>
        <path id="Path_24" class="cls-2" d="M716.07,156.19c0,11.48-9.19,20.67-20.67,20.67h0c-5.74,0-11.48-2.87-15.5-6.89-3.45-4.02-5.17-8.61-5.17-13.78,0-11.48,9.19-20.67,20.67-20.67s20.67,9.19,20.67,20.67h0ZM680.46,156.19c0,4.02,1.72,8.04,4.59,10.91s6.32,4.02,10.34,4.02c8.04,0,14.93-6.32,15.5-14.36,0-8.04-6.32-14.93-14.36-15.5-8.04-.57-14.93,6.32-15.5,14.36h0s-.57.57-.57.57Z"/>
        <path id="Path_25" class="cls-2" d="M751.67,176.29h-7.47l-11.48-16.08h-1.15v16.08h-5.74v-39.62h6.89c3.45,0,7.47,0,10.34,2.3s4.59,5.74,4.59,9.19c0,5.17-3.45,9.76-8.61,10.91l12.06,16.65.57.57h0ZM733.87,154.47c2.3,0,4.02,0,5.74-1.15s2.3-2.87,2.3-5.17c0-1.72-1.15-3.45-2.3-4.59-1.72-1.15-4.02-1.72-5.74-1.15h-2.3v12.63h1.72l.57-.57Z"/>
        <path id="Path_26" class="cls-2" d="M759.71,133.8l28.71,30.43v-27.56h5.74v41.92l-28.71-29.86v27.56h-5.74s0-42.49,0-42.49Z"/>
        <path id="Path_27" class="cls-2" d="M813.11,166.53l-4.59,9.76h-6.32l19.52-41.92,18.95,41.92h-6.32l-4.02-9.76h-17.23,0ZM821.72,147.58l-6.32,13.21h12.06l-5.74-13.21ZM820.58,132.65l-2.87-2.3,8.04-8.04,5.17,3.45-10.34,6.89h0Z"/>
        <path id="Path_28" class="cls-2" d="M882.59,145.28c-1.72-2.87-3.45-4.02-5.74-4.02-2.87,0-5.74,1.72-5.74,4.59h0c0,1.15.57,2.87,1.72,3.45,1.72,1.15,4.02,2.3,6.32,2.87,6.32,2.87,9.19,6.32,9.19,11.48,0,6.89-5.74,12.63-12.63,12.63-4.02,0-8.04-1.72-10.34-5.17-1.15-1.72-2.3-4.02-2.3-6.32l6.32-1.15c0,1.72,0,2.87,1.15,4.59,1.72,2.87,5.74,4.02,9.19,2.3,1.72-1.15,2.87-3.45,2.87-5.74s-1.15-4.02-2.87-5.17c-2.3-1.15-4.59-2.3-6.89-2.87-5.74-2.3-8.04-5.74-8.04-9.76,0-6.32,5.74-10.91,11.48-10.34h0c4.59,0,8.61,2.3,10.91,6.89l-4.59,2.87v-1.15h0ZM876.85,132.65l-9.19-8.04,4.02-2.87,5.17,4.59,5.17-4.59,4.02,2.87-9.19,8.04h0Z"/>
        <path id="Path_29" class="cls-2" d="M919.34,136.67h8.04l-17.8,17.8,17.8,21.82h-8.04l-14.36-17.8-1.15,1.15v16.65h-5.74v-39.62h5.74v16.08l15.5-15.5s0-.57,0-.57Z"/>
        <path id="Path_30" class="cls-2" d="M972.75,156.19c0,11.48-9.19,20.67-20.67,20.67h0c-5.74,0-11.48-2.87-15.5-6.89-3.45-4.02-5.17-8.61-5.17-13.78,0-11.48,9.19-20.67,20.67-20.67s20.67,9.19,20.67,20.67h0ZM937.14,156.19c0,4.02,1.72,8.04,4.59,10.91,2.87,2.87,6.32,4.02,10.34,4.02,8.04,0,14.93-6.32,15.5-14.36,0-8.04-6.32-14.93-14.36-15.5-8.04,0-14.93,6.32-15.5,14.36h0l-.57.57Z"/>
        <path id="Path_31" class="cls-2" d="M988.25,170.55h11.48v5.74h-17.8v-39.62h5.74v33.88h.57Z"/>
        <path id="Path_32" class="cls-2" d="M1014.66,166.53l-4.59,9.76h-6.32l19.52-41.92,18.95,41.92h-6.32l-4.02-9.76h-17.23,0ZM1023.28,147.58l-6.32,13.21h12.06l-5.74-13.21Z"/>
        <path id="Path_33" class="cls-2" d="M334.78,237.73l-4.59,9.76h-6.32l19.52-41.92,18.95,41.92h-6.32l-4.02-9.76h-17.23ZM343.39,218.78l-6.32,13.21h12.06l-5.74-13.21Z"/>
        <path id="Path_34" class="cls-2" d="M375.55,247.49h-5.74v-39.62h6.89c4.02,0,8.04,0,10.91,2.3s4.59,5.74,4.59,9.19c0,2.87-1.15,6.32-3.45,8.61-2.87,2.3-6.32,3.45-9.76,3.45h-2.87v16.08s-.57,0-.57,0ZM377.84,225.67c2.3,0,4.59,0,6.32-1.72,1.15-1.15,2.3-2.87,2.3-4.59s-.57-3.45-2.3-4.59-4.02-1.72-6.32-1.15h-1.72v12.63h2.3s-.57-.57-.57-.57Z"/>
        <path id="Path_35" class="cls-2" d="M406.56,241.75h11.48v5.74h-17.8v-39.62h5.74v33.88h.57Z"/>
        <path id="Path_36" class="cls-2" d="M432.4,247.49h-5.74v-39.62h5.74v39.62Z"/>
        <path id="Path_37" class="cls-2" d="M465.13,207.87h8.04l-17.8,17.8,17.8,21.82h-8.04l-14.36-17.8-1.15,1.15v16.65h-5.74v-39.62h5.74v16.08l15.5-15.5v-.57Z"/>
        <path id="Path_38" class="cls-2" d="M518.53,227.4c0,11.48-9.19,20.67-20.67,20.67h0c-5.74,0-11.48-2.87-15.5-6.89-3.45-4.02-5.17-8.61-5.17-13.78,0-11.48,9.19-20.67,20.67-20.67s20.67,9.19,20.67,20.67h0ZM482.93,227.4c0,4.02,1.72,8.04,4.59,10.91,2.87,2.87,6.32,4.02,10.34,4.02,8.04,0,14.93-6.32,15.5-14.36,0-8.04-6.32-14.93-14.36-15.5-8.04,0-14.93,6.32-15.5,14.36h0s-.57.57-.57.57Z"/>
        <path id="Path_39" class="cls-2" d="M539.78,235.43l10.91-27.56h6.32l-17.8,42.49-17.23-42.49h6.32l10.91,27.56h.57Z"/>
        <path id="Path_40" class="cls-2" d="M567.34,237.73l-4.59,9.76h-6.32l19.52-41.92,18.95,41.92h-6.32l-4.02-9.76h-17.23ZM575.95,218.78l-6.32,13.21h12.06l-5.74-13.21Z"/>
        <path id="Path_41" class="cls-2" d="M602.37,205l28.71,30.43v-27.56h5.74v41.92l-28.71-30.43v27.56h-5.74v-42.49h0v.57Z"/>
        <path id="Path_42" class="cls-2" d="M655.2,213.61v9.76h15.5v5.74h-15.5v13.21h16.08v5.74h-21.82v-39.62h21.82v5.74h-16.08v-.57ZM658.64,204.43l-2.87-2.3,8.04-8.04,5.17,3.45s-10.34,6.89-10.34,6.89Z"/>
        <path id="Path_43" class="cls-2" d="M720.08,207.87h8.04l-17.8,17.8,17.8,21.82h-8.04l-14.36-17.8-1.15,1.15v16.65h-5.74v-39.62h5.74v16.08l15.5-15.5v-.57Z"/>
        <path id="Path_44" class="cls-2" d="M731,207.87h6.89l9.19,16.08,9.19-16.08h6.89l-13.21,22.39v17.23h-5.74v-17.23l-13.21-22.39Z"/>
        <path id="Path_45" class="cls-2" d="M769.47,207.87h5.74c3.45,0,6.89,0,9.76,2.3s4.59,5.74,4.59,9.19c0,2.87-1.15,5.17-3.45,7.46,4.02,1.72,6.89,5.74,6.89,9.76,0,3.45-1.72,6.32-4.02,8.61-2.87,2.3-6.89,3.45-10.34,2.87h-9.19v-39.62h0v-.57h0ZM777.51,225.1c1.72,0,3.45,0,4.59-1.15s1.72-2.87,1.72-4.59c0-2.87-2.3-5.74-5.17-5.74h-3.45v11.48h2.3ZM779.23,241.75c1.72,0,4.02,0,5.74-1.15,1.72-1.15,2.3-2.87,2.3-4.59s-1.15-3.45-2.3-4.59c-1.72-1.15-4.02-1.72-6.32-1.15h-2.87v12.06h3.45v-.57Z"/>
        <path id="Path_46" class="cls-2" d="M809.09,213.61v9.76h15.5v5.74h-15.5v13.21h16.08v5.74h-21.82v-39.62h21.82v5.74h-16.08v-.57Z"/>
        <path id="Path_47" class="cls-2" d="M860.77,247.49h-7.47l-11.48-16.08h-1.15v16.08h-5.74v-39.62h6.89c3.45,0,7.47,0,10.34,2.3s4.59,5.74,4.59,9.19c0,5.17-3.45,9.76-8.61,10.91l12.06,16.65.57.57h0ZM842.97,225.67c2.3,0,4.02,0,5.74-1.15s2.3-2.87,2.3-5.17c0-1.72-1.15-3.45-2.3-4.59-1.72-1.15-4.02-1.72-5.74-1.15h-2.3v12.63h1.72l.57-.57h0Z"/>
        <path id="Path_48" class="cls-2" d="M869.38,205l28.71,30.43v-27.56h5.74v41.92l-28.71-30.43v27.56h-5.74v-42.49.57Z"/>
        <path id="Path_49" class="cls-2" d="M922.21,213.61v9.76h15.5v5.74h-15.5v13.21h16.08v5.74h-21.82v-39.62h21.82v5.74h-16.08v-.57Z"/>
        <path id="Path_50" class="cls-2" d="M958.96,247.49h-5.74v-33.88h-9.19v-5.74h24.12v5.74h-9.19v33.88h0Z"/>
        <path id="Path_51" class="cls-2" d="M981.93,247.49h-5.74v-39.62h5.74v39.62Z"/>
        <path id="Path_52" class="cls-2" d="M1015.24,207.87h8.04l-17.8,17.8,17.8,21.82h-8.04l-14.36-17.8-1.15,1.15v16.65h-5.74v-39.62h5.74v16.08l15.5-15.5v-.57Z"/>
        <path id="Path_53" class="cls-2" d="M1026.15,207.87h6.89l9.19,16.08,9.19-16.08h6.89l-13.21,22.39v17.23h-5.74v-17.23l-13.21-22.39Z"/>
        <path id="Path_54" class="cls-2" d="M1078.98,236.01c0-1.15-1.15-1.72-1.72-1.72s-1.15,0-1.15,1.15h0c0,.57,0,1.15,2.3,1.72,4.02,1.72,4.59,2.87,4.59,5.17,0,2.87-2.3,5.17-5.74,5.17h0c-2.3,0-4.59-1.72-5.74-4.02l2.87-1.15c.57,1.72,1.72,2.3,2.3,2.3,1.15,0,1.72,0,1.72-1.72h0c0-.77-1.15-1.72-3.45-2.87s-2.87-2.3-2.87-4.02c0-2.87,2.3-4.59,5.17-4.59,1.72,0,3.45,1.15,4.59,2.87l-2.87,1.72h0Z"/>
        <path id="Path_55" class="cls-2" d="M1092.76,245.77c0,1.15-1.15,2.3-2.3,2.3h0c-1.15,0-2.3-1.15-2.3-2.3s1.15-2.3,2.3-2.3,2.3,1.15,2.3,2.3Z"/>
        <path id="Path_56" class="cls-2" d="M1103.1,231.99v1.15c.57-1.15,2.3-1.72,3.45-1.72s2.3,0,2.87,1.15l-1.72,3.45s-1.15-.57-2.3-.57c-2.3,0-2.87,1.15-2.87,4.59v8.04h-3.45v-15.5h3.45l.57-.57h0Z"/>
        <path id="Path_57" class="cls-2" d="M1116.3,245.77c0,1.15-1.15,2.3-2.3,2.3h0c-1.15,0-2.3-1.15-2.3-2.3s1.15-2.3,2.3-2.3,2.3,1.15,2.3,2.3Z"/>
        <path id="Path_58" class="cls-2" d="M1138.7,239.45c0,4.59-3.45,8.61-8.04,8.61s-8.61-3.45-8.61-8.04,3.45-8.61,8.04-8.61h0c4.59,0,8.04,3.45,8.61,8.04h0ZM1125.49,239.45c0,2.3,2.3,4.59,5.17,4.59s4.59-2.3,4.59-5.17c0-2.3-2.3-4.59-4.59-4.59s-4.59,1.72-4.59,4.59h0l-.57.57h0Z"/>
        <path id="Path_59" class="cls-3" d="M1148.46,245.77c0,1.15-1.15,2.3-2.3,2.3h0c-1.15,0-2.3-1.15-2.3-2.3s1.15-2.3,2.3-2.3h0c1.15,0,2.3,1.15,2.3,2.3Z"/>
      </g>
    </g>
  </g>
</svg>