<svg width="29" height="29" viewBox="0 0 29 29" fill="none" xmlns="http://www.w3.org/2000/svg">
<path d="M22.2031 0H6.79688C3.04306 0 0 3.04306 0 6.79688V22.2031C0 25.9569 3.04306 29 6.79688 29H22.2031C25.9569 29 29 25.9569 29 22.2031V6.79688C29 3.04306 25.9569 0 22.2031 0Z" fill="white"/>
<path d="M14.501 3.17188C11.4245 3.17188 11.0384 3.18536 9.83009 3.2403C8.6241 3.29558 7.80089 3.48646 7.08064 3.7666C6.33548 4.05592 5.70348 4.443 5.07387 5.07285C4.44368 5.70258 4.0566 6.33457 3.76638 7.0794C3.48544 7.79987 3.29433 8.62342 3.24007 9.82885C3.18604 11.0372 3.17188 11.4235 3.17188 14.5001C3.17188 17.5767 3.18547 17.9616 3.2403 19.1699C3.2958 20.3759 3.48668 21.1991 3.7666 21.9194C4.05615 22.6645 4.44323 23.2965 5.07307 23.9261C5.70258 24.5563 6.33457 24.9443 7.07917 25.2336C7.79998 25.5138 8.62331 25.7047 9.82907 25.7599C11.0374 25.8149 11.4233 25.8284 14.4997 25.8284C17.5765 25.8284 17.9614 25.8149 19.1697 25.7599C20.3757 25.7047 21.1998 25.5138 21.9206 25.2336C22.6654 24.9443 23.2965 24.5563 23.9259 23.9261C24.5561 23.2965 24.9431 22.6645 25.2334 21.9197C25.5118 21.1991 25.7031 20.3757 25.7597 19.1701C25.814 17.9619 25.8281 17.5767 25.8281 14.5001C25.8281 11.4235 25.814 11.0374 25.7597 9.82907C25.7031 8.62308 25.5118 7.79998 25.2334 7.07974C24.9431 6.33457 24.5561 5.70258 23.9259 5.07285C23.2958 4.44278 22.6657 4.0557 21.9199 3.76671C21.1978 3.48646 20.3741 3.29546 19.1681 3.2403C17.9597 3.18536 17.575 3.17188 14.4975 3.17188H14.501ZM13.4848 5.21332C13.7864 5.21286 14.123 5.21332 14.501 5.21332C17.5257 5.21332 17.8842 5.22419 19.0786 5.27845C20.1831 5.32898 20.7826 5.51351 21.1819 5.66859C21.7106 5.87386 22.0875 6.11934 22.4837 6.51594C22.8802 6.91242 23.1256 7.28999 23.3314 7.81867C23.4865 8.21742 23.6713 8.81691 23.7215 9.9214C23.7758 11.1156 23.7876 11.4743 23.7876 14.4975C23.7876 17.5208 23.7758 17.8795 23.7215 19.0736C23.671 20.1781 23.4865 20.7776 23.3314 21.1765C23.1261 21.7051 22.8802 22.0816 22.4837 22.4778C22.0872 22.8743 21.7108 23.1197 21.1819 23.3251C20.783 23.4808 20.1831 23.6649 19.0786 23.7154C17.8844 23.7697 17.5257 23.7815 14.501 23.7815C11.4762 23.7815 11.1176 23.7697 9.92355 23.7154C8.81906 23.6645 8.21957 23.4799 7.81992 23.3248C7.29135 23.1195 6.91367 22.8741 6.51718 22.4776C6.1207 22.0811 5.87533 21.7045 5.6695 21.1756C5.51442 20.7767 5.32966 20.1772 5.27936 19.0727C5.2251 17.8785 5.21422 17.5199 5.21422 14.4947C5.21422 11.4696 5.2251 11.1128 5.27936 9.91857C5.32988 8.81407 5.51442 8.21459 5.6695 7.81527C5.87488 7.28659 6.1207 6.90902 6.5173 6.51254C6.91378 6.11606 7.29135 5.87057 7.82003 5.66486C8.21935 5.50909 8.81906 5.32501 9.92355 5.27426C10.9686 5.22702 11.3736 5.21286 13.4848 5.21048V5.21332ZM20.548 7.09424C19.7975 7.09424 19.1886 7.70256 19.1886 8.45316C19.1886 9.20365 19.7975 9.81254 20.548 9.81254C21.2985 9.81254 21.9073 9.20365 21.9073 8.45316C21.9073 7.70267 21.2985 7.09379 20.548 7.09379V7.09424ZM14.501 8.68256C11.2884 8.68256 8.68357 11.2873 8.68357 14.5001C8.68357 17.7129 11.2884 20.3164 14.501 20.3164C17.7138 20.3164 20.3177 17.7129 20.3177 14.5001C20.3177 11.2875 17.7136 8.68256 14.5008 8.68256H14.501ZM14.501 10.724C16.5864 10.724 18.2771 12.4145 18.2771 14.5001C18.2771 16.5855 16.5864 18.2762 14.501 18.2762C12.4155 18.2762 10.725 16.5855 10.725 14.5001C10.725 12.4145 12.4155 10.724 14.501 10.724Z" fill="black"/>
</svg>
