<?xml version="1.0" encoding="UTF-8" standalone="no"?>
<!-- Created with Inkscape (http://www.inkscape.org/) -->

<svg
   version="1.1"
   id="svg2"
   width="234.88"
   height="165.75999"
   viewBox="0 0 234.88 165.75999"
   sodipodi:docname="youtube-logo.svg"
   inkscape:version="1.2.2 (b0a8486541, 2022-12-01)"
   xmlns:inkscape="http://www.inkscape.org/namespaces/inkscape"
   xmlns:sodipodi="http://sodipodi.sourceforge.net/DTD/sodipodi-0.dtd"
   xmlns="http://www.w3.org/2000/svg"
   xmlns:svg="http://www.w3.org/2000/svg">
  <defs
     id="defs6" />
  <sodipodi:namedview
     id="namedview4"
     pagecolor="#ffffff"
     bordercolor="#000000"
     borderopacity="0.25"
     inkscape:showpageshadow="2"
     inkscape:pageopacity="0"
     inkscape:pagecheckerboard="0"
     inkscape:deskcolor="#d1d1d1"
     showgrid="false"
     inkscape:zoom="1.8172508"
     inkscape:cx="-17.609017"
     inkscape:cy="99.876143"
     inkscape:window-width="1920"
     inkscape:window-height="1016"
     inkscape:window-x="1920"
     inkscape:window-y="0"
     inkscape:window-maximized="1"
     inkscape:current-layer="g8" />
  <g
     inkscape:groupmode="layer"
     inkscape:label="Image"
     id="g8">
    <path
       style="fill:#ffffff;fill-opacity:1;stroke-width:0.32"
       d="m 92.918875,165.2243 c -5.544,-0.13333 -15.16157,-0.26173 -21.37237,-0.28533 -17.61107,-0.0669 -35.14236,-1.33864 -44.38763,-3.21984 -9.69747,-1.97322 -17.3946898,-8.00149 -21.46479,-16.81068 -1.75465,-3.79772 -3.03164,-9.55454 -4.3327,-19.5324 -1.81518,-13.92058 -1.81518,-71.51942 0,-85.44 1.30106,-9.97785 2.57805,-15.734678 4.3327,-19.532394 4.0701002,-8.809195 11.76732,-14.8374583 21.46479,-16.8106773 5.71498,-1.162872 16.10914,-2.213177 28,-2.82933395 19.64952,-1.018193 104.510485,-1.018193 124.160005,0 11.89085,0.61615695 22.28501,1.66646195 28,2.82933395 9.69747,1.973219 17.39468,8.0014823 21.46478,16.8106773 1.75466,3.797716 3.03165,9.554544 4.33271,19.532394 0.79714,6.11327 1.38549,24.25424 1.38549,42.72 0,41.30485 -1.92653,57.24206 -8.03365,66.45835 -2.53919,3.83192 -7.12123,7.91703 -11.14933,9.94018 -5.05525,2.53905 -11.90982,3.76546 -28.32,5.067 -10.35556,0.82132 -74.51224,1.57331 -94.080005,1.10272 z M 124.67708,98.41801 c 15.09102,-8.58108 27.4378,-15.67396 27.4373,-15.76196 -5e-4,-0.088 -12.34769,-7.18106 -27.4382,-15.76234 C 109.58566,58.31242 96.482875,50.85751 95.558875,50.32723 l -1.68,-0.96412 V 82.65605 115.949 l 1.68,-0.96451 c 0.924,-0.53048 14.027195,-7.98539 29.118205,-16.56648 z"
       id="path297" />
    <path
       style="fill:#000000;stroke-width:0.32"
       id="path295"
       d="" />
  </g>
</svg>
